{
.appVersion = "1233";
DisplayStrings = (
"/mond/kopf/koenigspaar/cranach_1/cranach_2/eins_mensch/mann"
);
copyright = "Copyright © 2019 by ANRT 2019. All rights reserved.";
customParameters = (
{
name = glyphOrder;
value = (
.notdef,
emspace,
enspace,
threeperemspace,
fourperemspace,
space,
thinspace,
hairspace,
A,
AE,
B,
C,
D,
E,
F,
G,
H,
I,
J,
K,
L,
M,
N,
O,
OE,
P,
Q,
R,
S,
T,
U,
Udieresis,
V,
W,
X,
Y,
Z,
a,
adieresis,
a_e,
a_grave,
b,
c,
c_cedilla,
c_h,
c_k,
d,
e,
e_acute,
f,
f_f,
f_f_l,
f_i,
f_l,
g,
h,
i,
j,
k,
l,
m,
n,
o,
odieresis,
o_e,
p,
q,
r,
s,
longs,
germandbls,
germandbls.ss01,
t,
t_h,
t_z,
u,
udieresis,
u_grave,
v,
w,
x,
y,
y_dieresis,
z,
z.ss01,
zero,
one,
two,
three,
four,
five,
six,
seven,
eight,
nine,
ampersand,
period,
comma,
colon,
semicolon,
exclam,
question,
hyphen,
ellipsis,
periodcentered,
bracketleft,
bracketright,
parenleft,
parenright,
dieresis,
quotedblleft,
quotedblright,
quoteleft,
quoteright,
quotesinglbase,
quotedblbase,
quotesingle,
"_corner-bdc-court",
"_corner-bdc-long",
treppe,
mond,
kopf,
koenigspaar,
cranach_1,
cranach_2,
soldat,
eins_mensch,
maske,
mann,
Totenkopf2
);
},
{
name = "Use Typo Metrics";
value = 1;
},
{
name = vendorID;
value = ANRT;
},
{
name = unicodeRanges;
value = (
0
);
},
{
name = codePageRanges;
value = (
1252
);
},
{
name = openTypeOS2Type;
value = (
2
);
},
{
name = fsType;
value = (
2
);
},
{
name = description;

glyphs = (
{
color = 3;
glyphname = A;
lastChange = "2019-04-24 18:54:26 +0000";
layers = (
{
layerId = "60B24473-AF85-4843-BA5D-A0A691C0B2A6";
paths = (
{
closed = 1;
nodes = (
"199 285 LINE",
"294 285 OFFCURVE",
"389 285 OFFCURVE",
"484 285 CURVE",
"484 325 LINE",
"199 325 LINE"
);
},
{
closed = 1;
nodes = (
"493 0 LINE",
"656 0 LINE",
"661 10 LINE",
"569 243 OFFCURVE",
"407 620 OFFCURVE",
"399 710 CURVE",
"369 710 LINE",
"5 10 LINE",
"10 0 LINE",
"210 0 LINE",
"210 20 LINE",
"140 40 OFFCURVE",
"115 66 OFFCURVE",
"131 102 CURVE SMOOTH",
"365 618 LINE",
"333 603 LINE",
"415 421 OFFCURVE",
"468 261 OFFCURVE",
"523 102 CURVE SMOOTH",
"539 56 OFFCURVE",
"529 40 OFFCURVE",
"493 20 CURVE"
);
}
);
width = 666;
}
);
unicode = 0041;
},
{
color = 3;
glyphname = AE;
lastChange = "2019-04-24 18:54:26 +0000";
layers = (
{
guideLines = (
{
position = "{633, 215}";
showMeasurement = 1;
},
{
angle = 90;
position = "{633, 211}";
showMeasurement = 1;
},
{
position = "{246, 190}";
}
);
layerId = "60B24473-AF85-4843-BA5D-A0A691C0B2A6";
paths = (
{
closed = 1;
nodes = (
"480 617 LINE",
"480 384 LINE",
"325 384 LINE",
"297 344 LINE",
"480 344 LINE",
"480 112 LINE SMOOTH",
"480 58 OFFCURVE",
"449 34 OFFCURVE",
"407 25 CURVE",
"407 0 LINE",
"511 0 LINE",
"511 700 LINE",
"339 700 LINE",
"339 675 LINE",
"381 675 OFFCURVE",
"425 662 OFFCURVE",
"439 649 CURVE",
"10 10 LINE",
"15 0 LINE",
"238 0 LINE",
"243 25 LINE",
"195 54 OFFCURVE",
"154 80 OFFCURVE",
"180 123 CURVE SMOOTH"
);
},
{
closed = 1;
nodes = (
"526 0 LINE",
"566 135 LINE",
"558 344 LINE",
"720 344 LINE SMOOTH",
"790 344 OFFCURVE",
"793 324 OFFCURVE",
"818 288 CURVE",
"833 288 LINE",
"833 431 LINE",
"818 431 LINE",
"805 410 OFFCURVE",
"790 384 OFFCURVE",
"720 384 CURVE SMOOTH",
"564 384 LINE",
"564 660 LINE",
"687 660 LINE SMOOTH",
"768 660 OFFCURVE",
"792 643 OFFCURVE",
"818 589 CURVE",
"833 589 LINE",
"833 700 LINE",
"564 700 LINE",
"526 700 LINE"
);
},
{
closed = 1;
nodes = (
"483 442 OFFCURVE",
"481 273 OFFCURVE",
"480 135 CURVE SMOOTH",
"479 42 OFFCURVE",
"451 32 OFFCURVE",
"429 20 CURVE",
"429 0 LINE",
"478 0 LINE",
"568 0 LINE",
"645 0 LINE",
"644 23 LINE",
"587 38 OFFCURVE",
"567 45 OFFCURVE",
"566 135 CURVE SMOOTH",
"564 272 OFFCURVE",
"564 433 OFFCURVE",
"566 605 CURVE",
"566 679 LINE",
"617 700 LINE",
"568 700 LINE",
"478 700 LINE",
"429 700 LINE",
"429 680 LINE",
"451 671 OFFCURVE",
"479 658 OFFCURVE",
"480 605 CURVE SMOOTH"
);
},
{
closed = 1;
nodes = (
"558 0 LINE",
"720 0 LINE SMOOTH",
"790 0 OFFCURVE",
"793 -20 OFFCURVE",
"818 -56 CURVE",
"833 -56 LINE",
"833 87 LINE",
"818 87 LINE",
"801 66 OFFCURVE",
"790 40 OFFCURVE",
"720 40 CURVE SMOOTH",
"668 40 OFFCURVE",
"575 30 OFFCURVE",
"568 100 CURVE"
);
}
);
width = 858;
}
);
rightMetricsKey = E;
unicode = 00C6;
},
{
color = 3;
glyphname = B;
lastChange = "2019-04-24 18:54:26 +0000";
layers = (
{
layerId = "60B24473-AF85-4843-BA5D-A0A691C0B2A6";
paths = (
{
closed = 1;
nodes = (
"64 -6 OFFCURVE",
"99 0 OFFCURVE",
"134 0 CURVE SMOOTH",
"184 0 OFFCURVE",
"233 -10 OFFCURVE",
"283 -10 CURVE SMOOTH",
"423 -10 OFFCURVE",
"576 68 OFFCURVE",
"576 208 CURVE SMOOTH",
"576 332 OFFCURVE",
"477 391 OFFCURVE",
"363 407 CURVE",
"425 427 OFFCURVE",
"499 482 OFFCURVE",
"499 568 CURVE SMOOTH",
"499 648 OFFCURVE",
"430 710 OFFCURVE",
"340 710 CURVE SMOOTH",
"214 710 OFFCURVE",
"126 670 OFFCURVE",
"20 660 CURVE",
"20 634 LINE",
"53 634 OFFCURVE",
"74 601 OFFCURVE",
"76 571 CURVE SMOOTH",
"86 416 OFFCURVE",
"87 251 OFFCURVE",
"76 96 CURVE SMOOTH",
"74 69 OFFCURVE",
"57 30 OFFCURVE",
"30 3 CURVE",
"42 -15 LINE"
);
},
{
closed = 1;
nodes = (
"209 40 OFFCURVE",
"166 70 OFFCURVE",
"166 133 CURVE SMOOTH",
"166 315 LINE SMOOTH",
"166 358 OFFCURVE",
"202 373 OFFCURVE",
"298 373 CURVE SMOOTH",
"398 373 OFFCURVE",
"476 308 OFFCURVE",
"476 208 CURVE SMOOTH",
"476 108 OFFCURVE",
"408 40 OFFCURVE",
"298 40 CURVE SMOOTH"
);
},
{
closed = 1;
nodes = (
"202 409 OFFCURVE",
"163 411 OFFCURVE",
"163 451 CURVE SMOOTH",
"163 636 LINE SMOOTH",
"163 648 OFFCURVE",
"214 662 OFFCURVE",
"279 662 CURVE SMOOTH",
"339 662 OFFCURVE",
"399 622 OFFCURVE",
"399 542 CURVE SMOOTH",
"399 457 OFFCURVE",
"340 409 OFFCURVE",
"255 409 CURVE SMOOTH"
);
}
);
width = 596;
}
);
leftMetricsKey = H;
unicode = 0042;
},
{
color = 3;
glyphname = C;
lastChange = "2019-04-24 18:54:26 +0000";
layers = (
{
layerId = "60B24473-AF85-4843-BA5D-A0A691C0B2A6";
paths = (
{
closed = 1;
nodes = (
"25 165 OFFCURVE",
"157 -10 OFFCURVE",
"337 -10 CURVE",
"408 25 OFFCURVE",
"465 63 OFFCURVE",
"518 103 CURVE",
"518 150 LINE",
"513 152 LINE",
"468 119 OFFCURVE",
"400 90 OFFCURVE",
"365 90 CURVE SMOOTH",
"235 90 OFFCURVE",
"115 225 OFFCURVE",
"115 405 CURVE SMOOTH",
"115 520 OFFCURVE",
"163 613 OFFCURVE",
"235 635 CURVE",
"292 635 OFFCURVE",
"397 588 OFFCURVE",
"449 547 CURVE",
"452 547 LINE",
"519 652 LINE",
"475 680 OFFCURVE",
"392 710 OFFCURVE",
"342 710 CURVE SMOOTH",
"152 710 OFFCURVE",
"25 535 OFFCURVE",
"25 345 CURVE SMOOTH"
);
}
);
width = 534;
}
);
leftMetricsKey = O;
unicode = 0043;
},
{
color = 3;
glyphname = D;
lastChange = "2019-04-24 18:54:26 +0000";
layers = (
{
layerId = "60B24473-AF85-4843-BA5D-A0A691C0B2A6";
paths = (
{
closed = 1;
nodes = (
"270 710 OFFCURVE",
"155 700 OFFCURVE",
"105 700 CURVE SMOOTH",
"77 700 OFFCURVE",
"60 703 OFFCURVE",
"30 710 CURVE",
"20 685 LINE",
"41 672 OFFCURVE",
"68 628 OFFCURVE",
"69 575 CURVE SMOOTH",
"72 417 OFFCURVE",
"73 259 OFFCURVE",
"69 101 CURVE SMOOTH",
"68 64 OFFCURVE",
"50 35 OFFCURVE",
"23 8 CURVE",
"35 -10 LINE",
"57 -1 OFFCURVE",
"92 5 OFFCURVE",
"127 5 CURVE SMOOTH",
"177 5 OFFCURVE",
"273 -10 OFFCURVE",
"323 -10 CURVE SMOOTH",
"496 -10 OFFCURVE",
"686 89 OFFCURVE",
"686 343 CURVE SMOOTH",
"686 553 OFFCURVE",
"540 710 OFFCURVE",
"330 710 CURVE SMOOTH"
);
},
{
closed = 1;
nodes = (
"225 40 OFFCURVE",
"166 70 OFFCURVE",
"163 160 CURVE SMOOTH",
"159 268 OFFCURVE",
"159 466 OFFCURVE",
"166 650 CURVE",
"297 650 LINE SMOOTH",
"467 650 OFFCURVE",
"581 543 OFFCURVE",
"581 343 CURVE SMOOTH",
"581 202 OFFCURVE",
"517 40 OFFCURVE",
"337 40 CURVE SMOOTH"
);
}
);
width = 711;
}
);
leftMetricsKey = H;
rightMetricsKey = O;
unicode = 0044;
},
{
color = 3;
glyphname = E;
lastChange = "2019-04-24 18:54:26 +0000";
layers = (
{
layerId = "60B24473-AF85-4843-BA5D-A0A691C0B2A6";
paths = (
{
closed = 1;
nodes = (
"283 660 LINE SMOOTH",
"364 660 OFFCURVE",
"388 643 OFFCURVE",
"414 589 CURVE",
"429 589 LINE",
"429 700 LINE",
"20 700 LINE",
"20 680 LINE",
"42 671 OFFCURVE",
"70 658 OFFCURVE",
"71 605 CURVE SMOOTH",
"74 442 OFFCURVE",
"72 273 OFFCURVE",
"71 135 CURVE SMOOTH",
"70 42 OFFCURVE",
"42 32 OFFCURVE",
"20 20 CURVE",
"20 0 LINE",
"316 0 LINE SMOOTH",
"386 0 OFFCURVE",
"389 -20 OFFCURVE",
"414 -56 CURVE",
"429 -56 LINE",
"429 87 LINE",
"414 87 LINE",
"397 66 OFFCURVE",
"386 40 OFFCURVE",
"316 40 CURVE SMOOTH",
"264 40 OFFCURVE",
"171 30 OFFCURVE",
"164 100 CURVE",
"164 99 LINE",
"163 109 OFFCURVE",
"162 121 OFFCURVE",
"162 135 CURVE",
"161 201 OFFCURVE",
"161 272 OFFCURVE",
"161 347 CURVE",
"316 347 LINE SMOOTH",
"386 347 OFFCURVE",
"389 327 OFFCURVE",
"414 291 CURVE",
"429 291 LINE",
"429 434 LINE",
"414 434 LINE",
"401 413 OFFCURVE",
"386 387 OFFCURVE",
"316 387 CURVE SMOOTH",
"161 387 LINE",
"161 457 OFFCURVE",
"161 530 OFFCURVE",
"162 605 CURVE SMOOTH",
"162 660 LINE"
);
}
);
width = 454;
}
);
leftMetricsKey = H;
unicode = 0045;
},
{
color = 3;
glyphname = F;
lastChange = "2019-04-24 18:54:26 +0000";
layers = (
{
guideLines = (
{
angle = 90;
position = "{280, 538}";
showMeasurement = 1;
}
);
layerId = "60B24473-AF85-4843-BA5D-A0A691C0B2A6";
paths = (
{
closed = 1;
nodes = (
"163 660 LINE",
"284 660 LINE SMOOTH",
"365 660 OFFCURVE",
"389 643 OFFCURVE",
"415 589 CURVE",
"430 589 LINE",
"430 700 LINE",
"20 700 LINE",
"20 680 LINE",
"42 671 OFFCURVE",
"70 658 OFFCURVE",
"71 605 CURVE SMOOTH",
"74 442 OFFCURVE",
"72 273 OFFCURVE",
"71 135 CURVE SMOOTH",
"70 42 OFFCURVE",
"42 32 OFFCURVE",
"20 20 CURVE",
"20 0 LINE",
"242 0 LINE",
"241 23 LINE",
"188 42 OFFCURVE",
"164 55 OFFCURVE",
"163 95 CURVE SMOOTH",
"161 182 OFFCURVE",
"161 265 OFFCURVE",
"161 347 CURVE",
"317 347 LINE SMOOTH",
"387 347 OFFCURVE",
"390 327 OFFCURVE",
"415 291 CURVE",
"430 291 LINE",
"430 434 LINE",
"415 434 LINE",
"402 413 OFFCURVE",
"387 387 OFFCURVE",
"317 387 CURVE SMOOTH",
"161 387 LINE",
"161 405 LINE SMOOTH",
"161 471 OFFCURVE",
"162 537 OFFCURVE",
"163 605 CURVE SMOOTH"
);
}
);
width = 455;
}
);
leftMetricsKey = H;
unicode = 0046;
},
{
color = 3;
glyphname = G;
lastChange = "2019-04-24 18:54:26 +0000";
layers = (
{
guideLines = (
{
position = "{173, 361}";
showMeasurement = 1;
},
{
position = "{384, 198}";
showMeasurement = 1;
}
);
layerId = "60B24473-AF85-4843-BA5D-A0A691C0B2A6";
paths = (
{
closed = 1;
nodes = (
"649 650 LINE",
"580 686 OFFCURVE",
"499 710 OFFCURVE",
"419 710 CURVE SMOOTH",
"194 710 OFFCURVE",
"25 562 OFFCURVE",
"25 347 CURVE SMOOTH",
"25 143 OFFCURVE",
"168 -10 OFFCURVE",
"384 -10 CURVE SMOOTH",
"480 -10 OFFCURVE",
"582 29 OFFCURVE",
"626 57 CURVE",
"622 165 OFFCURVE",
"622 272 OFFCURVE",
"626 380 CURVE",
"379 380 LINE",
"337 290 LINE",
"350 282 LINE",
"383 299 OFFCURVE",
"423 300 OFFCURVE",
"537 300 CURVE",
"539 226 OFFCURVE",
"541 153 OFFCURVE",
"531 79 CURVE",
"510 53 OFFCURVE",
"470 40 OFFCURVE",
"421 40 CURVE SMOOTH",
"231 40 OFFCURVE",
"125 170 OFFCURVE",
"125 360 CURVE SMOOTH",
"125 530 OFFCURVE",
"189 650 OFFCURVE",
"347 650 CURVE SMOOTH",
"425 650 OFFCURVE",
"526 603 OFFCURVE",
"595 556 CURVE",
"602 556 LINE"
);
}
);
width = 689;
}
);
leftMetricsKey = O;
unicode = 0047;
},
{
color = 3;
glyphname = H;
lastChange = "2019-04-24 18:54:26 +0000";
layers = (
{
components = (
{
name = I;
}
);
layerId = "60B24473-AF85-4843-BA5D-A0A691C0B2A6";
paths = (
{
closed = 1;
nodes = (
"134 325 LINE",
"567 325 LINE",
"567 375 LINE",
"134 375 LINE"
);
},
{
closed = 1;
nodes = (
"163 0 LINE",
"256 0 LINE",
"256 21 LINE",
"220 32 OFFCURVE",
"163 45 OFFCURVE",
"163 125 CURVE"
);
},
{
closed = 1;
nodes = (
"624 258 OFFCURVE",
"623 297 OFFCURVE",
"627 435 CURVE SMOOTH",
"630 528 OFFCURVE",
"656 538 OFFCURVE",
"678 550 CURVE",
"678 570 LINE",
"629 570 LINE",
"533 570 LINE",
"456 570 LINE",
"457 547 LINE",
"514 532 OFFCURVE",
"532 525 OFFCURVE",
"535 435 CURVE SMOOTH",
"540 298 OFFCURVE",
"540 267 OFFCURVE",
"535 95 CURVE SMOOTH",
"533 42 OFFCURVE",
"505 33 OFFCURVE",
"484 21 CURVE",
"484 0 LINE",
"533 0 LINE",
"629 0 LINE",
"678 0 LINE",
"678 20 LINE",
"656 29 OFFCURVE",
"628 42 OFFCURVE",
"627 95 CURVE SMOOTH"
);
}
);
width = 698;
}
);
unicode = 0048;
},
{
color = 3;
glyphname = I;
lastChange = "2019-04-24 18:54:26 +0000";
layers = (
{
layerId = "60B24473-AF85-4843-BA5D-A0A691C0B2A6";
paths = (
{
closed = 1;
nodes = (
"74 442 OFFCURVE",
"72 273 OFFCURVE",
"71 135 CURVE SMOOTH",
"70 42 OFFCURVE",
"42 32 OFFCURVE",
"20 20 CURVE",
"20 0 LINE",
"242 0 LINE",
"242 23 LINE",
"185 38 OFFCURVE",
"164 45 OFFCURVE",
"163 135 CURVE SMOOTH",
"161 272 OFFCURVE",
"161 433 OFFCURVE",
"163 605 CURVE SMOOTH",
"164 658 OFFCURVE",
"193 667 OFFCURVE",
"214 679 CURVE",
"214 700 LINE",
"20 700 LINE",
"20 680 LINE",
"42 671 OFFCURVE",
"70 658 OFFCURVE",
"71 605 CURVE SMOOTH"
);
}
);
width = 262;
}
);
leftMetricsKey = H;
rightMetricsKey = H;
unicode = 0049;
},
{
color = 3;
glyphname = J;
lastChange = "2019-04-24 18:54:26 +0000";
layers = (
{
layerId = "60B24473-AF85-4843-BA5D-A0A691C0B2A6";
paths = (
{
closed = 1;
nodes = (
"10 566 LINE",
"12 619 OFFCURVE",
"27 689 OFFCURVE",
"50 689 CURVE SMOOTH",
"119 689 OFFCURVE",
"185 684 OFFCURVE",
"243 684 CURVE SMOOTH",
"291 684 OFFCURVE",
"342 697 OFFCURVE",
"380 710 CURVE",
"392 689 LINE",
"309 624 OFFCURVE",
"349 283 OFFCURVE",
"349 45 CURVE SMOOTH",
"349 -189 OFFCURVE",
"271 -257 OFFCURVE",
"128 -257 CURVE",
"128 -226 LINE",
"221 -199 OFFCURVE",
"254 -166 OFFCURVE",
"254 -49 CURVE SMOOTH",
"254 594 LINE",
"105 594 LINE SMOOTH",
"50 594 OFFCURVE",
"35 584 OFFCURVE",
"17 563 CURVE"
);
}
);
width = 422;
}
);
unicode = 004A;
},
{
color = 3;
glyphname = K;
lastChange = "2019-04-24 18:54:26 +0000";
layers = (
{
components = (
{
name = I;
}
);
layerId = "60B24473-AF85-4843-BA5D-A0A691C0B2A6";
paths = (
{
closed = 1;
nodes = (
"150 376 LINE",
"204 370 OFFCURVE",
"316 252 OFFCURVE",
"417 90 CURVE SMOOTH",
"427 74 OFFCURVE",
"409 46 OFFCURVE",
"368 22 CURVE",
"368 0 LINE",
"628 0 LINE",
"633 10 LINE",
"505 132 OFFCURVE",
"381 267 OFFCURVE",
"253 405 CURVE",
"326 448 OFFCURVE",
"499 601 OFFCURVE",
"577 690 CURVE",
"572 700 LINE",
"352 700 LINE",
"352 678 LINE",
"385 672 OFFCURVE",
"401 653 OFFCURVE",
"401 630 CURVE SMOOTH",
"401 580 OFFCURVE",
"241 409 OFFCURVE",
"150 409 CURVE"
);
}
);
width = 633;
}
);
leftMetricsKey = H;
unicode = 004B;
},
{
color = 3;
glyphname = L;
lastChange = "2019-04-24 18:54:26 +0000";
layers = (
{
background = {
paths = (
{
closed = 1;
nodes = (
"122 0 LINE",
"162 135 LINE",
"154 347 LINE",
"316 347 LINE SMOOTH",
"386 347 OFFCURVE",
"389 327 OFFCURVE",
"414 291 CURVE",
"429 291 LINE",
"429 434 LINE",
"414 434 LINE",
"401 413 OFFCURVE",
"386 387 OFFCURVE",
"316 387 CURVE SMOOTH",
"160 387 LINE",
"160 660 LINE",
"283 660 LINE SMOOTH",
"364 660 OFFCURVE",
"388 643 OFFCURVE",
"414 589 CURVE",
"429 589 LINE",
"429 700 LINE",
"160 700 LINE",
"122 700 LINE"
);
},
{
closed = 1;
nodes = (
"80 442 OFFCURVE",
"78 273 OFFCURVE",
"76 135 CURVE SMOOTH",
"75 42 OFFCURVE",
"47 32 OFFCURVE",
"25 20 CURVE",
"25 0 LINE",
"74 0 LINE",
"164 0 LINE",
"241 0 LINE",
"240 23 LINE",
"183 38 OFFCURVE",
"163 45 OFFCURVE",
"162 135 CURVE SMOOTH",
"160 272 OFFCURVE",
"160 433 OFFCURVE",
"162 605 CURVE",
"162 679 LINE",
"213 700 LINE",
"164 700 LINE",
"74 700 LINE",
"25 700 LINE",
"25 680 LINE",
"47 671 OFFCURVE",
"75 658 OFFCURVE",
"76 605 CURVE SMOOTH"
);
},
{
closed = 1;
nodes = (
"154 0 LINE",
"316 0 LINE SMOOTH",
"386 0 OFFCURVE",
"389 -20 OFFCURVE",
"414 -56 CURVE",
"429 -56 LINE",
"429 87 LINE",
"414 87 LINE",
"397 66 OFFCURVE",
"386 40 OFFCURVE",
"316 40 CURVE SMOOTH",
"264 40 OFFCURVE",
"171 30 OFFCURVE",
"164 100 CURVE"
);
}
);
};
layerId = "60B24473-AF85-4843-BA5D-A0A691C0B2A6";
paths = (
{
closed = 1;
nodes = (
"489 181 LINE SMOOTH",
"474 97 OFFCURVE",
"449 76 OFFCURVE",
"413 67 CURVE SMOOTH",
"355 53 OFFCURVE",
"259 40 OFFCURVE",
"230 40 CURVE SMOOTH",
"186 40 OFFCURVE",
"164 69 OFFCURVE",
"164 100 CURVE",
"164 99 LINE",
"163 109 OFFCURVE",
"162 121 OFFCURVE",
"162 135 CURVE",
"160 272 OFFCURVE",
"162 443 OFFCURVE",
"162 605 CURVE SMOOTH",
"162 638 OFFCURVE",
"207 661 OFFCURVE",
"262 680 CURVE",
"262 700 LINE",
"20 700 LINE",
"20 680 LINE",
"42 671 OFFCURVE",
"70 658 OFFCURVE",
"71 605 CURVE SMOOTH",
"74 442 OFFCURVE",
"72 273 OFFCURVE",
"71 135 CURVE SMOOTH",
"70 42 OFFCURVE",
"42 32 OFFCURVE",
"20 20 CURVE",
"20 0 LINE",
"515 0 LINE",
"515 201 LINE",
"493 201 LINE"
);
}
);
width = 540;
}
);
leftMetricsKey = H;
unicode = 004C;
},
{
color = 3;
glyphname = M;
lastChange = "2019-04-24 18:54:26 +0000";
layers = (
{
guideLines = (
{
position = "{418, 411}";
}
);
hints = (
{
horizontal = 1;
origin = "{0, 28}";
target = down;
type = TopGhost;
}
);
layerId = "60B24473-AF85-4843-BA5D-A0A691C0B2A6";
paths = (
{
closed = 1;
nodes = (
"20 0 LINE",
"15 10 LINE",
"82 249 OFFCURVE",
"145 480 OFFCURVE",
"202 710 CURVE",
"237 710 LINE",
"230 672 OFFCURVE",
"341 380 OFFCURVE",
"422 170 CURVE",
"383 185 LINE",
"588 710 LINE",
"623 710 LINE",
"611 670 OFFCURVE",
"712 243 OFFCURVE",
"764 10 CURVE",
"759 0 LINE",
"596 0 LINE",
"593 20 LINE",
"619 40 OFFCURVE",
"655 61 OFFCURVE",
"651 82 CURVE SMOOTH",
"571 520 LINE",
"504 349 OFFCURVE",
"424 126 OFFCURVE",
"396 -5 CURVE",
"376 -5 LINE",
"321 177 OFFCURVE",
"262 356 OFFCURVE",
"197 520 CURVE",
"102 90 LINE SMOOTH",
"95 56 OFFCURVE",
"118 40 OFFCURVE",
"163 20 CURVE",
"160 0 LINE"
);
}
);
width = 779;
}
);
unicode = 004D;
},
{
color = 3;
glyphname = N;
lastChange = "2019-04-24 18:54:26 +0000";
layers = (
{
components = (
{
name = I;
}
);
layerId = "60B24473-AF85-4843-BA5D-A0A691C0B2A6";
paths = (
{
closed = 1;
nodes = (
"569 322 LINE",
"428 407 OFFCURVE",
"291 501 OFFCURVE",
"158 603 CURVE",
"158 508 LINE",
"298 421 OFFCURVE",
"435 327 OFFCURVE",
"569 227 CURVE"
);
},
{
closed = 1;
nodes = (
"639 658 OFFCURVE",
"652 671 OFFCURVE",
"674 680 CURVE",
"674 700 LINE",
"640 700 LINE",
"544 700 LINE",
"475 700 LINE",
"475 679 LINE",
"499 672 OFFCURVE",
"545 658 OFFCURVE",
"546 605 CURVE SMOOTH",
"548 433 OFFCURVE",
"548 272 OFFCURVE",
"546 135 CURVE SMOOTH",
"545 65 OFFCURVE",
"534 46 OFFCURVE",
"487 23 CURVE",
"487 0 LINE",
"544 0 LINE",
"640 0 LINE",
"689 0 LINE",
"689 20 LINE",
"667 32 OFFCURVE",
"639 42 OFFCURVE",
"638 135 CURVE SMOOTH",
"637 273 OFFCURVE",
"635 442 OFFCURVE",
"638 605 CURVE SMOOTH"
);
}
);
width = 709;
}
);
leftMetricsKey = H;
rightMetricsKey = H;
unicode = 004E;
},
{
color = 3;
glyphname = O;
lastChange = "2019-04-24 18:54:26 +0000";
layers = (
{
layerId = "60B24473-AF85-4843-BA5D-A0A691C0B2A6";
paths = (
{
closed = 1;
nodes = (
"156 -10 OFFCURVE",
"25 150 OFFCURVE",
"25 340 CURVE SMOOTH",
"25 540 OFFCURVE",
"156 710 OFFCURVE",
"356 710 CURVE",
"356 660 LINE",
"206 660 OFFCURVE",
"130 510 OFFCURVE",
"130 340 CURVE SMOOTH",
"130 190 OFFCURVE",
"206 40 OFFCURVE",
"356 40 CURVE",
"356 -10 LINE"
);
},
{
closed = 1;
nodes = (
"355 40 LINE",
"505 40 OFFCURVE",
"581 190 OFFCURVE",
"581 340 CURVE SMOOTH",
"581 510 OFFCURVE",
"505 660 OFFCURVE",
"355 660 CURVE",
"355 710 LINE",
"555 710 OFFCURVE",
"686 540 OFFCURVE",
"686 340 CURVE SMOOTH",
"686 150 OFFCURVE",
"555 -10 OFFCURVE",
"355 -10 CURVE"
);
}
);
width = 711;
}
);
unicode = 004F;
},
{
color = 3;
glyphname = OE;
lastChange = "2019-04-24 18:54:26 +0000";
layers = (
{
layerId = "60B24473-AF85-4843-BA5D-A0A691C0B2A6";
paths = (
{
closed = 1;
nodes = (
"750 650 LINE SMOOTH",
"831 650 OFFCURVE",
"855 623 OFFCURVE",
"881 569 CURVE",
"896 569 LINE",
"896 700 LINE",
"496 700 LINE",
"432 708 OFFCURVE",
"398 710 OFFCURVE",
"355 710 CURVE SMOOTH",
"156 710 OFFCURVE",
"25 540 OFFCURVE",
"25 340 CURVE SMOOTH",
"25 150 OFFCURVE",
"156 -15 OFFCURVE",
"361 -15 CURVE SMOOTH",
"426 -15 OFFCURVE",
"470 -9 OFFCURVE",
"518 0 CURVE",
"803 0 LINE SMOOTH",
"853 0 OFFCURVE",
"855 -11 OFFCURVE",
"881 -56 CURVE",
"896 -56 LINE",
"896 108 LINE",
"885 108 LINE",
"868 87 OFFCURVE",
"848 61 OFFCURVE",
"783 61 CURVE SMOOTH",
"646 61 OFFCURVE",
"622 44 OFFCURVE",
"619 135 CURVE SMOOTH",
"617 201 OFFCURVE",
"618 272 OFFCURVE",
"618 347 CURVE",
"783 347 LINE SMOOTH",
"853 347 OFFCURVE",
"856 327 OFFCURVE",
"881 291 CURVE",
"896 291 LINE",
"896 447 LINE",
"881 447 LINE",
"868 426 OFFCURVE",
"853 400 OFFCURVE",
"783 400 CURVE SMOOTH",
"618 400 LINE",
"618 470 OFFCURVE",
"619 530 OFFCURVE",
"619 605 CURVE SMOOTH",
"619 650 LINE"
);
},
{
closed = 1;
nodes = (
"130 510 OFFCURVE",
"206 660 OFFCURVE",
"355 660 CURVE SMOOTH",
"436 660 OFFCURVE",
"494 629 OFFCURVE",
"527 599 CURVE",
"527 148 LINE",
"489 83 OFFCURVE",
"437 40 OFFCURVE",
"355 40 CURVE SMOOTH",
"206 40 OFFCURVE",
"130 190 OFFCURVE",
"130 340 CURVE SMOOTH"
);
}
);
width = 921;
}
);
leftMetricsKey = O;
rightMetricsKey = E;
unicode = 0152;
},
{
color = 3;
glyphname = P;
lastChange = "2019-04-24 18:54:26 +0000";
layers = (
{
layerId = "60B24473-AF85-4843-BA5D-A0A691C0B2A6";
paths = (
{
closed = 1;
nodes = (
"20 700 LINE",
"20 680 LINE",
"42 671 OFFCURVE",
"70 658 OFFCURVE",
"71 605 CURVE SMOOTH",
"74 442 OFFCURVE",
"72 273 OFFCURVE",
"71 135 CURVE SMOOTH",
"70 42 OFFCURVE",
"42 32 OFFCURVE",
"20 20 CURVE",
"20 0 LINE",
"262 0 LINE",
"262 23 LINE",
"205 38 OFFCURVE",
"165 55 OFFCURVE",
"163 115 CURVE SMOOTH",
"159 227 OFFCURVE",
"158 303 OFFCURVE",
"163 661 CURVE",
"230 661 LINE SMOOTH",
"360 661 OFFCURVE",
"441 598 OFFCURVE",
"441 483 CURVE SMOOTH",
"441 393 OFFCURVE",
"388 329 OFFCURVE",
"288 329 CURVE SMOOTH",
"241 329 LINE",
"249 292 LINE",
"310 292 LINE SMOOTH",
"420 292 OFFCURVE",
"541 373 OFFCURVE",
"541 483 CURVE SMOOTH",
"541 613 OFFCURVE",
"423 700 OFFCURVE",
"271 700 CURVE SMOOTH"
);
}
);
width = 551;
}
);
leftMetricsKey = H;
unicode = 0050;
},
{
color = 3;
glyphname = Q;
lastChange = "2019-04-24 18:54:26 +0000";
layers = (
{
components = (
{
name = O;
}
);
layerId = "60B24473-AF85-4843-BA5D-A0A691C0B2A6";
paths = (
{
closed = 1;
nodes = (
"380 38 LINE",
"570 -28 OFFCURVE",
"712 -145 OFFCURVE",
"794 -145 CURVE SMOOTH",
"842 -145 OFFCURVE",
"960 -101 OFFCURVE",
"1052 -54 CURVE",
"1069 -86 LINE",
"902 -181 OFFCURVE",
"793 -230 OFFCURVE",
"736 -230 CURVE SMOOTH",
"702 -230 OFFCURVE",
"662 -214 OFFCURVE",
"595 -173 CURVE SMOOTH",
"511 -122 OFFCURVE",
"368 -32 OFFCURVE",
"258 13 CURVE"
);
}
);
width = 719;
}
);
leftMetricsKey = O;
unicode = 0051;
},
{
color = 3;
glyphname = R;
lastChange = "2019-04-24 18:54:26 +0000";
layers = (
{
layerId = "60B24473-AF85-4843-BA5D-A0A691C0B2A6";
paths = (
{
closed = 1;
nodes = (
"403 364 OFFCURVE",
"484 423 OFFCURVE",
"484 523 CURVE SMOOTH",
"484 628 OFFCURVE",
"387 710 OFFCURVE",
"277 710 CURVE SMOOTH",
"193 710 OFFCURVE",
"127 700 OFFCURVE",
"20 700 CURVE",
"20 680 LINE",
"42 671 OFFCURVE",
"70 658 OFFCURVE",
"71 605 CURVE SMOOTH",
"74 442 OFFCURVE",
"73 273 OFFCURVE",
"71 135 CURVE SMOOTH",
"70 52 OFFCURVE",
"42 32 OFFCURVE",
"20 20 CURVE",
"20 0 LINE",
"211 0 LINE",
"211 20 LINE",
"184 32 OFFCURVE",
"163 45 OFFCURVE",
"162 135 CURVE SMOOTH",
"161 198 OFFCURVE",
"161 271 OFFCURVE",
"161 357 CURVE",
"161 354 LINE",
"184 340 OFFCURVE",
"214 334 OFFCURVE",
"248 334 CURVE",
"428 90 LINE SMOOTH",
"447 64 OFFCURVE",
"450 40 OFFCURVE",
"398 20 CURVE",
"398 0 LINE",
"618 0 LINE",
"623 10 LINE",
"529 101 OFFCURVE",
"404 244 OFFCURVE",
"330 344 CURVE"
);
},
{
closed = 1;
nodes = (
"166 657 LINE",
"193 666 OFFCURVE",
"223 670 OFFCURVE",
"261 670 CURVE SMOOTH",
"341 670 OFFCURVE",
"384 604 OFFCURVE",
"384 523 CURVE SMOOTH",
"384 447 OFFCURVE",
"335 382 OFFCURVE",
"261 382 CURVE SMOOTH",
"223 382 OFFCURVE",
"187 393 OFFCURVE",
"166 408 CURVE"
);
}
);
width = 613;
}
);
leftMetricsKey = H;
unicode = 0052;
},
{
color = 3;
glyphname = S;
lastChange = "2019-04-24 18:54:26 +0000";
layers = (
{
layerId = "60B24473-AF85-4843-BA5D-A0A691C0B2A6";
paths = (
{
closed = 1;
nodes = (
"462 547 LINE",
"494 601 OFFCURVE",
"524 647 OFFCURVE",
"552 689 CURVE",
"518 712 LINE",
"474 662 LINE",
"419 695 OFFCURVE",
"369 710 OFFCURVE",
"300 710 CURVE SMOOTH",
"187 710 OFFCURVE",
"88 631 OFFCURVE",
"88 532 CURVE SMOOTH",
"88 430 OFFCURVE",
"155 367 OFFCURVE",
"287 324 CURVE SMOOTH",
"401 287 OFFCURVE",
"459 244 OFFCURVE",
"459 174 CURVE SMOOTH",
"459 90 OFFCURVE",
"402 53 OFFCURVE",
"328 53 CURVE SMOOTH",
"266 53 OFFCURVE",
"171 105 OFFCURVE",
"134 178 CURVE",
"129 178 LINE",
"107 127 OFFCURVE",
"74 72 OFFCURVE",
"30 13 CURVE",
"60 -10 LINE",
"123 52 LINE",
"152 30 OFFCURVE",
"224 -10 OFFCURVE",
"310 -10 CURVE SMOOTH",
"402 -10 OFFCURVE",
"539 63 OFFCURVE",
"539 208 CURVE SMOOTH",
"539 311 OFFCURVE",
"462 374 OFFCURVE",
"351 410 CURVE SMOOTH",
"236 447 OFFCURVE",
"178 480 OFFCURVE",
"178 556 CURVE SMOOTH",
"178 613 OFFCURVE",
"208 651 OFFCURVE",
"276 651 CURVE SMOOTH",
"330 651 OFFCURVE",
"407 610 OFFCURVE",
"452 549 CURVE"
);
}
);
width = 582;
}
);
unicode = 0053;
},
{
color = 3;
glyphname = T;
lastChange = "2019-04-24 18:54:26 +0000";
layers = (
{
layerId = "60B24473-AF85-4843-BA5D-A0A691C0B2A6";
paths = (
{
closed = 1;
nodes = (
"39 531 OFFCURVE",
"0 580 OFFCURVE",
"0 621 CURVE SMOOTH",
"0 672 OFFCURVE",
"64 695 OFFCURVE",
"123 695 CURVE SMOOTH",
"213 695 OFFCURVE",
"412 690 OFFCURVE",
"512 690 CURVE SMOOTH",
"571 690 OFFCURVE",
"622 700 OFFCURVE",
"651 725 CURVE",
"666 713 LINE",
"606 610 LINE",
"442 608 OFFCURVE",
"207 616 OFFCURVE",
"103 616 CURVE SMOOTH",
"65 616 OFFCURVE",
"73 551 OFFCURVE",
"89 537 CURVE",
"84 531 LINE"
);
},
{
closed = 1;
nodes = (
"289 658 OFFCURVE",
"261 651 OFFCURVE",
"239 660 CURVE",
"239 680 LINE",
"432 680 LINE",
"432 659 LINE",
"411 647 OFFCURVE",
"382 658 OFFCURVE",
"381 605 CURVE SMOOTH",
"378 433 OFFCURVE",
"379 272 OFFCURVE",
"381 135 CURVE SMOOTH",
"382 45 OFFCURVE",
"403 48 OFFCURVE",
"460 23 CURVE",
"460 0 LINE",
"239 0 LINE",
"239 20 LINE",
"261 32 OFFCURVE",
"289 42 OFFCURVE",
"290 135 CURVE SMOOTH",
"291 273 OFFCURVE",
"293 442 OFFCURVE",
"290 605 CURVE SMOOTH"
);
}
);
width = 666;
}
);
unicode = 0054;
},
{
color = 3;
glyphname = U;
lastChange = "2019-04-24 18:54:26 +0000";
layers = (
{
layerId = "60B24473-AF85-4843-BA5D-A0A691C0B2A6";
paths = (
{
closed = 1;
nodes = (
"511 133 LINE",
"472 105 OFFCURVE",
"403 60 OFFCURVE",
"313 60 CURVE SMOOTH",
"213 60 OFFCURVE",
"172 112 OFFCURVE",
"165 232 CURVE SMOOTH",
"158 361 OFFCURVE",
"162 490 OFFCURVE",
"167 599 CURVE SMOOTH",
"169 644 OFFCURVE",
"181 658 OFFCURVE",
"208 679 CURVE",
"208 700 LINE",
"20 700 LINE",
"20 680 LINE",
"41 667 OFFCURVE",
"70 639 OFFCURVE",
"70 590 CURVE SMOOTH",
"70 436 OFFCURVE",
"62 338 OFFCURVE",
"62 212 CURVE SMOOTH",
"62 72 OFFCURVE",
"134 -10 OFFCURVE",
"260 -10 CURVE SMOOTH",
"362 -10 OFFCURVE",
"442 43 OFFCURVE",
"511 83 CURVE"
);
},
{
closed = 1;
nodes = (
"513 344 OFFCURVE",
"513 209 OFFCURVE",
"496 0 CURVE",
"683 0 LINE",
"683 23 LINE",
"626 38 OFFCURVE",
"613 65 OFFCURVE",
"609 135 CURVE SMOOTH",
"601 272 OFFCURVE",
"606 433 OFFCURVE",
"608 545 CURVE SMOOTH",
"610 638 OFFCURVE",
"639 667 OFFCURVE",
"660 679 CURVE",
"660 700 LINE",
"457 700 LINE",
"457 680 LINE",
"479 671 OFFCURVE",
"507 658 OFFCURVE",
"508 605 CURVE SMOOTH"
);
}
);
width = 703;
}
);
leftMetricsKey = H;
rightMetricsKey = H;
unicode = 0055;
},
{
color = 3;
glyphname = Udieresis;
lastChange = "2019-04-24 18:54:13 +0000";
layers = (
{
components = (
{
name = U;
}
);
layerId = "60B24473-AF85-4843-BA5D-A0A691C0B2A6";
paths = (
{
closed = 1;
nodes = (
"334 829 LINE",
"332 833 LINE",
"224 833 LINE",
"197 774 LINE",
"197 772 LINE",
"302 772 LINE"
);
},
{
closed = 1;
nodes = (
"514 829 LINE",
"512 833 LINE",
"404 833 LINE",
"377 774 LINE",
"377 772 LINE",
"482 772 LINE"
);
}
);
width = 600;
}
);
unicode = 00DC;
},
{
color = 3;
glyphname = V;
lastChange = "2019-04-24 18:54:26 +0000";
layers = (
{
layerId = "60B24473-AF85-4843-BA5D-A0A691C0B2A6";
paths = (
{
closed = 1;
nodes = (
"215 675 LINE",
"164 645 OFFCURVE",
"147 614 OFFCURVE",
"166 571 CURVE SMOOTH",
"237 406 OFFCURVE",
"324 248 OFFCURVE",
"377 86 CURVE",
"340 73 LINE",
"551 567 LINE SMOOTH",
"575 622 OFFCURVE",
"541 652 OFFCURVE",
"494 675 CURVE",
"494 700 LINE",
"719 700 LINE",
"724 690 LINE",
"586 469 OFFCURVE",
"379 67 OFFCURVE",
"369 -10 CURVE",
"324 -10 LINE",
"10 690 LINE",
"15 700 LINE",
"215 700 LINE"
);
}
);
width = 729;
}
);
unicode = 0056;
},
{
color = 3;
glyphname = W;
lastChange = "2019-04-24 18:54:26 +0000";
layers = (
{
layerId = "60B24473-AF85-4843-BA5D-A0A691C0B2A6";
paths = (
{
closed = 1;
nodes = (
"302 333 OFFCURVE",
"353 466 OFFCURVE",
"389 599 CURVE",
"382 627 OFFCURVE",
"365 670 OFFCURVE",
"339 680 CURVE",
"339 700 LINE",
"551 700 LINE",
"551 680 LINE",
"520 662 OFFCURVE",
"489 635 OFFCURVE",
"502 594 CURVE SMOOTH",
"622 200 LINE",
"662 334 OFFCURVE",
"713 469 OFFCURVE",
"739 585 CURVE SMOOTH",
"748 627 OFFCURVE",
"713 660 OFFCURVE",
"668 680 CURVE",
"668 700 LINE",
"832 700 LINE",
"837 691 LINE",
"768 457 OFFCURVE",
"669 224 OFFCURVE",
"630 -10 CURVE",
"595 -10 LINE",
"543 175 OFFCURVE",
"484 354 OFFCURVE",
"416 528 CURVE",
"368 349 OFFCURVE",
"290 169 OFFCURVE",
"272 -10 CURVE",
"237 -10 LINE",
"169 224 OFFCURVE",
"93 458 OFFCURVE",
"10 690 CURVE",
"15 700 LINE",
"195 700 LINE",
"195 680 LINE",
"158 663 OFFCURVE",
"134 639 OFFCURVE",
"148 594 CURVE SMOOTH",
"269 200 LINE"
);
}
);
width = 842;
}
);
unicode = 0057;
},
{
color = 3;
glyphname = X;
lastChange = "2019-04-24 18:54:26 +0000";
layers = (
{
layerId = "60B24473-AF85-4843-BA5D-A0A691C0B2A6";
paths = (
{
closed = 1;
nodes = (
"383 287 OFFCURVE",
"210 499 OFFCURVE",
"30 690 CURVE",
"35 700 LINE",
"250 700 LINE",
"250 675 LINE",
"209 665 OFFCURVE",
"197 640 OFFCURVE",
"212 622 CURVE SMOOTH",
"459 319 OFFCURVE",
"333 462 OFFCURVE",
"736 10 CURVE",
"731 0 LINE",
"497 0 LINE",
"497 25 LINE",
"543 35 OFFCURVE",
"556 66 OFFCURVE",
"537 90 CURVE SMOOTH"
);
},
{
closed = 1;
nodes = (
"160 70 LINE SMOOTH",
"151 59 OFFCURVE",
"205 33 OFFCURVE",
"235 23 CURVE",
"235 0 LINE",
"5 0 LINE",
"0 10 LINE",
"337 351 LINE",
"367 317 LINE"
);
},
{
closed = 1;
nodes = (
"388 405 LINE",
"555 629 LINE SMOOTH",
"568 646 OFFCURVE",
"520 667 OFFCURVE",
"484 677 CURVE",
"484 700 LINE",
"704 700 LINE",
"709 690 LINE",
"411 376 LINE"
);
}
);
width = 736;
}
);
unicode = 0058;
},
{
color = 3;
glyphname = Y;
lastChange = "2019-04-24 18:54:26 +0000";
layers = (
{
layerId = "60B24473-AF85-4843-BA5D-A0A691C0B2A6";
paths = (
{
closed = 1;
nodes = (
"256 342 LINE",
"5 690 LINE",
"10 700 LINE",
"224 700 LINE",
"224 677 LINE",
"173 667 OFFCURVE",
"154 658 OFFCURVE",
"171 632 CURVE SMOOTH",
"332 388 LINE",
"464 599 LINE SMOOTH",
"491 643 OFFCURVE",
"455 663 OFFCURVE",
"410 677 CURVE",
"410 700 LINE",
"614 700 LINE",
"619 690 LINE",
"346 342 LINE"
);
},
{
closed = 1;
nodes = (
"347 365 LINE",
"345 303 OFFCURVE",
"341 272 OFFCURVE",
"347 135 CURVE SMOOTH",
"351 45 OFFCURVE",
"369 38 OFFCURVE",
"426 23 CURVE",
"426 0 LINE",
"204 0 LINE",
"204 20 LINE",
"226 32 OFFCURVE",
"254 42 OFFCURVE",
"255 135 CURVE SMOOTH",
"256 273 OFFCURVE",
"258 292 OFFCURVE",
"255 365 CURVE"
);
}
);
width = 624;
}
);
unicode = 0059;
},
{
color = 3;
glyphname = Z;
lastChange = "2019-04-24 18:54:26 +0000";
layers = (
{
layerId = "60B24473-AF85-4843-BA5D-A0A691C0B2A6";
paths = (
{
closed = 1;
nodes = (
"148 687 OFFCURVE",
"321 677 OFFCURVE",
"432 677 CURVE SMOOTH",
"522 677 OFFCURVE",
"588 687 OFFCURVE",
"634 710 CURVE",
"651 680 LINE",
"475 569 OFFCURVE",
"281 235 OFFCURVE",
"185 109 CURVE",
"324 109 OFFCURVE",
"480 82 OFFCURVE",
"530 82 CURVE SMOOTH",
"599 82 OFFCURVE",
"617 116 OFFCURVE",
"636 156 CURVE",
"668 147 LINE",
"656 74 OFFCURVE",
"603 -10 OFFCURVE",
"525 -10 CURVE SMOOTH",
"451 -10 OFFCURVE",
"262 33 OFFCURVE",
"160 33 CURVE SMOOTH",
"104 33 OFFCURVE",
"71 19 OFFCURVE",
"24 -10 CURVE",
"0 24 LINE",
"178 137 OFFCURVE",
"338 471 OFFCURVE",
"480 606 CURVE",
"381 568 OFFCURVE",
"238 596 OFFCURVE",
"135 596 CURVE SMOOTH",
"94 596 OFFCURVE",
"78 579 OFFCURVE",
"50 536 CURVE",
"17 549 LINE",
"34 599 OFFCURVE",
"54 652 OFFCURVE",
"88 700 CURVE"
);
}
);
width = 678;
}
);
unicode = 005A;
},
{
color = 4;
glyphname = a;
lastChange = "2019-04-24 18:54:26 +0000";
layers = (
{
guideLines = (
{
angle = 45.709;
position = "{230, 75}";
},
{
angle = 30;
position = "{157, 230}";
}
);
layerId = "60B24473-AF85-4843-BA5D-A0A691C0B2A6";
paths = (
{
closed = 1;
nodes = (
"52 327 LINE",
"83 351 OFFCURVE",
"187 410 OFFCURVE",
"229 410 CURVE SMOOTH",
"279 410 OFFCURVE",
"312 370 OFFCURVE",
"312 310 CURVE SMOOTH",
"312 111 LINE SMOOTH",
"312 83 OFFCURVE",
"337 75 OFFCURVE",
"359 75 CURVE SMOOTH",
"370 75 OFFCURVE",
"380 78 OFFCURVE",
"386 82 CURVE",
"391 72 LINE",
"374 48 OFFCURVE",
"323 -10 OFFCURVE",
"303 -10 CURVE SMOOTH",
"263 -10 OFFCURVE",
"236 46 OFFCURVE",
"230 75 CURVE",
"198 48 OFFCURVE",
"151 -10 OFFCURVE",
"113 -10 CURVE SMOOTH",
"53 -10 OFFCURVE",
"25 52 OFFCURVE",
"25 112 CURVE SMOOTH",
"25 143 OFFCURVE",
"47 167 OFFCURVE",
"157 230 CURVE SMOOTH",
"232 273 LINE",
"232 278 LINE SMOOTH",
"232 318 OFFCURVE",
"209 350 OFFCURVE",
"169 350 CURVE SMOOTH",
"138 350 OFFCURVE",
"106 335 OFFCURVE",
"62 307 CURVE"
);
},
{
closed = 1;
nodes = (
"211 233 OFFCURVE",
"176 216 OFFCURVE",
"160 208 CURVE SMOOTH",
"130 194 OFFCURVE",
"105 166 OFFCURVE",
"105 141 CURVE SMOOTH",
"105 101 OFFCURVE",
"123 75 OFFCURVE",
"163 75 CURVE SMOOTH",
"193 75 OFFCURVE",
"232 108 OFFCURVE",
"232 168 CURVE SMOOTH",
"232 233 LINE"
);
}
);
width = 396;
}
);
unicode = 0061;
},
{
color = 4;
glyphname = b;
lastChange = "2019-04-24 18:54:26 +0000";
layers = (
{
guideLines = (
{
angle = 35;
position = "{115, 325}";
},
{
angle = 35;
position = "{186, -10}";
}
);
layerId = "60B24473-AF85-4843-BA5D-A0A691C0B2A6";
paths = (
{
closed = 1;
nodes = (
"121 710 LINE",
"10 634 LINE",
"10 629 LINE",
"29 586 OFFCURVE",
"38 480 OFFCURVE",
"38 410 CURVE SMOOTH",
"38 95 LINE",
"71 39 OFFCURVE",
"146 -10 OFFCURVE",
"184 -10 CURVE SMOOTH",
"194 -10 OFFCURVE",
"319 80 OFFCURVE",
"340 99 CURVE SMOOTH",
"369 125 OFFCURVE",
"391 168 OFFCURVE",
"391 225 CURVE SMOOTH",
"391 315 OFFCURVE",
"331 400 OFFCURVE",
"236 410 CURVE",
"115 325 LINE",
"129 703 LINE"
);
},
{
closed = 1;
nodes = (
"125 302 OFFCURVE",
"154 325 OFFCURVE",
"184 325 CURVE SMOOTH",
"259 325 OFFCURVE",
"311 260 OFFCURVE",
"311 185 CURVE SMOOTH",
"311 110 OFFCURVE",
"241 60 OFFCURVE",
"231 60 CURVE SMOOTH",
"183 60 OFFCURVE",
"115 118 OFFCURVE",
"115 170 CURVE SMOOTH",
"115 285 LINE"
);
}
);
width = 411;
}
);
rightMetricsKey = o;
unicode = 0062;
},
{
color = 4;
glyphname = c;
lastChange = "2019-04-24 18:54:26 +0000";
layers = (
{
guideLines = (
{
angle = 35;
position = "{39, 325}";
},
{
angle = 35;
position = "{208, 290}";
},
{
angle = 30;
position = "{116, -11}";
}
);
layerId = "60B24473-AF85-4843-BA5D-A0A691C0B2A6";
paths = (
{
closed = 1;
nodes = (
"280 341 LINE",
"212 295 LINE",
"181 308 OFFCURVE",
"134 341 OFFCURVE",
"116 350 CURVE",
"106 337 OFFCURVE",
"100 330 OFFCURVE",
"100 220 CURVE SMOOTH",
"100 182 LINE SMOOTH",
"100 121 OFFCURVE",
"128 75 OFFCURVE",
"168 75 CURVE SMOOTH",
"206 75 OFFCURVE",
"231 89 OFFCURVE",
"265 109 CURVE",
"277 83 LINE",
"242 55 OFFCURVE",
"163 6 OFFCURVE",
"116 -10 CURVE",
"65 0 OFFCURVE",
"20 50 OFFCURVE",
"20 124 CURVE SMOOTH",
"20 160 OFFCURVE",
"26 287 OFFCURVE",
"39 325 CURVE",
"69 357 OFFCURVE",
"145 401 OFFCURVE",
"179 410 CURVE",
"280 346 LINE"
);
}
);
width = 285;
}
);
unicode = 0063;
},
{
color = 4;
glyphname = c_h;
lastChange = "2019-04-24 18:54:26 +0000";
layers = (
{
background = {
paths = (
{
closed = 1;
nodes = (
"294 341 LINE",
"226 295 LINE",
"195 308 OFFCURVE",
"148 341 OFFCURVE",
"130 350 CURVE",
"120 337 OFFCURVE",
"114 330 OFFCURVE",
"114 220 CURVE SMOOTH",
"114 182 LINE SMOOTH",
"114 121 OFFCURVE",
"142 75 OFFCURVE",
"182 75 CURVE SMOOTH",
"220 75 OFFCURVE",
"245 89 OFFCURVE",
"279 109 CURVE",
"291 83 LINE",
"130 -10 LINE",
"79 0 OFFCURVE",
"34 50 OFFCURVE",
"34 124 CURVE SMOOTH",
"34 160 OFFCURVE",
"40 287 OFFCURVE",
"53 325 CURVE",
"83 357 OFFCURVE",
"159 401 OFFCURVE",
"193 410 CURVE",
"294 346 LINE"
);
}
);
};
guideLines = (
{
angle = 40;
position = "{294, 328}";
},
{
angle = 40;
position = "{168, 401}";
}
);
layerId = "60B24473-AF85-4843-BA5D-A0A691C0B2A6";
paths = (
{
closed = 1;
nodes = (
"252 355 OFFCURVE",
"217 373 OFFCURVE",
"183 410 CURVE",
"179 410 LINE",
"39 293 LINE",
"26 255 OFFCURVE",
"31 160 OFFCURVE",
"31 124 CURVE SMOOTH",
"31 50 OFFCURVE",
"76 0 OFFCURVE",
"127 -10 CURVE",
"308 93 LINE",
"296 119 LINE",
"262 99 OFFCURVE",
"217 75 OFFCURVE",
"179 75 CURVE SMOOTH",
"139 75 OFFCURVE",
"101 141 OFFCURVE",
"101 252 CURVE SMOOTH",
"101 295 OFFCURVE",
"104 312 OFFCURVE",
"117 325 CURVE",
"142 299 OFFCURVE",
"185 264 OFFCURVE",
"208 256 CURVE",
"296 330 LINE",
"297 341 LINE"
);
},
{
closed = 1;
nodes = (
"373 272 LINE",
"393 295 OFFCURVE",
"433 325 OFFCURVE",
"472 325 CURVE SMOOTH",
"552 325 OFFCURVE",
"600 232 OFFCURVE",
"600 152 CURVE SMOOTH",
"600 89 OFFCURVE",
"578 39 OFFCURVE",
"563 28 CURVE SMOOTH",
"548 17 OFFCURVE",
"478 15 OFFCURVE",
"457 15 CURVE",
"430 -60 LINE",
"434 -65 LINE",
"507 -42 OFFCURVE",
"586 8 OFFCURVE",
"612 37 CURVE SMOOTH",
"637 64 OFFCURVE",
"665 141 OFFCURVE",
"665 202 CURVE SMOOTH",
"665 317 OFFCURVE",
"594 390 OFFCURVE",
"503 410 CURVE",
"373 307 LINE"
);
},
{
closed = 1;
nodes = (
"374 733 LINE",
"358 740 LINE",
"315 707 OFFCURVE",
"313 700 OFFCURVE",
"257 700 CURVE SMOOTH",
"176 700 LINE",
"101 618 LINE",
"110 609 LINE",
"155 623 OFFCURVE",
"213 629 OFFCURVE",
"293 630 CURVE",
"293 60 LINE SMOOTH",
"293 50 OFFCURVE",
"283 30 OFFCURVE",
"263 15 CURVE",
"263 0 LINE",
"409 0 LINE",
"409 15 LINE",
"389 27 OFFCURVE",
"374 50 OFFCURVE",
"374 60 CURVE SMOOTH"
);
}
);
width = 685;
}
);
rightMetricsKey = h;
},
{
color = 4;
glyphname = c_k;
lastChange = "2019-04-24 18:54:26 +0000";
layers = (
{
components = (
{
name = c;
transform = "{1, 0, 0, 1, 10, 0}";
}
);
layerId = "60B24473-AF85-4843-BA5D-A0A691C0B2A6";
paths = (
{
closed = 1;
nodes = (
"354 209 LINE",
"445 249 OFFCURVE",
"469 286 OFFCURVE",
"469 305 CURVE SMOOTH",
"469 325 OFFCURVE",
"448 334 OFFCURVE",
"428 334 CURVE SMOOTH",
"416 334 OFFCURVE",
"384 331 OFFCURVE",
"354 320 CURVE"
);
},
{
closed = 1;
nodes = (
"353 331 LINE",
"446 410 LINE",
"501 410 OFFCURVE",
"575 353 OFFCURVE",
"528 308 CURVE SMOOTH",
"443 227 LINE",
"470 212 OFFCURVE",
"539 60 OFFCURVE",
"598 103 CURVE",
"609 90 LINE",
"528 -10 LINE",
"481 -10 OFFCURVE",
"414 184 OFFCURVE",
"374 184 CURVE SMOOTH",
"353 184 LINE"
);
},
{
closed = 1;
nodes = (
"354 50 OFFCURVE",
"369 27 OFFCURVE",
"389 15 CURVE",
"389 0 LINE",
"243 0 LINE",
"243 15 LINE",
"263 30 OFFCURVE",
"273 50 OFFCURVE",
"273 60 CURVE SMOOTH",
"273 630 LINE",
"193 629 OFFCURVE",
"135 623 OFFCURVE",
"90 609 CURVE",
"81 618 LINE",
"156 700 LINE",
"254 700 LINE SMOOTH",
"286 700 OFFCURVE",
"309 716 OFFCURVE",
"338 740 CURVE",
"354 733 LINE",
"354 60 LINE SMOOTH"
);
}
);
width = 619;
}
);
rightMetricsKey = k;
},
{
color = 4;
glyphname = d;
lastChange = "2019-04-24 18:54:26 +0000";
layers = (
{
guideLines = (
{
angle = 35;
position = "{376, 708}";
},
{
angle = 204.0687;
position = "{298, 410}";
}
);
layerId = "60B24473-AF85-4843-BA5D-A0A691C0B2A6";
paths = (
{
closed = 1;
nodes = (
"388 700 LINE",
"381 642 OFFCURVE",
"378 503 OFFCURVE",
"378 440 CURVE SMOOTH",
"378 111 LINE",
"296 75 LINE",
"159 -10 LINE",
"65 13 OFFCURVE",
"20 83 OFFCURVE",
"20 163 CURVE SMOOTH",
"20 228 OFFCURVE",
"57 303 OFFCURVE",
"138 339 CURVE SMOOTH",
"298 410 LINE",
"298 587 LINE",
"232 587 LINE",
"232 607 LINE",
"376 708 LINE"
);
},
{
closed = 1;
nodes = (
"302 310 OFFCURVE",
"238 335 OFFCURVE",
"223 335 CURVE SMOOTH",
"192 335 OFFCURVE",
"100 306 OFFCURVE",
"100 202 CURVE SMOOTH",
"100 132 OFFCURVE",
"139 75 OFFCURVE",
"209 75 CURVE SMOOTH",
"254 75 OFFCURVE",
"302 116 OFFCURVE",
"302 153 CURVE SMOOTH",
"302 300 LINE SMOOTH"
);
},
{
closed = 1;
nodes = (
"378 111 LINE",
"378 83 OFFCURVE",
"403 75 OFFCURVE",
"425 75 CURVE SMOOTH",
"436 75 OFFCURVE",
"446 81 OFFCURVE",
"452 85 CURVE",
"457 75 LINE",
"440 51 OFFCURVE",
"389 -10 OFFCURVE",
"369 -10 CURVE SMOOTH",
"329 -10 OFFCURVE",
"302 46 OFFCURVE",
"296 75 CURVE"
);
}
);
width = 462;
}
);
leftMetricsKey = o;
rightMetricsKey = a;
unicode = 0064;
},
{
color = 4;
glyphname = e;
lastChange = "2019-04-24 18:54:26 +0000";
layers = (
{
guideLines = (
{
angle = -68.6107;
position = "{119, 140}";
},
{
angle = 40;
position = "{115, 173}";
}
);
layerId = "60B24473-AF85-4843-BA5D-A0A691C0B2A6";
paths = (
{
closed = 1;
nodes = (
"289 82 LINE",
"274 77 OFFCURVE",
"253 75 OFFCURVE",
"233 75 CURVE SMOOTH",
"198 75 OFFCURVE",
"150 94 OFFCURVE",
"127 146 CURVE",
"250 249 LINE SMOOTH",
"272 267 OFFCURVE",
"289 295 OFFCURVE",
"289 325 CURVE SMOOTH",
"289 377 OFFCURVE",
"226 410 OFFCURVE",
"196 410 CURVE",
"43 325 LINE",
"2 159 OFFCURVE",
"63 -10 OFFCURVE",
"174 -10 CURVE SMOOTH",
"204 -10 OFFCURVE",
"262 35 OFFCURVE",
"294 67 CURVE"
);
},
{
closed = 1;
nodes = (
"102 227 OFFCURVE",
"94 301 OFFCURVE",
"126 350 CURVE",
"166 350 OFFCURVE",
"209 322 OFFCURVE",
"209 282 CURVE SMOOTH",
"209 245 OFFCURVE",
"129 183 OFFCURVE",
"115 173 CURVE"
);
}
);
width = 309;
}
);
unicode = 0065;
},
{
color = 4;
glyphname = f;
lastChange = "2019-04-24 18:54:26 +0000";
layers = (
{
guideLines = (
{
angle = 35;
position = "{75, 614}";
},
{
angle = 35;
position = "{264, 596}";
}
);
hints = (
{
origin = "{0, 19}";
scale = "{-1, 1}";
type = Corner;
name = "_corner-bdc-court";
},
{
origin = "{0, 18}";
scale = "{1, -1}";
type = Corner;
name = "_corner-bdc-long";
options = 1;
}
);
layerId = "60B24473-AF85-4843-BA5D-A0A691C0B2A6";
paths = (
{
closed = 1;
nodes = (
"30 330 LINE",
"75 383 LINE",
"75 614 LINE SMOOTH",
"75 624 OFFCURVE",
"203 710 OFFCURVE",
"216 710 CURVE SMOOTH",
"253 710 OFFCURVE",
"307 686 OFFCURVE",
"345 656 CURVE",
"345 653 LINE",
"264 596 LINE",
"236 623 OFFCURVE",
"185 650 OFFCURVE",
"152 650 CURVE",
"152 390 LINE",
"262 390 LINE",
"262 325 LINE",
"154 325 LINE",
"154 0 LINE",
"74 0 LINE",
"74 325 LINE",
"32 325 LINE"
);
}
);
width = 275;
}
);
unicode = 0066;
},
{
color = 4;
glyphname = f_f;
lastChange = "2019-04-24 18:54:26 +0000";
layers = (
{
hints = (
{
origin = "{0, 19}";
scale = "{-1, 1}";
type = Corner;
name = "_corner-bdc-court";
},
{
origin = "{0, 18}";
scale = "{1, -1}";
type = Corner;
name = "_corner-bdc-long";
options = 1;
},
{
origin = "{1, 19}";
scale = "{-1, 1}";
type = Corner;
name = "_corner-bdc-court";
},
{
origin = "{1, 18}";
scale = "{1, -1}";
type = Corner;
name = "_corner-bdc-long";
options = 1;
}
);
layerId = "60B24473-AF85-4843-BA5D-A0A691C0B2A6";
paths = (
{
closed = 1;
nodes = (
"30 306 LINE",
"75 359 LINE",
"75 644 LINE SMOOTH",
"75 654 OFFCURVE",
"209 710 OFFCURVE",
"222 710 CURVE SMOOTH",
"259 710 OFFCURVE",
"339 689 OFFCURVE",
"377 659 CURVE",
"377 656 LINE",
"304 606 LINE",
"276 633 OFFCURVE",
"185 661 OFFCURVE",
"152 661 CURVE",
"152 366 LINE",
"362 366 LINE",
"362 301 LINE",
"154 301 LINE",
"154 0 LINE",
"74 0 LINE",
"74 301 LINE",
"32 301 LINE"
);
},
{
closed = 1;
nodes = (
"248 306 LINE",
"293 359 LINE",
"293 614 LINE SMOOTH",
"293 624 OFFCURVE",
"421 710 OFFCURVE",
"434 710 CURVE SMOOTH",
"471 710 OFFCURVE",
"525 686 OFFCURVE",
"563 656 CURVE",
"563 653 LINE",
"482 596 LINE",
"454 623 OFFCURVE",
"403 650 OFFCURVE",
"370 650 CURVE",
"370 366 LINE",
"500 366 LINE",
"500 301 LINE",
"372 301 LINE",
"372 0 LINE",
"292 0 LINE",
"292 301 LINE",
"250 301 LINE"
);
}
);
width = 493;
}
);
leftMetricsKey = f;
rightMetricsKey = f;
},
{
color = 4;
glyphname = f_f_l;
lastChange = "2019-04-24 18:54:26 +0000";
layers = (
{
hints = (
{
origin = "{0, 1}";
scale = "{-1, -1}";
type = Corner;
name = "_corner-bdc-court";
options = 1;
},
{
origin = "{0, 2}";
type = Corner;
name = "_corner-bdc-long";
},
{
origin = "{1, 1}";
scale = "{-1, -1}";
type = Corner;
name = "_corner-bdc-court";
options = 1;
}
);
layerId = "60B24473-AF85-4843-BA5D-A0A691C0B2A6";
paths = (
{
closed = 1;
nodes = (
"74 301 LINE",
"74 0 LINE",
"154 0 LINE",
"154 301 LINE",
"332 301 LINE",
"332 366 LINE",
"152 366 LINE",
"152 650 LINE",
"215 650 OFFCURVE",
"271 626 OFFCURVE",
"290 531 CURVE",
"345 623 LINE",
"345 626 LINE",
"320 676 OFFCURVE",
"283 710 OFFCURVE",
"216 710 CURVE SMOOTH",
"203 710 OFFCURVE",
"75 624 OFFCURVE",
"75 614 CURVE SMOOTH",
"75 359 LINE",
"30 306 LINE",
"32 301 LINE"
);
},
{
closed = 1;
nodes = (
"289 301 LINE",
"289 0 LINE",
"369 0 LINE",
"424 0 LINE",
"424 10 LINE",
"404 22 OFFCURVE",
"369 50 OFFCURVE",
"369 60 CURVE",
"369 301 LINE",
"457 301 LINE",
"457 366 LINE",
"367 366 LINE",
"367 650 LINE",
"400 650 OFFCURVE",
"462 621 OFFCURVE",
"490 594 CURVE",
"560 653 LINE",
"560 656 LINE",
"522 686 OFFCURVE",
"468 710 OFFCURVE",
"431 710 CURVE SMOOTH",
"418 710 OFFCURVE",
"290 624 OFFCURVE",
"290 614 CURVE SMOOTH",
"290 359 LINE",
"245 306 LINE",
"247 301 LINE"
);
},
{
closed = 1;
nodes = (
"563 710 LINE",
"487 653 LINE",
"487 440 LINE",
"487 94 LINE SMOOTH",
"487 44 OFFCURVE",
"502 4 OFFCURVE",
"557 -10 CURVE",
"657 60 LINE",
"657 75 LINE",
"617 75 OFFCURVE",
"570 80 OFFCURVE",
"570 130 CURVE SMOOTH",
"570 702 LINE"
);
}
);
width = 662;
}
);
leftMetricsKey = f;
rightMetricsKey = l;
},
{
color = 4;
glyphname = f_i;
lastChange = "2019-04-24 18:54:26 +0000";
layers = (
{
guideLines = (
{
angle = 35;
position = "{348, 410}";
},
{
angle = 50;
position = "{368, -10}";
}
);
hints = (
{
origin = "{1, 19}";
scale = "{-1, 1}";
type = Corner;
name = "_corner-bdc-court";
},
{
origin = "{1, 18}";
scale = "{1, -1}";
type = Corner;
name = "_corner-bdc-long";
options = 1;
}
);
layerId = "60B24473-AF85-4843-BA5D-A0A691C0B2A6";
paths = (
{
closed = 1;
nodes = (
"246 338 LINE",
"348 410 LINE",
"365 410 LINE",
"365 115 LINE SMOOTH",
"365 98 OFFCURVE",
"412 75 OFFCURVE",
"428 75 CURVE",
"428 60 LINE",
"368 -10 LINE",
"337 -10 OFFCURVE",
"285 46 OFFCURVE",
"285 64 CURVE SMOOTH",
"285 301 LINE"
);
},
{
closed = 1;
nodes = (
"30 306 LINE",
"75 359 LINE",
"75 614 LINE SMOOTH",
"75 624 OFFCURVE",
"203 710 OFFCURVE",
"216 710 CURVE SMOOTH",
"253 710 OFFCURVE",
"327 676 OFFCURVE",
"365 646 CURVE",
"365 643 LINE",
"284 586 LINE",
"256 613 OFFCURVE",
"185 650 OFFCURVE",
"152 650 CURVE",
"152 366 LINE",
"302 366 LINE",
"302 301 LINE",
"154 301 LINE",
"154 0 LINE",
"74 0 LINE",
"74 301 LINE",
"32 301 LINE"
);
}
);
width = 433;
}
);
leftMetricsKey = f;
rightMetricsKey = i;
},
{
color = 4;
glyphname = f_l;
lastChange = "2019-04-24 18:54:26 +0000";
layers = (
{
layerId = "60B24473-AF85-4843-BA5D-A0A691C0B2A6";
paths = (
{
closed = 1;
nodes = (
"259 301 LINE",
"161 301 LINE",
"161 38 LINE",
"161 26 OFFCURVE",
"167 12 OFFCURVE",
"178 12 CURVE",
"178 0 LINE",
"64 0 LINE",
"64 12 LINE",
"73 12 OFFCURVE",
"81 25 OFFCURVE",
"81 38 CURVE",
"81 301 LINE",
"30 301 LINE",
"30 308 LINE",
"82 359 LINE",
"83 634 LINE",
"83 634 OFFCURVE",
"185 703 OFFCURVE",
"238 703 CURVE SMOOTH",
"275 703 OFFCURVE",
"309 680 OFFCURVE",
"347 650 CURVE",
"277 592 LINE",
"249 619 OFFCURVE",
"202 636 OFFCURVE",
"159 634 CURVE",
"159 365 LINE",
"259 365 LINE"
);
},
{
closed = 1;
nodes = (
"378 623 OFFCURVE",
"372 260 OFFCURVE",
"374 182 CURVE SMOOTH",
"376 115 OFFCURVE",
"394 69 OFFCURVE",
"451 69 CURVE",
"451 49 LINE",
"424 28 OFFCURVE",
"397 9 OFFCURVE",
"366 -8 CURVE",
"317 6 OFFCURVE",
"293 45 OFFCURVE",
"294 85 CURVE SMOOTH",
"295 112 OFFCURVE",
"294 392 OFFCURVE",
"294 485 CURVE SMOOTH",
"294 534 OFFCURVE",
"298 571 OFFCURVE",
"277 592 CURVE",
"255 648 LINE",
"305 665 OFFCURVE",
"340 683 OFFCURVE",
"370 704 CURVE",
"385 690 LINE"
);
}
);
width = 456;
}
);
leftMetricsKey = f;
rightMetricsKey = l;
},
{
color = 4;
glyphname = g;
lastChange = "2019-04-24 18:54:26 +0000";
layers = (
{
guideLines = (
{
angle = 40;
position = "{174, 110}";
}
);
layerId = "60B24473-AF85-4843-BA5D-A0A691C0B2A6";
paths = (
{
closed = 1;
nodes = (
"225 410 OFFCURVE",
"115 348 OFFCURVE",
"107 339 CURVE SMOOTH",
"74 302 OFFCURVE",
"37 250 OFFCURVE",
"37 187 CURVE SMOOTH",
"37 142 OFFCURVE",
"58 95 OFFCURVE",
"103 62 CURVE",
"10 -15 LINE",
"38 -108 OFFCURVE",
"149 -185 OFFCURVE",
"225 -185 CURVE SMOOTH",
"287 -185 OFFCURVE",
"384 -100 OFFCURVE",
"384 -39 CURVE SMOOTH",
"384 47 OFFCURVE",
"312 142 OFFCURVE",
"312 210 CURVE SMOOTH",
"312 257 OFFCURVE",
"357 300 OFFCURVE",
"362 299 CURVE SMOOTH",
"427 281 LINE",
"434 290 LINE",
"434 362 LINE",
"364 383 OFFCURVE",
"285 410 OFFCURVE",
"244 410 CURVE SMOOTH"
);
},
{
closed = 1;
nodes = (
"218 165 OFFCURVE",
"210 152 OFFCURVE",
"187 152 CURVE SMOOTH",
"142 152 OFFCURVE",
"107 187 OFFCURVE",
"107 246 CURVE SMOOTH",
"107 304 OFFCURVE",
"141 339 OFFCURVE",
"161 343 CURVE SMOOTH",
"171 345 OFFCURVE",
"274 320 OFFCURVE",
"329 307 CURVE",
"285 267 OFFCURVE",
"246 214 OFFCURVE",
"238 179 CURVE"
);
},
{
closed = 1;
nodes = (
"198 -135 OFFCURVE",
"110 -63 OFFCURVE",
"110 13 CURVE SMOOTH",
"110 53 OFFCURVE",
"138 70 OFFCURVE",
"176 104 CURVE SMOOTH",
"232 153 LINE",
"232 85 OFFCURVE",
"304 5 OFFCURVE",
"304 -76 CURVE SMOOTH",
"304 -106 OFFCURVE",
"291 -135 OFFCURVE",
"275 -135 CURVE SMOOTH"
);
}
);
width = 444;
}
);
unicode = 0067;
},
{
color = 4;
glyphname = h;
lastChange = "2019-04-24 18:54:26 +0000";
layers = (
{
guideLines = (
{
angle = 35;
position = "{125, 710}";
},
{
angle = 40;
position = "{131, 301}";
}
);
hints = (
{
origin = "{0, 3}";
type = Corner;
name = "_corner-bdc-court";
options = 1;
},
{
origin = "{0, 4}";
type = Corner;
name = "_corner-bdc-long";
}
);
layerId = "60B24473-AF85-4843-BA5D-A0A691C0B2A6";
paths = (
{
closed = 1;
nodes = (
"49 585 OFFCURVE",
"50 504 OFFCURVE",
"50 440 CURVE SMOOTH",
"50 0 LINE",
"130 0 LINE",
"130 272 LINE",
"150 295 OFFCURVE",
"190 325 OFFCURVE",
"229 325 CURVE SMOOTH",
"309 325 OFFCURVE",
"357 232 OFFCURVE",
"357 152 CURVE SMOOTH",
"357 89 OFFCURVE",
"335 39 OFFCURVE",
"320 28 CURVE SMOOTH",
"305 17 OFFCURVE",
"235 15 OFFCURVE",
"214 15 CURVE",
"187 -60 LINE",
"191 -65 LINE",
"264 -42 OFFCURVE",
"343 8 OFFCURVE",
"369 37 CURVE SMOOTH",
"394 64 OFFCURVE",
"422 141 OFFCURVE",
"422 202 CURVE SMOOTH",
"422 337 OFFCURVE",
"351 410 OFFCURVE",
"260 410 CURVE",
"131 301 LINE",
"131 705 LINE",
"125 710 LINE",
"31 644 LINE",
"31 639 LINE"
);
}
);
width = 442;
}
);
rightMetricsKey = o;
unicode = 0068;
},
{
color = 4;
glyphname = i;
lastChange = "2019-04-24 18:54:26 +0000";
layers = (
{
guideLines = (
{
angle = 35;
position = "{124, -10}";
},
{
angle = 45.3603;
position = "{15, 330}";
}
);
layerId = "60B24473-AF85-4843-BA5D-A0A691C0B2A6";
paths = (
{
closed = 1;
nodes = (
"15 330 LINE",
"94 410 LINE",
"120 410 OFFCURVE",
"151 386 OFFCURVE",
"151 350 CURVE SMOOTH",
"151 115 LINE SMOOTH",
"151 78 OFFCURVE",
"179 75 OFFCURVE",
"213 75 CURVE SMOOTH",
"224 75 LINE",
"224 60 LINE",
"124 -10 LINE",
"97 -3 OFFCURVE",
"71 27 OFFCURVE",
"71 65 CURVE SMOOTH",
"71 290 LINE SMOOTH",
"71 317 OFFCURVE",
"54 325 OFFCURVE",
"15 325 CURVE"
);
},
{
closed = 1;
nodes = (
"174 679 LINE",
"170 685 LINE",
"102 666 LINE",
"86 544 LINE",
"112 544 LINE"
);
}
);
width = 229;
}
);
unicode = 0069;
},
{
color = 4;
glyphname = j;
lastChange = "2019-04-24 18:54:26 +0000";
layers = (
{
layerId = "60B24473-AF85-4843-BA5D-A0A691C0B2A6";
paths = (
{
closed = 1;
nodes = (
"168 403 LINE",
"168 -5 LINE SMOOTH",
"168 -138 OFFCURVE",
"115 -211 OFFCURVE",
"17 -257 CURVE",
"0 -229 LINE",
"29 -215 OFFCURVE",
"51 -194 OFFCURVE",
"69 -159 CURVE SMOOTH",
"89 -120 OFFCURVE",
"88 -33 OFFCURVE",
"88 21 CURVE SMOOTH",
"88 239 LINE SMOOTH",
"88 289 OFFCURVE",
"69 301 OFFCURVE",
"19 301 CURVE",
"19 316 LINE",
"158 410 LINE"
);
},
{
closed = 1;
nodes = (
"191 680 LINE",
"186 684 LINE",
"117 667 LINE",
"101 555 LINE",
"157 565 LINE"
);
}
);
width = 211;
}
);
rightMetricsKey = n;
unicode = 006A;
},
{
color = 4;
glyphname = k;
lastChange = "2019-04-24 18:54:26 +0000";
layers = (
{
background = {
components = (
{
name = l;
transform = "{1, 0, 0, 1, 11, 0}";
}
);
};
guideLines = (
{
angle = 35;
position = "{146, 325}";
},
{
angle = 35;
position = "{284, -71}";
}
);
hints = (
{
origin = "{1, 17}";
type = Corner;
name = "_corner-bdc-long";
},
{
origin = "{1, 16}";
scale = "{1, -1}";
type = Corner;
name = "_corner-bdc-long";
options = 1;
}
);
layerId = "60B24473-AF85-4843-BA5D-A0A691C0B2A6";
paths = (
{
closed = 1;
nodes = (
"147 207 LINE",
"208 232 OFFCURVE",
"236 256 OFFCURVE",
"236 275 CURVE SMOOTH",
"236 295 OFFCURVE",
"219 325 OFFCURVE",
"205 325 CURVE SMOOTH",
"193 325 OFFCURVE",
"167 320 OFFCURVE",
"147 306 CURVE"
);
},
{
closed = 1;
nodes = (
"268 410 LINE",
"292 410 OFFCURVE",
"323 332 OFFCURVE",
"321 296 CURVE",
"238 231 LINE",
"284 198 OFFCURVE",
"303 17 OFFCURVE",
"357 50 CURVE",
"362 40 LINE",
"347 18 OFFCURVE",
"301 -10 OFFCURVE",
"280 -10 CURVE SMOOTH",
"226 -10 OFFCURVE",
"217 190 OFFCURVE",
"157 190 CURVE SMOOTH",
"145 190 LINE",
"145 0 LINE",
"65 0 LINE",
"65 430 LINE SMOOTH",
"65 505 OFFCURVE",
"63 593 OFFCURVE",
"23 623 CURVE",
"21 638 LINE",
"139 710 LINE",
"146 702 LINE",
"146 478 LINE",
"146 325 LINE"
);
}
);
width = 372;
}
);
unicode = 006B;
},
{
color = 4;
glyphname = l;
lastChange = "2019-04-24 18:54:26 +0000";
layers = (
{
guideLines = (
{
angle = 35;
position = "{122, -10}";
},
{
angle = 35;
position = "{128, 710}";
}
);
layerId = "60B24473-AF85-4843-BA5D-A0A691C0B2A6";
paths = (
{
closed = 1;
nodes = (
"128 710 LINE",
"10 638 LINE",
"12 623 LINE",
"52 593 OFFCURVE",
"56 480 OFFCURVE",
"56 440 CURVE SMOOTH",
"52 94 LINE SMOOTH",
"51 44 OFFCURVE",
"67 4 OFFCURVE",
"122 -10 CURVE",
"222 60 LINE",
"222 75 LINE",
"182 75 OFFCURVE",
"135 80 OFFCURVE",
"135 130 CURVE SMOOTH",
"135 702 LINE"
);
}
);
width = 227;
}
);
unicode = 006C;
},
{
color = 4;
glyphname = m;
lastChange = "2019-04-24 18:54:26 +0000";
layers = (
{
guideLines = (
{
angle = 35;
position = "{156, 322}";
},
{
angle = 35;
position = "{349, 322}";
},
{
angle = 35;
position = "{10, 340}";
}
);
hints = (
{
origin = "{0, 1}";
scale = "{-1, 1}";
type = Corner;
name = "_corner-bdc-court";
},
{
origin = "{1, 1}";
scale = "{-1, 1}";
type = Corner;
name = "_corner-bdc-court";
},
{
origin = "{2, 1}";
scale = "{-1, 1}";
type = Corner;
name = "_corner-bdc-court";
},
{
origin = "{0, 0}";
scale = "{1, -1}";
type = Corner;
name = "_corner-bdc-long";
options = 1;
},
{
origin = "{1, 0}";
scale = "{1, -1}";
type = Corner;
name = "_corner-bdc-long";
options = 1;
},
{
origin = "{2, 0}";
scale = "{1, -1}";
type = Corner;
name = "_corner-bdc-long";
options = 1;
}
);
layerId = "60B24473-AF85-4843-BA5D-A0A691C0B2A6";
paths = (
{
closed = 1;
nodes = (
"160 0 LINE",
"80 0 LINE",
"80 280 LINE SMOOTH",
"80 311 OFFCURVE",
"50 325 OFFCURVE",
"10 325 CURVE",
"10 340 LINE",
"110 410 LINE",
"130 400 OFFCURVE",
"160 355 OFFCURVE",
"160 327 CURVE"
);
},
{
closed = 1;
nodes = (
"360 0 LINE",
"280 0 LINE",
"280 290 LINE SMOOTH",
"280 310 OFFCURVE",
"253 340 OFFCURVE",
"233 340 CURVE SMOOTH",
"215 340 OFFCURVE",
"169 308 OFFCURVE",
"156 280 CURVE",
"156 322 LINE",
"281 410 LINE",
"311 410 OFFCURVE",
"360 365 OFFCURVE",
"360 315 CURVE"
);
},
{
closed = 1;
nodes = (
"560 0 LINE",
"480 0 LINE",
"480 290 LINE SMOOTH",
"480 310 OFFCURVE",
"453 340 OFFCURVE",
"433 340 CURVE SMOOTH",
"419 340 OFFCURVE",
"360 308 OFFCURVE",
"354 280 CURVE",
"354 322 LINE",
"484 410 LINE",
"514 410 OFFCURVE",
"560 365 OFFCURVE",
"560 315 CURVE SMOOTH"
);
}
);
width = 615;
}
);
leftMetricsKey = n;
rightMetricsKey = n;
unicode = 006D;
},
{
color = 4;
glyphname = n;
lastChange = "2019-04-24 18:54:26 +0000";
layers = (
{
guideLines = (
{
angle = 35;
position = "{103, 410}";
}
);
hints = (
{
origin = "{0, 19}";
scale = "{-1, 1}";
type = Corner;
name = "_corner-bdc-court";
},
{
origin = "{0, 18}";
type = Corner;
name = "_corner-bdc-court";
options = 1;
},
{
origin = "{0, 10}";
scale = "{-1, 1}";
type = Corner;
name = "_corner-bdc-court";
},
{
origin = "{0, 9}";
type = Corner;
name = "_corner-bdc-court";
options = 1;
}
);
layerId = "60B24473-AF85-4843-BA5D-A0A691C0B2A6";
paths = (
{
closed = 1;
nodes = (
"10 345 LINE",
"103 410 LINE",
"127 396 OFFCURVE",
"144 362 OFFCURVE",
"155 325 CURVE",
"277 410 LINE",
"327 410 OFFCURVE",
"360 355 OFFCURVE",
"360 305 CURVE SMOOTH",
"360 0 LINE",
"280 0 LINE",
"280 280 LINE SMOOTH",
"280 310 OFFCURVE",
"259 325 OFFCURVE",
"229 325 CURVE SMOOTH",
"199 325 OFFCURVE",
"167 307 OFFCURVE",
"152 291 CURVE",
"152 0 LINE",
"72 0 LINE",
"72 280 LINE SMOOTH",
"72 301 OFFCURVE",
"50 325 OFFCURVE",
"10 325 CURVE"
);
}
);
width = 410;
}
);
unicode = 006E;
},
{
color = 4;
glyphname = o;
lastChange = "2019-04-24 18:54:26 +0000";
layers = (
{
guideLines = (
{
angle = 35;
position = "{75, 325}";
},
{
angle = 35;
position = "{187, -10}";
}
);
layerId = "60B24473-AF85-4843-BA5D-A0A691C0B2A6";
paths = (
{
closed = 1;
nodes = (
"190 410 OFFCURVE",
"90 335 OFFCURVE",
"79 325 CURVE SMOOTH",
"52 301 OFFCURVE",
"20 237 OFFCURVE",
"20 182 CURVE SMOOTH",
"20 82 OFFCURVE",
"95 -1 OFFCURVE",
"185 -10 CURVE",
"195 -10 OFFCURVE",
"299 66 OFFCURVE",
"307 75 CURVE SMOOTH",
"332 103 OFFCURVE",
"362 163 OFFCURVE",
"362 218 CURVE SMOOTH",
"362 318 OFFCURVE",
"290 401 OFFCURVE",
"200 410 CURVE"
);
},
{
closed = 1;
nodes = (
"167 75 OFFCURVE",
"95 137 OFFCURVE",
"95 217 CURVE SMOOTH",
"95 287 OFFCURVE",
"127 325 OFFCURVE",
"137 325 CURVE SMOOTH",
"217 325 OFFCURVE",
"287 263 OFFCURVE",
"287 183 CURVE SMOOTH",
"287 113 OFFCURVE",
"257 75 OFFCURVE",
"247 75 CURVE SMOOTH"
);
}
);
width = 382;
}
);
unicode = 006F;
},
{
color = 4;
glyphname = p;
lastChange = "2019-04-24 18:54:26 +0000";
layers = (
{
background = {
components = (
{
name = b;
transform = "{1, 0, 0, 1, 32, 0}";
}
);
};
guideLines = (
{
angle = 35;
position = "{23, 340}";
},
{
angle = 35;
position = "{226, -10}";
},
{
angle = 35;
position = "{153, 325}";
}
);
layerId = "60B24473-AF85-4843-BA5D-A0A691C0B2A6";
paths = (
{
closed = 1;
nodes = (
"23 325 LINE",
"55 323 OFFCURVE",
"74 303 OFFCURVE",
"74 278 CURVE SMOOTH",
"74 132 LINE",
"15 101 LINE",
"15 97 LINE",
"74 50 LINE",
"64 -257 LINE",
"75 -262 LINE",
"115 -234 OFFCURVE",
"150 -211 OFFCURVE",
"199 -183 CURVE",
"199 -163 LINE",
"150 -163 LINE",
"150 422 LINE",
"144 425 LINE",
"23 340 LINE"
);
},
{
closed = 1;
nodes = (
"144 14 OFFCURVE",
"198 -10 OFFCURVE",
"231 -10 CURVE SMOOTH",
"251 -10 OFFCURVE",
"377 91 OFFCURVE",
"384 97 CURVE SMOOTH",
"415 125 OFFCURVE",
"424 178 OFFCURVE",
"424 225 CURVE SMOOTH",
"424 315 OFFCURVE",
"371 410 OFFCURVE",
"274 410 CURVE",
"149 323 LINE",
"113 33 LINE"
);
},
{
closed = 1;
nodes = (
"165 305 OFFCURVE",
"202 325 OFFCURVE",
"242 325 CURVE SMOOTH",
"309 325 OFFCURVE",
"344 260 OFFCURVE",
"344 185 CURVE SMOOTH",
"344 110 OFFCURVE",
"286 60 OFFCURVE",
"276 60 CURVE SMOOTH",
"228 60 OFFCURVE",
"181 73 OFFCURVE",
"150 100 CURVE",
"150 288 LINE"
);
}
);
width = 444;
}
);
rightMetricsKey = o;
unicode = 0070;
},
{
color = 4;
glyphname = q;
lastChange = "2019-04-24 18:54:26 +0000";
layers = (
{
layerId = "60B24473-AF85-4843-BA5D-A0A691C0B2A6";
paths = (
{
closed = 1;
nodes = (
"252 303 OFFCURVE",
"194 325 OFFCURVE",
"160 325 CURVE",
"122 296 OFFCURVE",
"97 241 OFFCURVE",
"97 181 CURVE SMOOTH",
"97 121 OFFCURVE",
"126 75 OFFCURVE",
"186 75 CURVE SMOOTH",
"221 75 OFFCURVE",
"259 94 OFFCURVE",
"278 110 CURVE",
"278 75 LINE",
"140 -10 LINE",
"71 -10 OFFCURVE",
"20 63 OFFCURVE",
"20 141 CURVE SMOOTH",
"20 198 OFFCURVE",
"36 257 OFFCURVE",
"105 315 CURVE SMOOTH",
"218 410 LINE",
"306 384 LINE",
"350 406 LINE",
"355 403 LINE",
"352 247 OFFCURVE",
"352 156 OFFCURVE",
"358 -250 CURVE",
"276 -250 LINE",
"276 284 LINE"
);
}
);
width = 378;
}
);
leftMetricsKey = o;
unicode = 0071;
},
{
color = 4;
glyphname = r;
lastChange = "2019-04-24 18:54:26 +0000";
layers = (
{
guideLines = (
{
angle = 50.032;
position = "{202, 271}";
},
{
angle = 50.032;
position = "{64, 410}";
},
{
angle = 50.032;
position = "{128, 336}";
}
);
hints = (
{
origin = "{0, 1}";
scale = "{-1, 1}";
type = Corner;
name = "_corner-bdc-court";
},
{
origin = "{0, 0}";
scale = "{1, -1}";
type = Corner;
name = "_corner-bdc-long";
options = 1;
}
);
layerId = "60B24473-AF85-4843-BA5D-A0A691C0B2A6";
paths = (
{
closed = 1;
nodes = (
"142 0 LINE",
"62 0 LINE",
"62 291 LINE SMOOTH",
"62 312 OFFCURVE",
"43 325 OFFCURVE",
"10 325 CURVE",
"10 345 LINE",
"64 410 LINE",
"90 402 OFFCURVE",
"132 366 OFFCURVE",
"142 340 CURVE"
);
},
{
closed = 1;
nodes = (
"190 410 LINE",
"195 410 LINE",
"274 361 LINE",
"274 357 LINE",
"211 282 LINE",
"206 282 LINE",
"188 294 OFFCURVE",
"160 335 OFFCURVE",
"145 335 CURVE SMOOTH",
"141 335 OFFCURVE",
"138 329 OFFCURVE",
"135 327 CURVE",
"131 339 LINE"
);
}
);
width = 274;
}
);
leftMetricsKey = n;
unicode = 0072;
},
{
color = 4;
glyphname = s;
lastChange = "2019-04-24 18:54:26 +0000";
layers = (
{
guideLines = (
{
angle = 35;
position = "{206, 294}";
},
{
angle = 35;
position = "{1, 61}";
},
{
angle = 35;
position = "{173, 410}";
},
{
angle = 35;
position = "{137, -10}";
}
);
layerId = "60B24473-AF85-4843-BA5D-A0A691C0B2A6";
paths = (
{
closed = 1;
nodes = (
"10 67 LINE",
"10 64 LINE",
"31 29 OFFCURVE",
"77 -10 OFFCURVE",
"127 -10 CURVE SMOOTH",
"150 -10 OFFCURVE",
"273 59 OFFCURVE",
"273 114 CURVE SMOOTH",
"273 157 OFFCURVE",
"235 196 OFFCURVE",
"185 233 CURVE SMOOTH",
"129 275 OFFCURVE",
"91 317 OFFCURVE",
"123 347 CURVE",
"143 331 OFFCURVE",
"173 309 OFFCURVE",
"200 303 CURVE",
"262 350 LINE",
"262 355 LINE",
"228 366 OFFCURVE",
"196 386 OFFCURVE",
"176 410 CURVE",
"173 410 LINE",
"150 400 OFFCURVE",
"38 323 OFFCURVE",
"38 281 CURVE SMOOTH",
"38 248 OFFCURVE",
"73 211 OFFCURVE",
"121 175 CURVE SMOOTH",
"181 130 OFFCURVE",
"217 73 OFFCURVE",
"199 50 CURVE",
"159 50 OFFCURVE",
"106 85 OFFCURVE",
"81 117 CURVE"
);
}
);
width = 293;
}
);
rightMetricsKey = n;
unicode = 0073;
},
{
color = 4;
glyphname = germandbls;
lastChange = "2019-04-24 18:54:26 +0000";
layers = (
{
guideLines = (
{
angle = 50.865;
position = "{73, -180}";
}
);
hints = (
{
origin = "{1, 12}";
scale = "{1, -1}";
type = Corner;
name = "_corner-bdc-long";
options = 1;
},
{
origin = "{1, 13}";
scale = "{-1, 1}";
type = Corner;
name = "_corner-bdc-court";
}
);
layerId = "60B24473-AF85-4843-BA5D-A0A691C0B2A6";
paths = (
{
closed = 1;
nodes = (
"202 213 LINE",
"292 183 OFFCURVE",
"350 105 OFFCURVE",
"350 15 CURVE SMOOTH",
"350 -80 OFFCURVE",
"298 -152 OFFCURVE",
"281 -167 CURVE SMOOTH",
"258 -188 OFFCURVE",
"197 -224 OFFCURVE",
"59 -224 CURVE",
"53 -215 LINE",
"97 -150 LINE",
"141 -161 OFFCURVE",
"222 -173 OFFCURVE",
"231 -166 CURVE SMOOTH",
"247 -153 OFFCURVE",
"275 -115 OFFCURVE",
"275 -25 CURVE SMOOTH",
"275 65 OFFCURVE",
"226 159 OFFCURVE",
"136 159 CURVE"
);
},
{
closed = 1;
nodes = (
"40 614 LINE",
"40 624 OFFCURVE",
"169 710 OFFCURVE",
"182 710 CURVE SMOOTH",
"249 710 OFFCURVE",
"303 676 OFFCURVE",
"341 646 CURVE",
"341 643 LINE",
"260 586 LINE",
"232 613 OFFCURVE",
"183 650 OFFCURVE",
"120 650 CURVE",
"120 0 LINE",
"40 0 LINE"
);
},
{
closed = 1;
nodes = (
"113 325 LINE",
"108 336 LINE",
"217 410 LINE",
"237 410 OFFCURVE",
"301 371 OFFCURVE",
"301 320 CURVE SMOOTH",
"301 259 OFFCURVE",
"183 181 OFFCURVE",
"114 148 CURVE",
"114 175 LINE",
"149 192 OFFCURVE",
"221 237 OFFCURVE",
"221 275 CURVE SMOOTH",
"221 293 OFFCURVE",
"204 325 OFFCURVE",
"136 325 CURVE SMOOTH"
);
}
);
width = 360;
}
);
leftMetricsKey = l;
rightMetricsKey = k;
unicode = 00DF;
},
{
color = 4;
glyphname = germandbls.ss01;
lastChange = "2019-04-24 18:54:13 +0000";
layers = (
{
hints = (
{
origin = "{1, 12}";
scale = "{1, -1}";
type = Corner;
name = "_corner-bdc-long";
options = 1;
},
{
origin = "{1, 13}";
scale = "{-1, 1}";
type = Corner;
name = "_corner-bdc-court";
}
);
layerId = "60B24473-AF85-4843-BA5D-A0A691C0B2A6";
paths = (
{
closed = 1;
nodes = (
"183 204 LINE",
"281 305 LINE",
"124 305 LINE",
"124 380 LINE",
"383 380 LINE",
"384 370 LINE",
"233 215 LINE",
"315 200 OFFCURVE",
"366 122 OFFCURVE",
"366 30 CURVE SMOOTH",
"366 -122 OFFCURVE",
"234 -212 OFFCURVE",
"148 -212 CURVE SMOOTH",
"111 -212 OFFCURVE",
"69 -197 OFFCURVE",
"55 -178 CURVE",
"112 -111 LINE",
"140 -137 OFFCURVE",
"182 -152 OFFCURVE",
"204 -152 CURVE SMOOTH",
"233 -152 OFFCURVE",
"281 -140 OFFCURVE",
"281 -17 CURVE SMOOTH",
"281 68 OFFCURVE",
"253 177 OFFCURVE",
"131 158 CURVE",
"131 180 LINE"
);
},
{
closed = 1;
nodes = (
"55 614 LINE",
"55 624 OFFCURVE",
"184 710 OFFCURVE",
"197 710 CURVE SMOOTH",
"264 710 OFFCURVE",
"318 676 OFFCURVE",
"356 646 CURVE",
"356 643 LINE",
"275 586 LINE",
"247 613 OFFCURVE",
"198 650 OFFCURVE",
"135 650 CURVE",
"135 0 LINE",
"55 0 LINE"
);
}
);
width = 394;
}
);
},
{
color = 4;
glyphname = t;
lastChange = "2019-04-24 18:54:26 +0000";
layers = (
{
guideLines = (
{
angle = 45;
position = "{5, 340}";
}
);
layerId = "60B24473-AF85-4843-BA5D-A0A691C0B2A6";
paths = (
{
closed = 1;
nodes = (
"5 340 LINE",
"125 460 LINE",
"131 460 LINE",
"131 390 LINE",
"243 390 LINE",
"243 325 LINE",
"131 325 LINE",
"131 143 LINE SMOOTH",
"131 78 OFFCURVE",
"156 65 OFFCURVE",
"225 65 CURVE SMOOTH",
"231 65 LINE",
"236 50 LINE",
"210 25 OFFCURVE",
"152 -10 OFFCURVE",
"127 -10 CURVE SMOOTH",
"82 -10 OFFCURVE",
"51 30 OFFCURVE",
"51 80 CURVE SMOOTH",
"51 325 LINE",
"5 325 LINE"
);
}
);
width = 253;
}
);
unicode = 0074;
},
{
color = 4;
glyphname = t_h;
lastChange = "2019-04-24 18:54:13 +0000";
layers = (
{
hints = (
{
origin = "{2, 3}";
type = Corner;
name = "_corner-bdc-court";
options = 1;
},
{
origin = "{2, 4}";
type = Corner;
name = "_corner-bdc-long";
}
);
layerId = "60B24473-AF85-4843-BA5D-A0A691C0B2A6";
paths = (
{
closed = 1;
nodes = (
"51 325 LINE",
"51 130 LINE SMOOTH",
"51 30 OFFCURVE",
"112 -10 OFFCURVE",
"157 -10 CURVE SMOOTH",
"182 -10 OFFCURVE",
"214 17 OFFCURVE",
"366 80 CURVE",
"361 95 LINE",
"325 88 LINE SMOOTH",
"266 76 OFFCURVE",
"249 75 OFFCURVE",
"218 75 CURVE SMOOTH",
"158 75 OFFCURVE",
"131 89 OFFCURVE",
"131 143 CURVE SMOOTH",
"131 325 LINE",
"353 325 LINE",
"353 390 LINE",
"131 390 LINE",
"131 460 LINE",
"125 460 LINE",
"5 340 LINE",
"5 325 LINE"
);
},
{
closed = 1;
nodes = (
"186 700 LINE",
"111 618 LINE",
"120 609 LINE",
"170 625 OFFCURVE",
"238 630 OFFCURVE",
"333 630 CURVE",
"362 700 LINE"
);
},
{
closed = 1;
nodes = (
"322 585 OFFCURVE",
"323 504 OFFCURVE",
"323 440 CURVE SMOOTH",
"323 0 LINE",
"403 0 LINE",
"403 272 LINE",
"423 295 OFFCURVE",
"463 325 OFFCURVE",
"502 325 CURVE SMOOTH",
"582 325 OFFCURVE",
"630 232 OFFCURVE",
"630 152 CURVE SMOOTH",
"630 89 OFFCURVE",
"608 39 OFFCURVE",
"593 28 CURVE SMOOTH",
"578 17 OFFCURVE",
"508 15 OFFCURVE",
"487 15 CURVE",
"460 -60 LINE",
"464 -65 LINE",
"537 -42 OFFCURVE",
"616 8 OFFCURVE",
"642 37 CURVE SMOOTH",
"667 64 OFFCURVE",
"695 141 OFFCURVE",
"695 202 CURVE SMOOTH",
"695 337 OFFCURVE",
"624 410 OFFCURVE",
"533 410 CURVE",
"404 301 LINE",
"404 745 LINE",
"398 750 LINE",
"314 644 LINE",
"314 639 LINE"
);
}
);
width = 715;
}
);
leftMetricsKey = t;
rightMetricsKey = h;
},
{
color = 4;
glyphname = t_z;
lastChange = "2019-04-24 18:54:26 +0000";
layers = (
{
guideLines = (
{
angle = 45;
position = "{442, 360}";
}
);
layerId = "60B24473-AF85-4843-BA5D-A0A691C0B2A6";
paths = (
{
closed = 1;
nodes = (
"115 311 LINE",
"382 311 LINE",
"456 381 LINE",
"454 386 LINE",
"120 386 LINE"
);
},
{
closed = 1;
nodes = (
"223 178 LINE",
"227 169 LINE",
"365 164 OFFCURVE",
"371 22 OFFCURVE",
"371 -38 CURVE SMOOTH",
"371 -135 OFFCURVE",
"354 -169 OFFCURVE",
"341 -191 CURVE",
"271 -191 OFFCURVE",
"217 -172 OFFCURVE",
"194 -155 CURVE",
"141 -251 LINE",
"224 -280 OFFCURVE",
"323 -258 OFFCURVE",
"356 -227 CURVE SMOOTH",
"414 -173 OFFCURVE",
"451 -101 OFFCURVE",
"451 10 CURVE SMOOTH",
"451 112 OFFCURVE",
"419 202 OFFCURVE",
"331 246 CURVE",
"456 381 LINE",
"348 324 LINE"
);
},
{
closed = 1;
nodes = (
"136 370 LINE",
"136 473 LINE",
"127 473 LINE",
"5 331 LINE",
"5 311 LINE",
"51 311 LINE",
"51 91 LINE SMOOTH",
"51 51 OFFCURVE",
"72 -10 OFFCURVE",
"142 -10 CURVE",
"257 75 LINE",
"244 95 LINE",
"227 84 OFFCURVE",
"203 75 OFFCURVE",
"186 75 CURVE SMOOTH",
"165 75 OFFCURVE",
"131 90 OFFCURVE",
"131 157 CURVE SMOOTH",
"131 327 LINE"
);
}
);
width = 521;
}
);
leftMetricsKey = t;
},
{
color = 4;
glyphname = u;
lastChange = "2019-04-24 18:54:26 +0000";
layers = (
{
guideLines = (
{
angle = 50;
position = "{19, 335}";
},
{
angle = 232.1717;
position = "{363, -11}";
}
);
layerId = "60B24473-AF85-4843-BA5D-A0A691C0B2A6";
paths = (
{
closed = 1;
nodes = (
"82 410 LINE",
"139 385 OFFCURVE",
"152 355 OFFCURVE",
"152 307 CURVE SMOOTH",
"152 119 LINE SMOOTH",
"152 79 OFFCURVE",
"172 64 OFFCURVE",
"192 64 CURVE SMOOTH",
"211 64 OFFCURVE",
"270 91 OFFCURVE",
"275 99 CURVE",
"275 382 LINE",
"351 410 LINE",
"355 408 LINE",
"355 126 LINE",
"275 75 LINE",
"245 50 OFFCURVE",
"176 -11 OFFCURVE",
"146 -11 CURVE SMOOTH",
"101 -11 OFFCURVE",
"72 30 OFFCURVE",
"72 75 CURVE SMOOTH",
"72 255 LINE SMOOTH",
"72 297 OFFCURVE",
"41 309 OFFCURVE",
"5 309 CURVE",
"5 319 LINE"
);
},
{
closed = 1;
nodes = (
"355 126 LINE",
"355 89 OFFCURVE",
"384 79 OFFCURVE",
"414 75 CURVE",
"414 65 LINE",
"356 -10 LINE",
"350 -10 LINE",
"333 -10 OFFCURVE",
"295 31 OFFCURVE",
"275 75 CURVE"
);
}
);
width = 419;
}
);
rightMetricsKey = a;
unicode = 0075;
},
{
color = 4;
glyphname = udieresis;
lastChange = "2019-04-24 18:54:13 +0000";
layers = (
{
background = {
components = (
{
name = d;
transform = "{1, 0, 0, 1, -77, 0}";
}
);
};
components = (
{
name = dieresis;
transform = "{1, 0, 0, 1, -51, -10}";
}
);
guideLines = (
{
angle = 35;
position = "{112, 410}";
}
);
layerId = "60B24473-AF85-4843-BA5D-A0A691C0B2A6";
paths = (
{
closed = 1;
nodes = (
"112 410 LINE",
"120 400 LINE",
"110 316 OFFCURVE",
"111 209 OFFCURVE",
"111 135 CURVE SMOOTH",
"111 95 OFFCURVE",
"155 74 OFFCURVE",
"175 74 CURVE SMOOTH",
"200 74 OFFCURVE",
"224 96 OFFCURVE",
"229 104 CURVE",
"229 371 LINE",
"305 424 LINE",
"309 422 LINE",
"309 106 LINE",
"229 75 LINE",
"129 -11 LINE",
"94 -11 OFFCURVE",
"30 60 OFFCURVE",
"30 85 CURVE SMOOTH",
"30 353 LINE"
);
},
{
closed = 1;
nodes = (
"309 111 LINE",
"309 83 OFFCURVE",
"334 75 OFFCURVE",
"356 75 CURVE SMOOTH",
"367 75 OFFCURVE",
"377 78 OFFCURVE",
"383 82 CURVE",
"388 72 LINE",
"371 48 OFFCURVE",
"320 -10 OFFCURVE",
"300 -10 CURVE SMOOTH",
"260 -10 OFFCURVE",
"233 46 OFFCURVE",
"227 75 CURVE"
);
}
);
width = 393;
}
);
rightMetricsKey = a;
unicode = 00FC;
},
{
color = 4;
glyphname = v;
lastChange = "2019-04-24 18:54:26 +0000";
layers = (
{
layerId = "60B24473-AF85-4843-BA5D-A0A691C0B2A6";
paths = (
{
closed = 1;
nodes = (
"267 -10 LINE",
"413 244 LINE SMOOTH",
"424 263 OFFCURVE",
"429 293 OFFCURVE",
"429 310 CURVE SMOOTH",
"429 361 OFFCURVE",
"394 410 OFFCURVE",
"321 410 CURVE",
"198 273 LINE",
"157 357 OFFCURVE",
"153 375 OFFCURVE",
"63 410 CURVE",
"0 329 LINE",
"4 319 LINE",
"15 322 OFFCURVE",
"31 325 OFFCURVE",
"43 325 CURVE SMOOTH",
"72 325 OFFCURVE",
"103 275 OFFCURVE",
"130 219 CURVE SMOOTH",
"242 -10 LINE"
);
},
{
closed = 1;
nodes = (
"218 234 LINE",
"218 271 OFFCURVE",
"266 325 OFFCURVE",
"303 325 CURVE SMOOTH",
"338 325 OFFCURVE",
"377 281 OFFCURVE",
"367 215 CURVE",
"277 69 LINE",
"299 68 LINE"
);
}
);
width = 449;
}
);
rightMetricsKey = o;
unicode = 0076;
},
{
color = 4;
glyphname = w;
lastChange = "2019-04-24 18:54:26 +0000";
layers = (
{
guideLines = (
{
angle = 50;
position = "{15, 302}";
}
);
layerId = "60B24473-AF85-4843-BA5D-A0A691C0B2A6";
paths = (
{
closed = 1;
nodes = (
"6 323 LINE",
"66 326 OFFCURVE",
"88 309 OFFCURVE",
"110 248 CURVE SMOOTH",
"204 -10 LINE",
"219 -10 LINE",
"330 155 LINE",
"400 -10 LINE",
"415 -10 LINE",
"488 101 LINE SMOOTH",
"548 193 OFFCURVE",
"567 232 OFFCURVE",
"567 281 CURVE SMOOTH",
"567 322 OFFCURVE",
"540 410 OFFCURVE",
"474 410 CURVE",
"365 272 LINE",
"324 357 LINE SMOOTH",
"310 386 OFFCURVE",
"287 410 OFFCURVE",
"247 410 CURVE",
"152 312 LINE",
"162 293 LINE",
"180 310 OFFCURVE",
"196 325 OFFCURVE",
"221 325 CURVE SMOOTH",
"252 325 OFFCURVE",
"274 302 OFFCURVE",
"292 255 CURVE SMOOTH",
"318 187 LINE",
"252 97 LINE",
"169 311 LINE SMOOTH",
"139 388 OFFCURVE",
"119 389 OFFCURVE",
"51 412 CURVE",
"0 332 LINE"
);
},
{
closed = 1;
nodes = (
"401 286 OFFCURVE",
"421 309 OFFCURVE",
"448 309 CURVE SMOOTH",
"488 309 OFFCURVE",
"510 278 OFFCURVE",
"510 239 CURVE SMOOTH",
"510 174 OFFCURVE",
"470 123 OFFCURVE",
"446 83 CURVE",
"378 242 LINE"
);
}
);
width = 587;
}
);
leftMetricsKey = v;
rightMetricsKey = o;
unicode = 0077;
},
{
color = 4;
glyphname = x;
lastChange = "2019-04-24 18:54:26 +0000";
layers = (
{
layerId = "60B24473-AF85-4843-BA5D-A0A691C0B2A6";
paths = (
{
closed = 1;
nodes = (
"255 328 OFFCURVE",
"280 280 OFFCURVE",
"323 280 CURVE",
"392 344 LINE",
"392 353 LINE",
"356 362 OFFCURVE",
"310 389 OFFCURVE",
"293 410 CURVE",
"288 410 LINE",
"205 325 LINE",
"186 371 OFFCURVE",
"171 410 OFFCURVE",
"113 410 CURVE",
"35 334 LINE",
"41 325 LINE",
"92 325 OFFCURVE",
"130 319 OFFCURVE",
"130 274 CURVE SMOOTH",
"130 104 LINE",
"0 -123 LINE",
"28 -142 LINE",
"144 69 LINE",
"165 27 OFFCURVE",
"208 -7 OFFCURVE",
"247 -10 CURVE",
"387 88 LINE",
"375 108 LINE",
"341 88 OFFCURVE",
"310 75 OFFCURVE",
"299 75 CURVE SMOOTH",
"259 75 OFFCURVE",
"210 121 OFFCURVE",
"210 182 CURVE SMOOTH",
"210 301 LINE"
);
}
);
width = 397;
}
);
unicode = 0078;
},
{
color = 4;
glyphname = y;
lastChange = "2019-04-24 18:54:26 +0000";
layers = (
{
guideLines = (
{
angle = 50;
position = "{195, 368}";
}
);
layerId = "60B24473-AF85-4843-BA5D-A0A691C0B2A6";
paths = (
{
closed = 1;
nodes = (
"87 399 OFFCURVE",
"137 359 OFFCURVE",
"160 325 CURVE",
"230 410 LINE",
"307 410 OFFCURVE",
"347 358 OFFCURVE",
"347 291 CURVE SMOOTH",
"347 208 OFFCURVE",
"294 135 OFFCURVE",
"229 45 CURVE SMOOTH",
"159 -52 OFFCURVE",
"88 -141 OFFCURVE",
"88 -163 CURVE SMOOTH",
"88 -200 OFFCURVE",
"271 -143 OFFCURVE",
"346 -143 CURVE SMOOTH",
"376 -143 OFFCURVE",
"386 -195 OFFCURVE",
"369 -260 CURVE SMOOTH",
"339 -260 LINE SMOOTH",
"345 -223 OFFCURVE",
"338 -219 OFFCURVE",
"321 -219 CURVE SMOOTH",
"247 -219 OFFCURVE",
"117 -260 OFFCURVE",
"69 -260 CURVE SMOOTH",
"43 -260 OFFCURVE",
"20 -241 OFFCURVE",
"20 -208 CURVE SMOOTH",
"20 -180 OFFCURVE",
"56 -124 OFFCURVE",
"95 -64 CURVE",
"84 253 LINE SMOOTH",
"83 293 OFFCURVE",
"49 320 OFFCURVE",
"15 320 CURVE",
"10 330 LINE",
"53 410 LINE"
);
},
{
closed = 1;
nodes = (
"217 83 LINE SMOOTH",
"261 149 OFFCURVE",
"277 199 OFFCURVE",
"277 238 CURVE SMOOTH",
"277 278 OFFCURVE",
"256 315 OFFCURVE",
"216 315 CURVE SMOOTH",
"201 315 OFFCURVE",
"182 312 OFFCURVE",
"164 303 CURVE",
"164 4 LINE"
);
}
);
width = 377;
}
);
leftMetricsKey = n;
unicode = 0079;
},
{
color = 4;
glyphname = z;
lastChange = "2019-04-24 18:54:26 +0000";
layers = (
{
guideLines = (
{
angle = 90;
position = "{0, 257}";
}
);
layerId = "60B24473-AF85-4843-BA5D-A0A691C0B2A6";
paths = (
{
closed = 1;
nodes = (
"244 75 LINE SMOOTH",
"274 75 OFFCURVE",
"295 82 OFFCURVE",
"316 93 CURVE",
"319 90 LINE",
"287 0 LINE",
"195 0 OFFCURVE",
"104 4 OFFCURVE",
"12 -4 CURVE",
"10 1 LINE",
"85 89 OFFCURVE",
"164 221 OFFCURVE",
"228 325 CURVE",
"133 325 OFFCURVE",
"60 330 OFFCURVE",
"24 303 CURVE",
"12 309 LINE",
"62 400 LINE",
"238 400 LINE SMOOTH",
"280 400 OFFCURVE",
"311 401 OFFCURVE",
"322 404 CURVE",
"326 396 LINE",
"250 292 OFFCURVE",
"181 188 OFFCURVE",
"113 75 CURVE"
);
}
);
width = 336;
}
);
leftMetricsKey = n;
unicode = 007A;
},
{
color = 4;
glyphname = z.ss01;
lastChange = "2019-04-24 18:54:26 +0000";
layers = (
{
guideLines = (
{
angle = 90;
position = "{-30, 257}";
},
{
angle = 50;
position = "{25, 325}";
}
);
layerId = "60B24473-AF85-4843-BA5D-A0A691C0B2A6";
paths = (
{
closed = 1;
nodes = (
"27 328 LINE",
"96 410 LINE",
"159 398 OFFCURVE",
"230 381 OFFCURVE",
"275 381 CURVE SMOOTH",
"293 381 OFFCURVE",
"305 386 OFFCURVE",
"340 410 CURVE",
"366 388 LINE",
"317 354 OFFCURVE",
"218 203 OFFCURVE",
"153 106 CURVE",
"198 86 OFFCURVE",
"251 75 OFFCURVE",
"300 75 CURVE SMOOTH",
"320 75 OFFCURVE",
"342 84 OFFCURVE",
"348 92 CURVE",
"361 84 LINE",
"299 -10 LINE",
"253 -10 OFFCURVE",
"172 16 OFFCURVE",
"98 48 CURVE",
"38 -10 LINE",
"10 17 LINE",
"74 70 OFFCURVE",
"183 219 OFFCURVE",
"236 312 CURVE",
"191 312 OFFCURVE",
"113 328 OFFCURVE",
"83 328 CURVE SMOOTH",
"60 328 OFFCURVE",
"46 323 OFFCURVE",
"38 317 CURVE"
);
}
);
width = 376;
}
);
leftMetricsKey = n;
},
{
color = 6;
glyphname = zero;
lastChange = "2019-04-24 18:54:26 +0000";
layers = (
{
guideLines = (
{
angle = 40;
position = "{148, 364}";
}
);
layerId = "60B24473-AF85-4843-BA5D-A0A691C0B2A6";
paths = (
{
closed = 1;
nodes = (
"174 85 OFFCURVE",
"105 137 OFFCURVE",
"105 237 CURVE SMOOTH",
"105 277 OFFCURVE",
"133 325 OFFCURVE",
"143 325 CURVE",
"203 410 LINE",
"193 410 OFFCURVE",
"103 331 OFFCURVE",
"92 321 CURVE SMOOTH",
"60 292 OFFCURVE",
"30 237 OFFCURVE",
"30 172 CURVE SMOOTH",
"30 72 OFFCURVE",
"103 0 OFFCURVE",
"203 -10 CURVE",
"273 85 LINE"
);
},
{
closed = 1;
nodes = (
"242 325 OFFCURVE",
"311 263 OFFCURVE",
"311 163 CURVE SMOOTH",
"311 123 OFFCURVE",
"283 85 OFFCURVE",
"273 85 CURVE",
"203 -10 LINE",
"213 -10 OFFCURVE",
"313 69 OFFCURVE",
"324 79 CURVE SMOOTH",
"356 108 OFFCURVE",
"386 163 OFFCURVE",
"386 228 CURVE SMOOTH",
"386 328 OFFCURVE",
"303 400 OFFCURVE",
"203 410 CURVE",
"143 325 LINE"
);
}
);
width = 416;
}
);
unicode = 0030;
},
{
color = 6;
glyphname = one;
lastChange = "2019-04-24 18:54:26 +0000";
layers = (
{
guideLines = (
{
angle = 45;
position = "{64, 292}";
}
);
hints = (
{
origin = "{0, 1}";
type = Corner;
name = "_corner-bdc-long";
}
);
layerId = "60B24473-AF85-4843-BA5D-A0A691C0B2A6";
paths = (
{
closed = 1;
nodes = (
"50 0 LINE",
"199 0 LINE",
"199 381 LINE",
"209 400 LINE",
"183 411 LINE",
"64 292 LINE",
"64 277 LINE",
"119 250 LINE",
"119 63 LINE SMOOTH",
"119 55 OFFCURVE",
"117 53 OFFCURVE",
"95 37 CURVE SMOOTH",
"50 5 LINE"
);
}
);
width = 274;
}
);
unicode = 0031;
},
{
color = 6;
glyphname = two;
lastChange = "2019-04-24 18:54:26 +0000";
layers = (
{
guideLines = (
{
angle = 45;
position = "{42, 334}";
},
{
angle = 45;
position = "{37, 16}";
}
);
layerId = "60B24473-AF85-4843-BA5D-A0A691C0B2A6";
paths = (
{
closed = 1;
nodes = (
"30 322 LINE",
"115 407 LINE",
"128 409 OFFCURVE",
"149 410 OFFCURVE",
"174 410 CURVE SMOOTH",
"239 410 OFFCURVE",
"293 366 OFFCURVE",
"293 301 CURVE SMOOTH",
"293 218 OFFCURVE",
"238 158 OFFCURVE",
"159 85 CURVE",
"204 85 OFFCURVE",
"259 70 OFFCURVE",
"278 70 CURVE SMOOTH",
"298 70 OFFCURVE",
"301 73 OFFCURVE",
"310 80 CURVE",
"324 73 LINE",
"274 -10 LINE",
"238 -10 OFFCURVE",
"175 22 OFFCURVE",
"101 22 CURVE",
"65 -10 LINE",
"33 12 LINE",
"162 141 OFFCURVE",
"208 202 OFFCURVE",
"208 260 CURVE SMOOTH",
"208 310 OFFCURVE",
"166 325 OFFCURVE",
"116 325 CURVE SMOOTH",
"83 325 OFFCURVE",
"55 320 OFFCURVE",
"37 314 CURVE"
);
}
);
width = 359;
}
);
unicode = 0032;
},
{
color = 6;
glyphname = three;
lastChange = "2019-04-24 18:54:26 +0000";
layers = (
{
guideLines = (
{
angle = 45;
position = "{73, 73}";
},
{
angle = 60;
position = "{188, 256}";
},
{
angle = 60;
position = "{-14, 256}";
}
);
layerId = "60B24473-AF85-4843-BA5D-A0A691C0B2A6";
paths = (
{
closed = 1;
nodes = (
"52 381 OFFCURVE",
"36 349 OFFCURVE",
"20 315 CURVE",
"37 311 LINE",
"50 327 OFFCURVE",
"138 325 OFFCURVE",
"188 325 CURVE",
"103 186 LINE",
"107 173 LINE",
"167 173 OFFCURVE",
"227 148 OFFCURVE",
"227 88 CURVE SMOOTH",
"227 49 OFFCURVE",
"194 -5 OFFCURVE",
"158 -5 CURVE SMOOTH",
"105 -5 OFFCURVE",
"84 20 OFFCURVE",
"65 35 CURVE",
"10 -16 LINE",
"10 -21 LINE",
"28 -39 OFFCURVE",
"52 -50 OFFCURVE",
"99 -50 CURVE SMOOTH",
"199 -50 OFFCURVE",
"302 33 OFFCURVE",
"302 123 CURVE SMOOTH",
"302 188 OFFCURVE",
"251 219 OFFCURVE",
"188 236 CURVE",
"284 400 LINE",
"279 407 LINE",
"254 402 OFFCURVE",
"221 400 OFFCURVE",
"197 400 CURVE SMOOTH",
"174 400 OFFCURVE",
"104 403 OFFCURVE",
"72 406 CURVE"
);
}
);
width = 352;
}
);
unicode = 0033;
},
{
color = 6;
glyphname = four;
lastChange = "2019-04-24 18:54:26 +0000";
layers = (
{
hints = (
{
origin = "{0, 14}";
scale = "{1, -1}";
type = Corner;
name = "_corner-bdc-long";
options = 1;
},
{
origin = "{0, 15}";
scale = "{1, -1}";
type = Corner;
name = "_corner-bdc-court";
}
);
layerId = "60B24473-AF85-4843-BA5D-A0A691C0B2A6";
paths = (
{
closed = 1;
nodes = (
"223 266 LINE",
"82 65 LINE",
"317 65 LINE SMOOTH",
"396 65 OFFCURVE",
"393 76 OFFCURVE",
"421 102 CURVE",
"438 91 LINE",
"401 -1 LINE",
"271 3 OFFCURVE",
"137 1 OFFCURVE",
"6 -1 CURVE",
"0 29 LINE",
"282 420 LINE",
"301 420 LINE",
"301 -172 LINE",
"223 -172 LINE"
);
}
);
width = 458;
}
);
unicode = 0034;
},
{
color = 6;
glyphname = five;
lastChange = "2019-04-24 18:54:26 +0000";
layers = (
{
guideLines = (
{
angle = 45;
position = "{-51, -150}";
},
{
angle = 45;
position = "{79, 73}";
}
);
layerId = "60B24473-AF85-4843-BA5D-A0A691C0B2A6";
paths = (
{
closed = 1;
nodes = (
"146 248 LINE",
"237 237 OFFCURVE",
"288 187 OFFCURVE",
"288 117 CURVE SMOOTH",
"288 22 OFFCURVE",
"169 -57 OFFCURVE",
"84 -57 CURVE SMOOTH",
"57 -57 OFFCURVE",
"35 -53 OFFCURVE",
"10 -47 CURVE",
"10 -43 LINE",
"81 16 LINE",
"103 7 OFFCURVE",
"139 0 OFFCURVE",
"169 0 CURVE SMOOTH",
"179 0 OFFCURVE",
"208 34 OFFCURVE",
"208 77 CURVE SMOOTH",
"208 137 OFFCURVE",
"154 166 OFFCURVE",
"74 173 CURVE",
"71 178 LINE",
"139 400 LINE",
"147 400 OFFCURVE",
"345 400 OFFCURVE",
"376 420 CURVE",
"380 415 LINE",
"327 334 LINE",
"285 328 OFFCURVE",
"210 325 OFFCURVE",
"167 325 CURVE"
);
}
);
width = 365;
}
);
unicode = 0035;
},
{
color = 6;
glyphname = six;
lastChange = "2019-04-24 18:54:26 +0000";
layers = (
{
layerId = "60B24473-AF85-4843-BA5D-A0A691C0B2A6";
paths = (
{
closed = 1;
nodes = (
"157 75 OFFCURVE",
"102 127 OFFCURVE",
"102 217 CURVE SMOOTH",
"102 337 OFFCURVE",
"247 432 OFFCURVE",
"379 479 CURVE",
"381 489 LINE",
"308 515 LINE",
"159 445 OFFCURVE",
"30 334 OFFCURVE",
"30 192 CURVE SMOOTH",
"30 72 OFFCURVE",
"111 0 OFFCURVE",
"201 -10 CURVE",
"247 75 LINE"
);
},
{
closed = 1;
nodes = (
"195 269 OFFCURVE",
"285 233 OFFCURVE",
"285 143 CURVE SMOOTH",
"285 103 OFFCURVE",
"262 75 OFFCURVE",
"247 75 CURVE",
"201 -10 LINE",
"285 40 OFFCURVE",
"355 98 OFFCURVE",
"355 168 CURVE SMOOTH",
"355 278 OFFCURVE",
"232 328 OFFCURVE",
"132 328 CURVE",
"105 269 LINE"
);
}
);
width = 391;
}
);
unicode = 0036;
},
{
color = 6;
glyphname = seven;
lastChange = "2019-04-24 18:54:26 +0000";
layers = (
{
layerId = "60B24473-AF85-4843-BA5D-A0A691C0B2A6";
paths = (
{
closed = 1;
nodes = (
"64 381 OFFCURVE",
"48 349 OFFCURVE",
"32 315 CURVE",
"49 311 LINE",
"62 327 OFFCURVE",
"158 325 OFFCURVE",
"208 325 CURVE",
"121 28 LINE SMOOTH",
"102 -38 OFFCURVE",
"70 -32 OFFCURVE",
"22 8 CURVE",
"9 8 LINE",
"-5 -79 LINE",
"98 -80 OFFCURVE",
"159 -41 OFFCURVE",
"191 26 CURVE SMOOTH",
"247 145 OFFCURVE",
"254 283 OFFCURVE",
"339 400 CURVE",
"334 407 LINE",
"309 402 OFFCURVE",
"273 400 OFFCURVE",
"249 400 CURVE SMOOTH",
"206 400 OFFCURVE",
"116 403 OFFCURVE",
"84 406 CURVE"
);
}
);
width = 339;
}
);
unicode = 0037;
},
{
color = 6;
glyphname = eight;
lastChange = "2019-04-24 18:54:26 +0000";
layers = (
{
guideLines = (
{
angle = 40;
position = "{317, 73}";
},
{
angle = 40;
position = "{74, 449}";
}
);
layerId = "60B24473-AF85-4843-BA5D-A0A691C0B2A6";
paths = (
{
closed = 1;
nodes = (
"199 -10 OFFCURVE",
"289 56 OFFCURVE",
"305 69 CURVE SMOOTH",
"325 88 OFFCURVE",
"341 128 OFFCURVE",
"341 161 CURVE SMOOTH",
"341 221 OFFCURVE",
"307 268 OFFCURVE",
"254 288 CURVE",
"287 318 OFFCURVE",
"307 362 OFFCURVE",
"307 398 CURVE SMOOTH",
"307 456 OFFCURVE",
"260 515 OFFCURVE",
"202 515 CURVE SMOOTH",
"187 515 OFFCURVE",
"115 465 OFFCURVE",
"83 439 CURVE SMOOTH",
"69 429 OFFCURVE",
"48 391 OFFCURVE",
"48 355 CURVE SMOOTH",
"48 316 OFFCURVE",
"66 289 OFFCURVE",
"104 260 CURVE",
"57 219 OFFCURVE",
"30 175 OFFCURVE",
"30 128 CURVE SMOOTH",
"30 51 OFFCURVE",
"104 -10 OFFCURVE",
"180 -10 CURVE SMOOTH"
);
},
{
closed = 1;
nodes = (
"255 71 OFFCURVE",
"240 71 CURVE SMOOTH",
"159 71 OFFCURVE",
"95 104 OFFCURVE",
"95 171 CURVE SMOOTH",
"95 209 OFFCURVE",
"132 243 OFFCURVE",
"142 243 CURVE",
"200 234 OFFCURVE",
"276 199 OFFCURVE",
"276 132 CURVE SMOOTH",
"276 111 OFFCURVE"
);
},
{
closed = 1;
nodes = (
"219 294 OFFCURVE",
"210 294 CURVE SMOOTH",
"162 294 OFFCURVE",
"113 321 OFFCURVE",
"113 379 CURVE SMOOTH",
"113 410 OFFCURVE",
"131 443 OFFCURVE",
"140 443 CURVE SMOOTH",
"188 443 OFFCURVE",
"242 407 OFFCURVE",
"242 359 CURVE SMOOTH",
"242 325 OFFCURVE"
);
}
);
width = 371;
}
);
unicode = 0038;
},
{
color = 6;
glyphname = nine;
lastChange = "2019-04-24 18:54:26 +0000";
layers = (
{
layerId = "60B24473-AF85-4843-BA5D-A0A691C0B2A6";
paths = (
{
closed = 1;
nodes = (
"188 325 OFFCURVE",
"263 273 OFFCURVE",
"263 203 CURVE SMOOTH",
"263 93 OFFCURVE",
"90 -48 OFFCURVE",
"30 -92 CURVE",
"32 -100 LINE",
"117 -100 LINE",
"196 -34 OFFCURVE",
"338 84 OFFCURVE",
"338 218 CURVE SMOOTH",
"338 298 OFFCURVE",
"279 390 OFFCURVE",
"179 410 CURVE",
"128 325 LINE"
);
},
{
closed = 1;
nodes = (
"195 141 OFFCURVE",
"105 167 OFFCURVE",
"105 267 CURVE SMOOTH",
"105 287 OFFCURVE",
"110 312 OFFCURVE",
"128 325 CURVE",
"179 410 LINE",
"169 410 OFFCURVE",
"107 353 OFFCURVE",
"96 343 CURVE SMOOTH",
"59 310 OFFCURVE",
"40 257 OFFCURVE",
"40 212 CURVE SMOOTH",
"40 122 OFFCURVE",
"131 75 OFFCURVE",
"241 65 CURVE",
"275 131 LINE"
);
}
);
width = 388;
}
);
unicode = 0039;
},
{
color = 10;
glyphname = period;
lastChange = "2019-05-14 15:12:52 +0000";
layers = (
{
guideLines = (
{
angle = 50.032;
position = "{42, 38}";
},
{
angle = 50.032;
position = "{103, -20}";
}
);
layerId = "60B24473-AF85-4843-BA5D-A0A691C0B2A6";
paths = (
{
closed = 1;
nodes = (
"155 42 LINE",
"155 46 LINE",
"96 97 LINE",
"92 97 LINE",
"40 36 LINE",
"40 32 LINE",
"99 -20 LINE",
"103 -20 LINE"
);
}
);
width = 195;
}
);
unicode = 002E;
},
{
color = 10;
glyphname = comma;
lastChange = "2019-05-14 15:12:52 +0000";
layers = (
{
guideLines = (
{
angle = 50;
position = "{106, 97}";
},
{
angle = 130;
position = "{170, 38}";
},
{
angle = 130;
position = "{30, 20}";
},
{
angle = 50;
position = "{202, 51}";
},
{
angle = 50;
position = "{202, 51}";
}
);
layerId = "60B24473-AF85-4843-BA5D-A0A691C0B2A6";
paths = (
{
closed = 1;
nodes = (
"32 -152 LINE",
"179 27 LINE",
"179 31 LINE",
"111 97 LINE",
"106 97 LINE",
"48 27 LINE",
"48 22 LINE",
"121 -31 LINE",
"110 26 LINE",
"20 -142 LINE"
);
}
);
width = 219;
}
);
unicode = 002C;
},
{
color = 10;
glyphname = colon;
lastChange = "2019-05-14 15:12:52 +0000";
layers = (
{
background = {
paths = (
{
closed = 1;
nodes = (
"199 24 LINE",
"134 83 LINE",
"73 14 LINE",
"141 -44 LINE"
);
},
{
closed = 1;
nodes = (
"199 207 LINE",
"134 266 LINE",
"73 197 LINE",
"141 139 LINE"
);
}
);
};
components = (
{
name = period;
},
{
name = period;
transform = "{1, 0, 0, 1, 0, 180}";
}
);
layerId = "60B24473-AF85-4843-BA5D-A0A691C0B2A6";
width = 195;
}
);
unicode = 003A;
},
{
color = 10;
glyphname = semicolon;
lastChange = "2019-05-14 15:12:52 +0000";
layers = (
{
background = {
paths = (
{
closed = 1;
nodes = (
"238 204 LINE",
"173 263 LINE",
"112 194 LINE",
"180 136 LINE"
);
}
);
};
components = (
{
name = period;
transform = "{1, 0, 0, 1, 32, 148}";
},
{
name = comma;
transform = "{1, 0, 0, 1, 20, 0}";
}
);
layerId = "60B24473-AF85-4843-BA5D-A0A691C0B2A6";
width = 239;
}
);
unicode = 003B;
},
{
color = 10;
glyphname = exclam;
lastChange = "2019-05-14 15:12:52 +0000";
layers = (
{
components = (
{
name = period;
}
);
layerId = "60B24473-AF85-4843-BA5D-A0A691C0B2A6";
paths = (
{
closed = 1;
nodes = (
"63 482 OFFCURVE",
"82 262 OFFCURVE",
"82 147 CURVE",
"113 147 LINE",
"113 262 OFFCURVE",
"130 482 OFFCURVE",
"150 710 CURVE",
"45 710 LINE"
);
}
);
width = 195;
}
);
unicode = 0021;
},
{
color = 10;
glyphname = question;
lastChange = "2019-05-14 15:12:52 +0000";
layers = (
{
components = (
{
name = period;
transform = "{1, 0, 0, 1, 73, 0}";
}
);
guideLines = (
{
position = "{101, 603}";
showMeasurement = 1;
},
{
angle = 50;
position = "{195, 131}";
}
);
layerId = "60B24473-AF85-4843-BA5D-A0A691C0B2A6";
paths = (
{
closed = 1;
nodes = (
"10 552 LINE",
"46 576 OFFCURVE",
"72 590 OFFCURVE",
"98 590 CURVE SMOOTH",
"129 590 OFFCURVE",
"174 574 OFFCURVE",
"174 502 CURVE SMOOTH",
"174 444 OFFCURVE",
"129 307 OFFCURVE",
"129 230 CURVE SMOOTH",
"129 163 OFFCURVE",
"181 135 OFFCURVE",
"195 135 CURVE",
"261 213 LINE",
"248 226 LINE",
"238 214 OFFCURVE",
"225 206 OFFCURVE",
"214 206 CURVE SMOOTH",
"197 206 OFFCURVE",
"179 231 OFFCURVE",
"179 269 CURVE SMOOTH",
"179 352 OFFCURVE",
"249 486 OFFCURVE",
"249 564 CURVE SMOOTH",
"249 662 OFFCURVE",
"193 703 OFFCURVE",
"121 710 CURVE",
"0 565 LINE"
);
}
);
width = 301;
}
);
unicode = 003F;
},
{
color = 10;
glyphname = hyphen;
lastChange = "2019-05-14 15:12:52 +0000";
layers = (
{
guideLines = (
{
angle = 50;
position = "{418, 309}";
}
);
layerId = "60B24473-AF85-4843-BA5D-A0A691C0B2A6";
paths = (
{
closed = 1;
nodes = (
"347 222 LINE",
"300 162 LINE",
"30 162 LINE",
"77 222 LINE"
);
}
);
width = 377;
}
);
unicode = 002D;
},
{
color = 10;
glyphname = parenleft;
lastChange = "2019-05-14 15:12:52 +0000";
layers = (
{
layerId = "60B24473-AF85-4843-BA5D-A0A691C0B2A6";
paths = (
{
closed = 1;
nodes = (
"159 50 OFFCURVE",
"244 -110 OFFCURVE",
"279 -145 CURVE",
"279 -205 LINE",
"243 -205 OFFCURVE",
"70 0 OFFCURVE",
"70 233 CURVE SMOOTH",
"70 502 OFFCURVE",
"152 591 OFFCURVE",
"236 710 CURVE",
"279 710 LINE",
"214 591 OFFCURVE",
"159 502 OFFCURVE",
"159 234 CURVE"
);
}
);
width = 279;
}
);
unicode = 0028;
},
{
color = 10;
glyphname = dieresis;
lastChange = "2019-05-14 15:12:52 +0000";
layers = (
{
layerId = "60B24473-AF85-4843-BA5D-A0A691C0B2A6";
paths = (
{
closed = 1;
nodes = (
"244 560 LINE",
"242 564 LINE",
"174 564 LINE",
"127 485 LINE",
"127 483 LINE",
"182 483 LINE"
);
},
{
closed = 1;
nodes = (
"374 560 LINE",
"372 564 LINE",
"304 564 LINE",
"257 485 LINE",
"257 483 LINE",
"312 483 LINE"
);
}
);
width = 500;
}
);
unicode = 00A8;
},
{
color = 10;
glyphname = quoteright;
lastChange = "2019-05-14 15:12:52 +0000";
layers = (
{
background = {
paths = (
{
closed = 1;
nodes = (
"257 700 LINE",
"224 700 LINE",
"72 515 LINE",
"126 467 LINE"
);
}
);
};
layerId = "60B24473-AF85-4843-BA5D-A0A691C0B2A6";
paths = (
{
closed = 1;
nodes = (
"159 439 LINE",
"163 439 LINE",
"215 500 LINE",
"215 504 LINE",
"169 544 LINE",
"257 700 LINE",
"224 700 LINE",
"72 515 LINE"
);
}
);
width = 329;
}
);
unicode = 2019;
},
{
color = 10;
glyphname = quotesinglbase;
lastChange = "2019-05-14 15:12:52 +0000";
layers = (
{
guideLines = (
{
angle = 50;
position = "{273, 51}";
},
{
angle = 130;
position = "{241, 38}";
},
{
angle = 130;
position = "{119, 38}";
}
);
layerId = "60B24473-AF85-4843-BA5D-A0A691C0B2A6";
paths = (
{
closed = 1;
nodes = (
"106 -152 LINE",
"251 26 LINE",
"174 118 LINE",
"116 41 LINE",
"170 -11 LINE",
"182 39 LINE",
"73 -152 LINE"
);
}
);
width = 331;
}
);
unicode = 201A;
},
{
color = 10;
export = 0;
glyphname = "_corner-bdc-court";
lastChange = "2019-05-14 15:12:52 +0000";
layers = (
{
layerId = "60B24473-AF85-4843-BA5D-A0A691C0B2A6";
paths = (
{
closed = 0;
nodes = (
"0 60 LINE SMOOTH",
"0 50 OFFCURVE",
"-10 30 OFFCURVE",
"-30 15 CURVE",
"-30 0 LINE",
"0 0 LINE"
);
}
);
width = 600;
}
);
},
{
color = 10;
export = 0;
glyphname = "_corner-bdc-long";
lastChange = "2019-05-14 15:12:52 +0000";
layers = (
{
layerId = "60B24473-AF85-4843-BA5D-A0A691C0B2A6";
paths = (
{
closed = 0;
nodes = (
"0 0 LINE",
"35 0 LINE",
"35 15 LINE",
"15 27 OFFCURVE",
"0 50 OFFCURVE",
"0 60 CURVE"
);
}
);
width = 600;
}
);
},
{
glyphname = mond;
lastChange = "2019-04-24 18:54:26 +0000";
layers = (
{
layerId = "60B24473-AF85-4843-BA5D-A0A691C0B2A6";
paths = (
{
closed = 1;
nodes = (
"98 623 OFFCURVE",
"69 566 OFFCURVE",
"56 488 CURVE SMOOTH",
"23 290 OFFCURVE",
"120 115 OFFCURVE",
"269 43 CURVE SMOOTH",
"364 -3 OFFCURVE",
"474 -14 OFFCURVE",
"577 10 CURVE SMOOTH",
"752 50 OFFCURVE",
"883 235 OFFCURVE",
"871 368 CURVE",
"855 364 LINE",
"855 245 OFFCURVE",
"737 125 OFFCURVE",
"617 90 CURVE SMOOTH",
"421 32 OFFCURVE",
"248 90 OFFCURVE",
"135 263 CURVE SMOOTH",
"61 377 OFFCURVE",
"78 546 OFFCURVE",
"161 685 CURVE",
"164 691 OFFCURVE",
"152 698 OFFCURVE",
"147 690 CURVE"
);
}
);
width = 922;
}
);
},
{
glyphname = kopf;
lastChange = "2019-05-23 18:04:50 +0000";
layers = (
{
backgroundImage = {
crop = "{{0, 0}, {692, 608}}";
imagePath = "Kopf Signet.jpg";
locked = "1";
transform = "{1.355, 0, 0, 1.355, -155, -171}";
};
layerId = "60B24473-AF85-4843-BA5D-A0A691C0B2A6";
paths = (
{
closed = 1;
nodes = (
"617 -13 OFFCURVE",
"773 142 OFFCURVE",
"766 348 CURVE SMOOTH",
"759 563 OFFCURVE",
"572 700 OFFCURVE",
"406 700 CURVE SMOOTH",
"209 700 OFFCURVE",
"50 552 OFFCURVE",
"50 348 CURVE SMOOTH",
"50 150 OFFCURVE",
"209 -2 OFFCURVE",
"406 -7 CURVE SMOOTH"
);
},
{
closed = 1;
nodes = (
"177 99 OFFCURVE",
"145 138 OFFCURVE",
"123 176 CURVE",
"141 255 OFFCURVE",
"158 335 OFFCURVE",
"177 414 CURVE",
"202 304 OFFCURVE",
"220 199 OFFCURVE",
"239 93 CURVE",
"230 90 OFFCURVE",
"222 86 OFFCURVE",
"213 82 CURVE"
);
},
{
closed = 1;
nodes = (
"208 345 LINE",
"236 316 LINE",
"233 203 LINE"
);
},
{
closed = 1;
nodes = (
"251 111 OFFCURVE",
"244 132 OFFCURVE",
"244 149 CURVE SMOOTH",
"244 188 OFFCURVE",
"251 276 OFFCURVE",
"251 284 CURVE SMOOTH",
"251 290 OFFCURVE",
"252 295 OFFCURVE",
"259 295 CURVE SMOOTH",
"263 295 OFFCURVE",
"272 284 OFFCURVE",
"289 269 CURVE",
"317 242 OFFCURVE",
"356 212 OFFCURVE",
"393 180 CURVE SMOOTH",
"420 160 OFFCURVE",
"446 142 OFFCURVE",
"466 122 CURVE",
"364 124 OFFCURVE",
"304 111 OFFCURVE",
"254 97 CURVE"
);
},
{
closed = 1;
nodes = (
"219 369 LINE",
"261 390 LINE",
"243 340 LINE"
);
},
{
closed = 1;
nodes = (
"533 121 OFFCURVE",
"513 121 OFFCURVE",
"494 122 CURVE",
"442 166 OFFCURVE",
"396 202 OFFCURVE",
"339 249 CURVE",
"353 248 OFFCURVE",
"361 251 OFFCURVE",
"371 259 CURVE SMOOTH",
"377 266 OFFCURVE",
"364 274 OFFCURVE",
"360 271 CURVE SMOOTH",
"350 266 OFFCURVE",
"339 261 OFFCURVE",
"329 266 CURVE SMOOTH",
"318 270 OFFCURVE",
"307 281 OFFCURVE",
"293 295 CURVE SMOOTH",
"273 316 OFFCURVE",
"266 323 OFFCURVE",
"262 335 CURVE",
"268 361 OFFCURVE",
"287 389 OFFCURVE",
"298 413 CURVE",
"337 421 OFFCURVE",
"357 432 OFFCURVE",
"406 436 CURVE SMOOTH",
"452 440 OFFCURVE",
"462 439 OFFCURVE",
"501 436 CURVE SMOOTH",
"538 433 OFFCURVE",
"572 426 OFFCURVE",
"584 420 CURVE SMOOTH",
"591 417 OFFCURVE",
"597 416 OFFCURVE",
"597 410 CURVE SMOOTH",
"597 404 OFFCURVE",
"594 401 OFFCURVE",
"590 400 CURVE SMOOTH",
"581 397 OFFCURVE",
"559 407 OFFCURVE",
"548 410 CURVE SMOOTH",
"522 416 OFFCURVE",
"480 421 OFFCURVE",
"477 418 CURVE",
"477 414 OFFCURVE",
"510 403 OFFCURVE",
"533 390 CURVE SMOOTH",
"548 382 OFFCURVE",
"561 369 OFFCURVE",
"570 369 CURVE SMOOTH",
"579 369 OFFCURVE",
"581 373 OFFCURVE",
"590 383 CURVE SMOOTH",
"598 393 OFFCURVE",
"603 400 OFFCURVE",
"607 404 CURVE SMOOTH",
"611 409 OFFCURVE",
"617 420 OFFCURVE",
"608 424 CURVE SMOOTH",
"600 426 OFFCURVE",
"537 442 OFFCURVE",
"512 446 CURVE SMOOTH",
"501 447 OFFCURVE",
"483 449 OFFCURVE",
"472 452 CURVE",
"621 492 LINE",
"628 467 OFFCURVE",
"632 429 OFFCURVE",
"629 413 CURVE",
"626 404 OFFCURVE",
"621 401 OFFCURVE",
"615 393 CURVE",
"615 348 OFFCURVE",
"615 301 OFFCURVE",
"615 256 CURVE",
"604 256 OFFCURVE",
"583 266 OFFCURVE",
"580 266 CURVE",
"577 261 OFFCURVE",
"577 258 OFFCURVE",
"577 254 CURVE",
"580 251 OFFCURVE",
"584 251 OFFCURVE",
"587 249 CURVE",
"580 221 OFFCURVE",
"561 160 OFFCURVE",
"552 118 CURVE"
);
},
{
closed = 1;
nodes = (
"158 506 OFFCURVE",
"247 666 OFFCURVE",
"411 658 CURVE SMOOTH",
"572 651 OFFCURVE",
"603 569 OFFCURVE",
"617 509 CURVE",
"557 494 OFFCURVE",
"495 477 OFFCURVE",
"435 468 CURVE",
"400 452 OFFCURVE",
"365 443 OFFCURVE",
"326 435 CURVE",
"283 418 OFFCURVE",
"240 401 OFFCURVE",
"198 385 CURVE"
);
},
{
closed = 1;
nodes = (
"249 85 OFFCURVE",
"357 107 OFFCURVE",
"414 107 CURVE",
"495 107 OFFCURVE",
"558 104 OFFCURVE",
"624 88 CURVE",
"555 30 OFFCURVE",
"492 19 OFFCURVE",
"406 19 CURVE SMOOTH",
"340 19 OFFCURVE",
"277 34 OFFCURVE",
"227 68 CURVE"
);
}
);
width = 816;
}
);
},
{
glyphname = koenigspaar;
lastChange = "2019-05-23 18:04:50 +0000";
layers = (
{
layerId = "60B24473-AF85-4843-BA5D-A0A691C0B2A6";
paths = (
{
closed = 1;
nodes = (
"211 -8 OFFCURVE",
"50 145 OFFCURVE",
"50 354 CURVE SMOOTH",
"50 562 OFFCURVE",
"222 713 OFFCURVE",
"411 713 CURVE SMOOTH",
"601 713 OFFCURVE",
"780 548 OFFCURVE",
"780 351 CURVE SMOOTH",
"780 124 OFFCURVE",
"610 -8 OFFCURVE",
"411 -8 CURVE SMOOTH"
);
},
{
closed = 1;
nodes = (
"602 7 OFFCURVE",
"766 133 OFFCURVE",
"766 351 CURVE SMOOTH",
"766 539 OFFCURVE",
"593 699 OFFCURVE",
"411 699 CURVE SMOOTH",
"230 699 OFFCURVE",
"66 553 OFFCURVE",
"66 354 CURVE SMOOTH",
"66 153 OFFCURVE",
"221 7 OFFCURVE",
"411 7 CURVE SMOOTH"
);
},
{
closed = 1;
nodes = (
"111 521 LINE",
"112 521 OFFCURVE",
"116 524 OFFCURVE",
"117 522 CURVE SMOOTH",
"118 521 OFFCURVE",
"115 517 OFFCURVE",
"111 515 CURVE SMOOTH",
"98 506 LINE",
"102 514 LINE"
);
},
{
closed = 1;
nodes = (
"92 481 OFFCURVE",
"98 489 OFFCURVE",
"107 495 CURVE",
"107 496 OFFCURVE",
"111 498 OFFCURVE",
"112 497 CURVE SMOOTH",
"113 495 OFFCURVE",
"111 494 OFFCURVE",
"107 489 CURVE",
"96 479 OFFCURVE",
"86 467 OFFCURVE",
"78 453 CURVE",
"85 471 LINE"
);
},
{
closed = 1;
nodes = (
"93 493 OFFCURVE",
"100 499 OFFCURVE",
"107 508 CURVE SMOOTH",
"109 509 OFFCURVE",
"112 511 OFFCURVE",
"113 510 CURVE SMOOTH",
"114 508 OFFCURVE",
"107 501 OFFCURVE",
"102 497 CURVE",
"91 485 OFFCURVE",
"87 480 OFFCURVE",
"79 465 CURVE",
"86 483 LINE"
);
},
{
closed = 1;
nodes = (
"82 456 OFFCURVE",
"98 477 OFFCURVE",
"107 484 CURVE SMOOTH",
"107 485 OFFCURVE",
"111 488 OFFCURVE",
"112 486 CURVE SMOOTH",
"113 484 OFFCURVE",
"111 483 OFFCURVE",
"107 479 CURVE",
"94 467 OFFCURVE",
"77 441 OFFCURVE",
"68 427 CURVE",
"74 444 LINE"
);
},
{
closed = 1;
nodes = (
"77 433 OFFCURVE",
"96 464 OFFCURVE",
"107 472 CURVE",
"107 473 OFFCURVE",
"111 476 OFFCURVE",
"112 474 CURVE SMOOTH",
"113 472 OFFCURVE",
"111 472 OFFCURVE",
"107 467 CURVE SMOOTH",
"94 455 OFFCURVE",
"77 425 OFFCURVE",
"68 410 CURVE",
"71 424 LINE"
);
},
{
closed = 1;
nodes = (
"72 412 OFFCURVE",
"94 452 OFFCURVE",
"107 461 CURVE",
"107 461 OFFCURVE",
"111 464 OFFCURVE",
"112 463 CURVE SMOOTH",
"113 461 OFFCURVE",
"111 460 OFFCURVE",
"107 455 CURVE SMOOTH",
"94 443 OFFCURVE",
"74 409 OFFCURVE",
"67 394 CURVE",
"67 402 LINE"
);
},
{
closed = 1;
nodes = (
"70 398 OFFCURVE",
"92 437 OFFCURVE",
"107 447 CURVE",
"107 448 OFFCURVE",
"111 452 OFFCURVE",
"112 448 CURVE SMOOTH",
"113 447 OFFCURVE",
"111 444 OFFCURVE",
"107 441 CURVE",
"90 431 OFFCURVE",
"72 389 OFFCURVE",
"66 375 CURVE",
"66 387 LINE"
);
},
{
closed = 1;
nodes = (
"67 379 OFFCURVE",
"94 422 OFFCURVE",
"107 435 CURVE SMOOTH",
"107 435 OFFCURVE",
"111 437 OFFCURVE",
"112 436 CURVE SMOOTH",
"113 435 OFFCURVE",
"111 432 OFFCURVE",
"107 428 CURVE SMOOTH",
"91 417 OFFCURVE",
"70 368 OFFCURVE",
"65 353 CURVE",
"65 365 LINE"
);
},
{
closed = 1;
nodes = (
"67 364 OFFCURVE",
"93 412 OFFCURVE",
"107 422 CURVE",
"107 424 OFFCURVE",
"111 426 OFFCURVE",
"112 424 CURVE SMOOTH",
"113 422 OFFCURVE",
"111 421 OFFCURVE",
"107 417 CURVE SMOOTH",
"93 404 OFFCURVE",
"70 353 OFFCURVE",
"65 335 CURVE",
"65 347 LINE"
);
},
{
closed = 1;
nodes = (
"67 347 OFFCURVE",
"94 395 OFFCURVE",
"107 408 CURVE SMOOTH",
"107 408 OFFCURVE",
"111 412 OFFCURVE",
"112 409 CURVE SMOOTH",
"113 408 OFFCURVE",
"111 407 OFFCURVE",
"107 402 CURVE SMOOTH",
"93 389 OFFCURVE",
"70 335 OFFCURVE",
"65 316 CURVE",
"65 329 LINE"
);
},
{
closed = 1;
nodes = (
"67 329 OFFCURVE",
"94 381 OFFCURVE",
"107 393 CURVE SMOOTH",
"107 394 OFFCURVE",
"111 398 OFFCURVE",
"112 395 CURVE SMOOTH",
"113 393 OFFCURVE",
"111 392 OFFCURVE",
"107 388 CURVE SMOOTH",
"93 375 OFFCURVE",
"70 318 OFFCURVE",
"65 299 CURVE",
"65 311 LINE"
);
},
{
closed = 1;
nodes = (
"67 311 OFFCURVE",
"96 369 OFFCURVE",
"109 380 CURVE SMOOTH",
"110 381 OFFCURVE",
"113 384 OFFCURVE",
"114 382 CURVE SMOOTH",
"115 380 OFFCURVE",
"113 380 OFFCURVE",
"109 375 CURVE SMOOTH",
"94 362 OFFCURVE",
"70 300 OFFCURVE",
"65 281 CURVE",
"65 295 LINE"
);
},
{
closed = 1;
nodes = (
"67 295 OFFCURVE",
"96 355 OFFCURVE",
"109 367 CURVE SMOOTH",
"110 368 OFFCURVE",
"113 371 OFFCURVE",
"114 369 CURVE SMOOTH",
"115 367 OFFCURVE",
"113 366 OFFCURVE",
"109 362 CURVE SMOOTH",
"94 348 OFFCURVE",
"70 283 OFFCURVE",
"65 265 CURVE",
"65 277 LINE"
);
},
{
closed = 1;
nodes = (
"110 241 OFFCURVE",
"120 241 OFFCURVE",
"120 245 CURVE",
"121 264 LINE",
"122 274 OFFCURVE",
"98 279 OFFCURVE",
"98 264 CURVE SMOOTH",
"97 244 LINE",
"93 242 LINE",
"119 211 LINE",
"129 237 LINE",
"102 236 LINE",
"101 241 LINE"
);
},
{
closed = 1;
nodes = (
"141 250 OFFCURVE",
"143 249 OFFCURVE",
"140 245 CURVE",
"137 240 OFFCURVE",
"128 225 OFFCURVE",
"130 218 CURVE SMOOTH",
"132 213 OFFCURVE",
"141 213 OFFCURVE",
"145 214 CURVE SMOOTH",
"177 230 LINE SMOOTH",
"184 234 OFFCURVE",
"174 248 OFFCURVE",
"168 246 CURVE SMOOTH",
"164 244 OFFCURVE",
"152 246 OFFCURVE",
"151 248 CURVE",
"149 253 LINE",
"153 253 LINE SMOOTH",
"165 253 OFFCURVE",
"167 254 OFFCURVE",
"167 264 CURVE SMOOTH",
"167 289 OFFCURVE",
"141 276 OFFCURVE",
"141 265 CURVE SMOOTH",
"141 253 LINE SMOOTH"
);
},
{
closed = 1;
nodes = (
"183 161 LINE",
"187 160 LINE",
"184 285 LINE",
"183 285 LINE"
);
},
{
closed = 1;
nodes = (
"177 146 LINE",
"180 146 LINE",
"176 221 LINE",
"174 221 LINE"
);
},
{
closed = 1;
nodes = (
"168 143 LINE SMOOTH",
"168 119 OFFCURVE",
"164 124 OFFCURVE",
"156 132 CURVE SMOOTH",
"151 138 OFFCURVE",
"142 153 OFFCURVE",
"143 168 CURVE",
"140 168 LINE",
"139 152 OFFCURVE",
"148 138 OFFCURVE",
"155 129 CURVE SMOOTH",
"167 116 OFFCURVE",
"171 131 OFFCURVE",
"171 133 CURVE SMOOTH",
"171 211 LINE",
"168 211 LINE"
);
},
{
closed = 1;
nodes = (
"82 240 LINE",
"86 239 OFFCURVE",
"87 241 OFFCURVE",
"89 242 CURVE SMOOTH",
"90 244 OFFCURVE",
"89 248 OFFCURVE",
"86 253 CURVE SMOOTH",
"85 259 OFFCURVE",
"82 259 OFFCURVE",
"79 261 CURVE SMOOTH",
"75 262 OFFCURVE",
"77 260 OFFCURVE",
"75 260 CURVE"
);
},
{
closed = 1;
nodes = (
"107 214 LINE",
"101 221 OFFCURVE",
"93 234 OFFCURVE",
"90 234 CURVE SMOOTH",
"87 234 OFFCURVE",
"84 236 OFFCURVE",
"84 234 CURVE",
"107 209 LINE"
);
},
{
closed = 1;
nodes = (
"183 113 LINE",
"179 112 OFFCURVE",
"172 113 OFFCURVE",
"172 107 CURVE SMOOTH",
"172 101 OFFCURVE",
"172 97 OFFCURVE",
"176 97 CURVE SMOOTH",
"181 97 OFFCURVE",
"187 97 OFFCURVE",
"191 97 CURVE",
"191 99 LINE",
"188 99 LINE",
"187 99 LINE SMOOTH",
"183 99 OFFCURVE",
"175 97 OFFCURVE",
"175 106 CURVE SMOOTH",
"175 108 OFFCURVE",
"175 111 OFFCURVE",
"183 111 CURVE"
);
},
{
closed = 1;
nodes = (
"102 198 OFFCURVE",
"105 196 OFFCURVE",
"107 198 CURVE SMOOTH",
"113 202 LINE SMOOTH",
"115 203 OFFCURVE",
"113 205 OFFCURVE",
"111 203 CURVE SMOOTH",
"104 198 LINE SMOOTH"
);
},
{
closed = 1;
nodes = (
"101 202 OFFCURVE",
"102 201 OFFCURVE",
"104 202 CURVE SMOOTH",
"111 205 LINE SMOOTH",
"112 206 OFFCURVE",
"111 207 OFFCURVE",
"109 206 CURVE SMOOTH",
"102 202 LINE SMOOTH"
);
},
{
closed = 1;
nodes = (
"119 163 LINE",
"121 166 OFFCURVE",
"130 190 OFFCURVE",
"131 194 CURVE SMOOTH",
"132 198 OFFCURVE",
"128 196 OFFCURVE",
"128 194 CURVE SMOOTH",
"128 190 OFFCURVE",
"121 175 OFFCURVE",
"118 166 CURVE"
);
},
{
closed = 1;
nodes = (
"151 210 OFFCURVE",
"155 210 OFFCURVE",
"152 210 CURVE SMOOTH",
"148 210 OFFCURVE",
"138 210 OFFCURVE",
"136 210 CURVE SMOOTH",
"134 209 OFFCURVE",
"131 207 OFFCURVE",
"132 203 CURVE SMOOTH",
"133 199 OFFCURVE",
"136 198 OFFCURVE",
"138 198 CURVE SMOOTH",
"139 198 OFFCURVE",
"140 198 OFFCURVE",
"143 201 CURVE SMOOTH",
"146 205 OFFCURVE",
"147 207 OFFCURVE",
"144 206 CURVE SMOOTH",
"140 206 OFFCURVE",
"138 205 OFFCURVE",
"138 206 CURVE SMOOTH",
"137 206 OFFCURVE",
"136 206 OFFCURVE",
"138 207 CURVE SMOOTH",
"141 208 OFFCURVE",
"143 208 OFFCURVE",
"146 208 CURVE SMOOTH",
"148 208 OFFCURVE",
"151 208 OFFCURVE",
"151 209 CURVE"
);
},
{
closed = 1;
nodes = (
"192 295 LINE",
"188 295 OFFCURVE",
"191 284 OFFCURVE",
"191 282 CURVE SMOOTH",
"191 280 OFFCURVE",
"192 269 OFFCURVE",
"196 262 CURVE SMOOTH",
"200 256 OFFCURVE",
"208 236 OFFCURVE",
"213 232 CURVE SMOOTH",
"219 228 OFFCURVE",
"221 218 OFFCURVE",
"224 210 CURVE SMOOTH",
"228 199 OFFCURVE",
"229 190 OFFCURVE",
"230 205 CURVE SMOOTH",
"231 222 LINE SMOOTH",
"231 226 OFFCURVE",
"237 226 OFFCURVE",
"237 224 CURVE SMOOTH",
"239 190 LINE SMOOTH",
"241 167 OFFCURVE",
"251 144 OFFCURVE",
"251 169 CURVE SMOOTH",
"251 196 LINE",
"256 188 LINE",
"256 144 LINE SMOOTH",
"256 133 OFFCURVE",
"273 120 OFFCURVE",
"273 135 CURVE SMOOTH",
"273 148 LINE SMOOTH",
"273 153 OFFCURVE",
"277 150 OFFCURVE",
"277 148 CURVE SMOOTH",
"278 146 OFFCURVE",
"278 132 OFFCURVE",
"278 119 CURVE SMOOTH",
"278 108 OFFCURVE",
"296 97 OFFCURVE",
"296 118 CURVE SMOOTH",
"296 162 LINE SMOOTH",
"296 170 OFFCURVE",
"298 174 OFFCURVE",
"298 182 CURVE SMOOTH",
"298 283 OFFCURVE",
"297 293 OFFCURVE",
"297 293 CURVE SMOOTH",
"297 299 OFFCURVE",
"301 305 OFFCURVE",
"305 311 CURVE SMOOTH",
"308 318 OFFCURVE",
"305 322 OFFCURVE",
"301 322 CURVE SMOOTH",
"188 322 LINE SMOOTH",
"181 322 OFFCURVE",
"177 315 OFFCURVE",
"187 314 CURVE SMOOTH",
"194 312 OFFCURVE",
"227 314 OFFCURVE",
"245 312 CURVE",
"238 307 LINE",
"192 307 LINE SMOOTH",
"183 307 OFFCURVE",
"186 301 OFFCURVE",
"191 300 CURVE SMOOTH",
"195 299 OFFCURVE",
"213 299 OFFCURVE",
"226 299 CURVE",
"220 293 LINE"
);
},
{
closed = 1;
nodes = (
"307 96 LINE",
"362 96 LINE SMOOTH",
"380 96 OFFCURVE",
"398 112 OFFCURVE",
"364 112 CURVE SMOOTH",
"328 113 LINE",
"328 116 LINE",
"398 119 LINE SMOOTH",
"418 120 OFFCURVE",
"438 133 OFFCURVE",
"399 133 CURVE SMOOTH",
"342 134 LINE",
"355 139 LINE",
"440 141 LINE SMOOTH",
"465 143 OFFCURVE",
"463 157 OFFCURVE",
"439 157 CURVE SMOOTH",
"364 157 LINE",
"375 162 LINE",
"471 168 LINE SMOOTH",
"492 169 OFFCURVE",
"495 175 OFFCURVE",
"495 177 CURVE SMOOTH",
"495 179 OFFCURVE",
"426 177 OFFCURVE",
"402 177 CURVE SMOOTH",
"378 177 OFFCURVE",
"398 184 OFFCURVE",
"406 184 CURVE SMOOTH",
"413 184 OFFCURVE",
"465 186 OFFCURVE",
"478 186 CURVE SMOOTH",
"493 187 OFFCURVE",
"483 198 OFFCURVE",
"481 198 CURVE SMOOTH",
"438 198 LINE",
"432 191 OFFCURVE",
"414 194 OFFCURVE",
"410 198 CURVE",
"402 196 OFFCURVE",
"343 198 OFFCURVE",
"309 198 CURVE"
);
},
{
closed = 1;
nodes = (
"307 82 OFFCURVE",
"297 78 OFFCURVE",
"307 77 CURVE SMOOTH",
"311 75 OFFCURVE",
"324 77 OFFCURVE",
"332 77 CURVE",
"320 72 LINE SMOOTH",
"315 69 OFFCURVE",
"301 70 OFFCURVE",
"290 70 CURVE",
"305 64 LINE SMOOTH",
"328 56 OFFCURVE",
"335 77 OFFCURVE",
"345 82 CURVE",
"311 82 LINE"
);
},
{
closed = 1;
nodes = (
"293 362 OFFCURVE",
"289 327 OFFCURVE",
"294 326 CURVE SMOOTH",
"303 325 OFFCURVE",
"311 327 OFFCURVE",
"312 326 CURVE SMOOTH",
"312 325 OFFCURVE",
"320 315 OFFCURVE",
"323 315 CURVE SMOOTH",
"325 315 OFFCURVE",
"329 330 OFFCURVE",
"329 338 CURVE SMOOTH",
"332 347 OFFCURVE",
"335 361 OFFCURVE",
"337 364 CURVE SMOOTH",
"340 368 OFFCURVE",
"347 380 OFFCURVE",
"347 382 CURVE SMOOTH",
"348 385 OFFCURVE",
"346 393 OFFCURVE",
"346 397 CURVE SMOOTH",
"346 400 OFFCURVE",
"347 405 OFFCURVE",
"347 408 CURVE SMOOTH",
"347 409 OFFCURVE",
"345 410 OFFCURVE",
"344 412 CURVE SMOOTH",
"343 414 OFFCURVE",
"341 421 OFFCURVE",
"342 422 CURVE SMOOTH",
"343 424 OFFCURVE",
"374 424 OFFCURVE",
"375 422 CURVE SMOOTH",
"378 420 OFFCURVE",
"373 413 OFFCURVE",
"372 412 CURVE SMOOTH",
"371 409 OFFCURVE",
"374 391 OFFCURVE",
"374 389 CURVE SMOOTH",
"374 388 OFFCURVE",
"375 386 OFFCURVE",
"378 386 CURVE SMOOTH",
"380 386 OFFCURVE",
"382 386 OFFCURVE",
"383 388 CURVE SMOOTH",
"384 389 OFFCURVE",
"394 412 OFFCURVE",
"395 413 CURVE SMOOTH",
"398 416 OFFCURVE",
"409 427 OFFCURVE",
"410 431 CURVE SMOOTH",
"410 433 OFFCURVE",
"413 439 OFFCURVE",
"418 441 CURVE SMOOTH",
"426 446 OFFCURVE",
"439 444 OFFCURVE",
"445 440 CURVE SMOOTH",
"448 436 OFFCURVE",
"448 424 OFFCURVE",
"446 420 CURVE SMOOTH",
"442 417 OFFCURVE",
"433 408 OFFCURVE",
"432 405 CURVE SMOOTH",
"431 402 OFFCURVE",
"432 389 OFFCURVE",
"435 388 CURVE SMOOTH",
"438 386 OFFCURVE",
"460 388 OFFCURVE",
"462 386 CURVE SMOOTH",
"464 384 OFFCURVE",
"466 377 OFFCURVE",
"467 375 CURVE SMOOTH",
"469 373 OFFCURVE",
"478 374 OFFCURVE",
"482 379 CURVE SMOOTH",
"486 383 OFFCURVE",
"490 392 OFFCURVE",
"490 394 CURVE SMOOTH",
"490 397 OFFCURVE",
"471 398 OFFCURVE",
"470 397 CURVE SMOOTH",
"469 395 OFFCURVE",
"460 390 OFFCURVE",
"460 394 CURVE SMOOTH",
"460 399 OFFCURVE",
"458 405 OFFCURVE",
"457 408 CURVE SMOOTH",
"457 410 OFFCURVE",
"454 414 OFFCURVE",
"457 414 CURVE SMOOTH",
"457 414 OFFCURVE",
"464 414 OFFCURVE",
"467 414 CURVE SMOOTH",
"469 414 OFFCURVE",
"470 414 OFFCURVE",
"471 414 CURVE SMOOTH",
"473 414 OFFCURVE",
"477 424 OFFCURVE",
"479 427 CURVE SMOOTH",
"481 431 OFFCURVE",
"489 436 OFFCURVE",
"492 437 CURVE SMOOTH",
"494 439 OFFCURVE",
"499 440 OFFCURVE",
"500 439 CURVE SMOOTH",
"503 436 OFFCURVE",
"515 418 OFFCURVE",
"516 416 CURVE SMOOTH",
"518 413 OFFCURVE",
"514 400 OFFCURVE",
"509 397 CURVE SMOOTH",
"504 392 OFFCURVE",
"511 379 OFFCURVE",
"519 372 CURVE SMOOTH",
"522 369 OFFCURVE",
"530 352 OFFCURVE",
"531 348 CURVE SMOOTH",
"534 343 OFFCURVE",
"535 335 OFFCURVE",
"535 334 CURVE",
"539 334 LINE",
"540 368 OFFCURVE",
"530 417 OFFCURVE",
"503 440 CURVE SMOOTH",
"473 463 OFFCURVE",
"446 468 OFFCURVE",
"426 468 CURVE SMOOTH",
"406 468 OFFCURVE",
"390 463 OFFCURVE",
"388 463 CURVE SMOOTH",
"387 463 OFFCURVE",
"382 453 OFFCURVE",
"380 453 CURVE SMOOTH",
"379 453 OFFCURVE",
"375 453 OFFCURVE",
"374 453 CURVE",
"369 457 LINE",
"361 453 OFFCURVE",
"349 452 OFFCURVE",
"345 444 CURVE SMOOTH",
"340 440 OFFCURVE",
"338 435 OFFCURVE",
"337 433 CURVE SMOOTH",
"335 432 OFFCURVE",
"329 435 OFFCURVE",
"329 435 CURVE SMOOTH",
"329 433 OFFCURVE",
"312 416 OFFCURVE",
"307 400 CURVE SMOOTH",
"301 385 OFFCURVE",
"298 378 OFFCURVE",
"297 371 CURVE SMOOTH"
);
},
{
closed = 1;
nodes = (
"476 403 LINE SMOOTH",
"476 401 OFFCURVE",
"479 401 OFFCURVE",
"479 403 CURVE SMOOTH",
"479 416 LINE SMOOTH",
"479 417 OFFCURVE",
"476 417 OFFCURVE",
"476 416 CURVE SMOOTH"
);
},
{
closed = 1;
nodes = (
"482 402 LINE SMOOTH",
"481 400 OFFCURVE",
"485 400 OFFCURVE",
"485 401 CURVE SMOOTH",
"489 414 LINE SMOOTH",
"490 416 OFFCURVE",
"487 417 OFFCURVE",
"486 416 CURVE SMOOTH"
);
},
{
closed = 1;
nodes = (
"467 414 LINE",
"471 402 LINE SMOOTH",
"472 400 OFFCURVE",
"475 401 OFFCURVE",
"474 403 CURVE SMOOTH",
"470 414 LINE"
);
},
{
closed = 1;
nodes = (
"488 401 LINE SMOOTH",
"487 400 OFFCURVE",
"490 398 OFFCURVE",
"491 400 CURVE SMOOTH",
"496 412 LINE SMOOTH",
"497 412 OFFCURVE",
"495 414 OFFCURVE",
"494 412 CURVE SMOOTH"
);
},
{
closed = 1;
nodes = (
"490 374 OFFCURVE",
"494 360 OFFCURVE",
"494 359 CURVE SMOOTH",
"494 354 OFFCURVE",
"495 347 OFFCURVE",
"501 347 CURVE SMOOTH",
"514 347 OFFCURVE",
"519 343 OFFCURVE",
"511 343 CURVE SMOOTH",
"511 343 OFFCURVE",
"503 343 OFFCURVE",
"499 339 CURVE SMOOTH",
"495 338 OFFCURVE",
"487 327 OFFCURVE",
"486 323 CURVE SMOOTH",
"485 318 OFFCURVE",
"485 308 OFFCURVE",
"485 307 CURVE SMOOTH",
"486 303 OFFCURVE",
"488 307 OFFCURVE",
"487 308 CURVE SMOOTH",
"486 311 OFFCURVE",
"489 314 OFFCURVE",
"489 316 CURVE SMOOTH",
"489 320 OFFCURVE",
"494 327 OFFCURVE",
"497 329 CURVE SMOOTH",
"501 331 OFFCURVE",
"518 331 OFFCURVE",
"523 331 CURVE SMOOTH",
"530 331 OFFCURVE",
"528 335 OFFCURVE",
"526 337 CURVE SMOOTH",
"523 339 OFFCURVE",
"519 347 OFFCURVE",
"515 356 CURVE SMOOTH",
"511 365 OFFCURVE",
"500 378 OFFCURVE",
"493 375 CURVE SMOOTH"
);
},
{
closed = 1;
nodes = (
"285 330 OFFCURVE",
"285 334 OFFCURVE",
"286 341 CURVE SMOOTH",
"288 348 OFFCURVE",
"289 365 OFFCURVE",
"290 368 CURVE SMOOTH",
"292 371 OFFCURVE",
"293 382 OFFCURVE",
"294 383 CURVE SMOOTH",
"297 384 OFFCURVE",
"298 386 OFFCURVE",
"297 387 CURVE SMOOTH",
"297 388 OFFCURVE",
"293 386 OFFCURVE",
"290 383 CURVE SMOOTH",
"288 380 OFFCURVE",
"265 351 OFFCURVE",
"263 346 CURVE SMOOTH",
"260 341 OFFCURVE",
"257 335 OFFCURVE",
"256 332 CURVE SMOOTH",
"256 331 OFFCURVE",
"257 330 OFFCURVE",
"259 327 CURVE SMOOTH",
"261 326 OFFCURVE",
"261 327 OFFCURVE",
"261 327 CURVE SMOOTH",
"261 329 OFFCURVE",
"258 331 OFFCURVE",
"258 332 CURVE SMOOTH",
"258 334 OFFCURVE",
"262 339 OFFCURVE",
"263 339 CURVE",
"274 335 LINE SMOOTH"
);
},
{
closed = 1;
nodes = (
"372 463 OFFCURVE",
"373 457 OFFCURVE",
"378 457 CURVE SMOOTH",
"382 457 OFFCURVE",
"387 464 OFFCURVE",
"387 467 CURVE SMOOTH",
"387 470 OFFCURVE",
"387 472 OFFCURVE",
"384 472 CURVE SMOOTH",
"371 472 LINE SMOOTH",
"368 472 OFFCURVE",
"366 471 OFFCURVE",
"368 468 CURVE"
);
},
{
closed = 1;
nodes = (
"379 467 LINE SMOOTH",
"382 467 OFFCURVE",
"382 465 OFFCURVE",
"379 465 CURVE SMOOTH",
"378 465 OFFCURVE",
"378 465 OFFCURVE",
"378 465 CURVE SMOOTH",
"375 465 OFFCURVE",
"375 467 OFFCURVE",
"378 467 CURVE"
);
},
{
closed = 1;
nodes = (
"387 469 LINE SMOOTH",
"390 469 OFFCURVE",
"390 467 OFFCURVE",
"387 467 CURVE SMOOTH",
"386 467 OFFCURVE",
"386 467 OFFCURVE",
"386 467 CURVE SMOOTH",
"384 467 OFFCURVE",
"384 469 OFFCURVE",
"386 469 CURVE"
);
},
{
closed = 1;
nodes = (
"339 446 OFFCURVE",
"342 448 OFFCURVE",
"338 448 CURVE SMOOTH",
"335 448 OFFCURVE",
"335 446 OFFCURVE",
"333 447 CURVE SMOOTH",
"331 448 OFFCURVE",
"320 464 OFFCURVE",
"320 465 CURVE SMOOTH",
"320 466 OFFCURVE",
"324 471 OFFCURVE",
"327 471 CURVE SMOOTH",
"329 471 OFFCURVE",
"345 471 OFFCURVE",
"347 471 CURVE SMOOTH",
"350 471 OFFCURVE",
"356 475 OFFCURVE",
"349 474 CURVE SMOOTH",
"343 473 OFFCURVE",
"333 472 OFFCURVE",
"329 473 CURVE SMOOTH",
"325 474 OFFCURVE",
"316 475 OFFCURVE",
"315 475 CURVE SMOOTH",
"313 475 OFFCURVE",
"311 475 OFFCURVE",
"312 472 CURVE",
"331 444 LINE",
"333 444 OFFCURVE",
"337 444 OFFCURVE",
"339 444 CURVE"
);
},
{
closed = 1;
nodes = (
"402 487 OFFCURVE",
"397 486 OFFCURVE",
"402 485 CURVE SMOOTH",
"407 484 OFFCURVE",
"418 485 OFFCURVE",
"420 486 CURVE SMOOTH",
"422 487 OFFCURVE",
"429 487 OFFCURVE",
"433 487 CURVE SMOOTH",
"437 487 OFFCURVE",
"441 485 OFFCURVE",
"446 486 CURVE SMOOTH",
"450 487 OFFCURVE",
"453 489 OFFCURVE",
"457 489 CURVE SMOOTH",
"491 490 LINE SMOOTH",
"492 490 OFFCURVE",
"499 492 OFFCURVE",
"491 492 CURVE SMOOTH",
"483 492 OFFCURVE",
"461 491 OFFCURVE",
"460 491 CURVE SMOOTH",
"459 491 OFFCURVE",
"446 488 OFFCURVE",
"446 488 CURVE SMOOTH",
"442 488 OFFCURVE",
"437 489 OFFCURVE",
"434 489 CURVE SMOOTH",
"433 489 OFFCURVE",
"418 488 OFFCURVE",
"417 487 CURVE SMOOTH",
"414 486 OFFCURVE",
"402 487 OFFCURVE",
"402 488 CURVE"
);
},
{
closed = 1;
nodes = (
"349 416 OFFCURVE",
"350 416 OFFCURVE",
"350 417 CURVE SMOOTH",
"350 417 OFFCURVE",
"349 418 OFFCURVE",
"348 418 CURVE SMOOTH",
"347 418 OFFCURVE",
"347 417 OFFCURVE",
"347 417 CURVE SMOOTH",
"347 416 OFFCURVE",
"347 416 OFFCURVE",
"348 416 CURVE SMOOTH"
);
},
{
closed = 1;
nodes = (
"357 416 OFFCURVE",
"357 417 OFFCURVE",
"357 417 CURVE SMOOTH",
"357 418 OFFCURVE",
"357 420 OFFCURVE",
"356 420 CURVE SMOOTH",
"355 420 OFFCURVE",
"354 418 OFFCURVE",
"354 417 CURVE SMOOTH",
"354 417 OFFCURVE",
"355 416 OFFCURVE",
"356 416 CURVE SMOOTH"
);
},
{
closed = 1;
nodes = (
"363 416 OFFCURVE",
"364 417 OFFCURVE",
"364 417 CURVE SMOOTH",
"364 418 OFFCURVE",
"363 420 OFFCURVE",
"362 420 CURVE SMOOTH",
"361 420 OFFCURVE",
"360 418 OFFCURVE",
"360 417 CURVE SMOOTH",
"360 417 OFFCURVE",
"361 416 OFFCURVE",
"362 416 CURVE SMOOTH"
);
},
{
closed = 1;
nodes = (
"370 416 OFFCURVE",
"371 416 OFFCURVE",
"371 417 CURVE SMOOTH",
"371 417 OFFCURVE",
"370 418 OFFCURVE",
"369 418 CURVE SMOOTH",
"368 418 OFFCURVE",
"367 417 OFFCURVE",
"367 417 CURVE SMOOTH",
"367 416 OFFCURVE",
"368 416 OFFCURVE",
"369 416 CURVE SMOOTH"
);
},
{
closed = 1;
nodes = (
"367 382 OFFCURVE",
"369 388 OFFCURVE",
"369 394 CURVE SMOOTH",
"369 400 OFFCURVE",
"365 408 OFFCURVE",
"360 408 CURVE SMOOTH",
"356 408 OFFCURVE",
"352 400 OFFCURVE",
"352 394 CURVE SMOOTH",
"352 388 OFFCURVE",
"354 382 OFFCURVE",
"362 382 CURVE SMOOTH"
);
},
{
closed = 1;
nodes = (
"437 474 OFFCURVE",
"450 479 OFFCURVE",
"452 479 CURVE SMOOTH",
"454 479 OFFCURVE",
"461 476 OFFCURVE",
"463 476 CURVE SMOOTH",
"465 476 OFFCURVE",
"470 482 OFFCURVE",
"471 483 CURVE SMOOTH",
"472 484 OFFCURVE",
"473 484 OFFCURVE",
"475 484 CURVE SMOOTH",
"476 484 OFFCURVE",
"477 484 OFFCURVE",
"474 482 CURVE SMOOTH",
"470 481 OFFCURVE",
"467 474 OFFCURVE",
"464 474 CURVE SMOOTH",
"460 474 OFFCURVE",
"454 477 OFFCURVE",
"452 477 CURVE SMOOTH",
"446 477 OFFCURVE",
"425 467 OFFCURVE",
"429 472 CURVE"
);
},
{
closed = 1;
nodes = (
"371 373 OFFCURVE",
"367 354 OFFCURVE",
"365 351 CURVE SMOOTH",
"362 347 OFFCURVE",
"365 347 OFFCURVE",
"366 348 CURVE SMOOTH",
"368 351 OFFCURVE",
"374 379 OFFCURVE",
"374 381 CURVE SMOOTH",
"374 384 OFFCURVE",
"374 386 OFFCURVE",
"374 384 CURVE"
);
},
{
closed = 1;
nodes = (
"378 364 OFFCURVE",
"375 345 OFFCURVE",
"373 341 CURVE SMOOTH",
"370 337 OFFCURVE",
"373 337 OFFCURVE",
"374 339 CURVE SMOOTH",
"378 344 OFFCURVE",
"380 371 OFFCURVE",
"380 374 CURVE SMOOTH",
"380 378 OFFCURVE",
"379 379 OFFCURVE",
"378 376 CURVE"
);
},
{
closed = 1;
nodes = (
"390 367 OFFCURVE",
"407 345 OFFCURVE",
"410 335 CURVE SMOOTH",
"411 326 OFFCURVE",
"407 329 OFFCURVE",
"407 332 CURVE SMOOTH",
"407 343 OFFCURVE",
"384 374 OFFCURVE",
"383 376 CURVE SMOOTH",
"382 377 OFFCURVE",
"378 386 OFFCURVE",
"380 382 CURVE"
);
},
{
closed = 1;
nodes = (
"388 352 OFFCURVE",
"398 325 OFFCURVE",
"398 315 CURVE SMOOTH",
"397 307 OFFCURVE",
"394 310 OFFCURVE",
"394 314 CURVE SMOOTH",
"398 323 OFFCURVE",
"384 359 OFFCURVE",
"384 362 CURVE SMOOTH",
"383 365 OFFCURVE",
"382 373 OFFCURVE",
"383 370 CURVE"
);
},
{
closed = 1;
nodes = (
"333 314 LINE SMOOTH",
"333 311 OFFCURVE",
"331 307 OFFCURVE",
"327 303 CURVE SMOOTH",
"320 299 OFFCURVE",
"309 280 OFFCURVE",
"307 273 CURVE SMOOTH",
"304 266 OFFCURVE",
"305 268 OFFCURVE",
"308 271 CURVE SMOOTH",
"312 282 LINE SMOOTH",
"316 291 OFFCURVE",
"332 304 OFFCURVE",
"335 307 CURVE SMOOTH",
"337 310 OFFCURVE",
"337 315 OFFCURVE",
"337 326 CURVE SMOOTH",
"336 337 OFFCURVE",
"333 327 OFFCURVE",
"333 322 CURVE SMOOTH"
);
},
{
closed = 1;
nodes = (
"350 375 OFFCURVE",
"363 341 OFFCURVE",
"366 335 CURVE SMOOTH",
"371 331 OFFCURVE",
"378 329 OFFCURVE",
"370 335 CURVE SMOOTH",
"365 341 OFFCURVE",
"362 348 OFFCURVE",
"361 352 CURVE SMOOTH",
"360 354 OFFCURVE",
"347 389 OFFCURVE",
"350 375 CURVE"
);
},
{
closed = 1;
nodes = (
"345 275 OFFCURVE",
"340 262 OFFCURVE",
"338 254 CURVE SMOOTH",
"337 246 OFFCURVE",
"333 230 OFFCURVE",
"333 225 CURVE SMOOTH",
"333 221 OFFCURVE",
"333 218 OFFCURVE",
"335 226 CURVE SMOOTH",
"337 237 OFFCURVE",
"340 254 OFFCURVE",
"341 257 CURVE SMOOTH",
"342 260 OFFCURVE",
"347 278 OFFCURVE",
"347 279 CURVE SMOOTH",
"348 281 OFFCURVE",
"349 289 OFFCURVE",
"347 285 CURVE"
);
},
{
closed = 1;
nodes = (
"316 230 OFFCURVE",
"313 217 OFFCURVE",
"308 210 CURVE SMOOTH",
"303 205 OFFCURVE",
"305 205 OFFCURVE",
"309 209 CURVE",
"315 217 LINE",
"320 214 OFFCURVE",
"327 206 OFFCURVE",
"329 207 CURVE SMOOTH",
"332 208 OFFCURVE",
"347 222 OFFCURVE",
"332 210 CURVE SMOOTH",
"329 208 OFFCURVE",
"324 211 OFFCURVE",
"319 216 CURVE SMOOTH",
"313 221 OFFCURVE",
"317 226 OFFCURVE",
"320 232 CURVE SMOOTH",
"323 242 OFFCURVE",
"324 250 OFFCURVE",
"320 241 CURVE"
);
},
{
closed = 1;
nodes = (
"419 199 OFFCURVE",
"426 201 OFFCURVE",
"434 202 CURVE SMOOTH",
"441 202 OFFCURVE",
"438 206 OFFCURVE",
"435 209 CURVE SMOOTH",
"434 211 OFFCURVE",
"420 209 OFFCURVE",
"417 205 CURVE SMOOTH",
"413 199 OFFCURVE",
"416 199 OFFCURVE",
"418 199 CURVE"
);
},
{
closed = 1;
nodes = (
"347 206 OFFCURVE",
"351 202 OFFCURVE",
"355 202 CURVE SMOOTH",
"356 202 OFFCURVE",
"365 202 OFFCURVE",
"367 203 CURVE SMOOTH",
"370 206 OFFCURVE",
"372 210 OFFCURVE",
"378 207 CURVE SMOOTH",
"382 205 OFFCURVE",
"391 202 OFFCURVE",
"394 205 CURVE SMOOTH",
"394 206 OFFCURVE",
"400 208 OFFCURVE",
"402 207 CURVE SMOOTH",
"406 206 OFFCURVE",
"405 209 OFFCURVE",
"403 210 CURVE SMOOTH",
"402 210 OFFCURVE",
"395 210 OFFCURVE",
"394 208 CURVE SMOOTH",
"392 206 OFFCURVE",
"386 206 OFFCURVE",
"383 207 CURVE SMOOTH",
"380 209 OFFCURVE",
"373 211 OFFCURVE",
"367 207 CURVE SMOOTH",
"362 202 OFFCURVE",
"356 206 OFFCURVE",
"350 206 CURVE"
);
},
{
closed = 1;
nodes = (
"360 325 OFFCURVE",
"359 322 OFFCURVE",
"360 319 CURVE SMOOTH",
"361 316 OFFCURVE",
"374 285 OFFCURVE",
"375 281 CURVE SMOOTH",
"378 278 OFFCURVE",
"374 239 OFFCURVE",
"374 222 CURVE SMOOTH",
"374 206 OFFCURVE",
"378 216 OFFCURVE",
"375 222 CURVE SMOOTH",
"374 229 OFFCURVE",
"379 254 OFFCURVE",
"379 270 CURVE SMOOTH",
"379 285 OFFCURVE",
"378 286 OFFCURVE",
"375 289 CURVE SMOOTH",
"374 291 OFFCURVE",
"365 311 OFFCURVE",
"361 323 CURVE"
);
},
{
closed = 1;
nodes = (
"394 226 OFFCURVE",
"394 218 OFFCURVE",
"394 218 CURVE SMOOTH",
"394 218 OFFCURVE",
"397 211 OFFCURVE",
"397 218 CURVE SMOOTH",
"397 230 LINE",
"397 233 OFFCURVE",
"394 234 OFFCURVE",
"394 230 CURVE"
);
},
{
closed = 1;
nodes = (
"410 218 OFFCURVE",
"411 220 OFFCURVE",
"411 222 CURVE",
"410 253 LINE SMOOTH",
"410 260 OFFCURVE",
"409 253 OFFCURVE",
"409 253 CURVE SMOOTH",
"409 253 OFFCURVE",
"410 226 OFFCURVE",
"410 222 CURVE"
);
},
{
closed = 1;
nodes = (
"78 268 OFFCURVE",
"84 262 OFFCURVE",
"87 262 CURVE SMOOTH",
"91 261 OFFCURVE",
"96 273 OFFCURVE",
"98 275 CURVE",
"115 293 LINE",
"120 298 OFFCURVE",
"128 307 OFFCURVE",
"132 307 CURVE SMOOTH",
"137 305 OFFCURVE",
"149 301 OFFCURVE",
"147 295 CURVE SMOOTH",
"144 289 OFFCURVE",
"140 283 OFFCURVE",
"139 280 CURVE SMOOTH",
"138 278 OFFCURVE",
"135 270 OFFCURVE",
"144 278 CURVE SMOOTH",
"153 286 OFFCURVE",
"155 295 OFFCURVE",
"159 296 CURVE SMOOTH",
"162 298 OFFCURVE",
"169 299 OFFCURVE",
"172 301 CURVE SMOOTH",
"175 303 OFFCURVE",
"175 316 OFFCURVE",
"171 316 CURVE SMOOTH",
"161 316 OFFCURVE",
"161 323 OFFCURVE",
"161 324 CURVE SMOOTH",
"161 326 OFFCURVE",
"173 325 OFFCURVE",
"176 325 CURVE",
"220 355 LINE SMOOTH",
"225 359 OFFCURVE",
"230 359 OFFCURVE",
"234 357 CURVE SMOOTH",
"248 348 LINE",
"245 343 OFFCURVE",
"238 331 OFFCURVE",
"238 330 CURVE SMOOTH",
"238 329 OFFCURVE",
"238 323 OFFCURVE",
"240 329 CURVE SMOOTH",
"243 335 OFFCURVE",
"258 359 OFFCURVE",
"260 371 CURVE SMOOTH",
"262 384 OFFCURVE",
"279 399 OFFCURVE",
"283 401 CURVE",
"293 428 OFFCURVE",
"297 433 OFFCURVE",
"312 448 CURVE SMOOTH",
"315 452 OFFCURVE",
"316 452 OFFCURVE",
"311 455 CURVE SMOOTH",
"305 459 OFFCURVE",
"296 470 OFFCURVE",
"293 475 CURVE SMOOTH",
"293 478 OFFCURVE",
"294 484 OFFCURVE",
"301 485 CURVE SMOOTH",
"308 486 OFFCURVE",
"335 489 OFFCURVE",
"341 489 CURVE SMOOTH",
"346 489 OFFCURVE",
"354 487 OFFCURVE",
"355 485 CURVE SMOOTH",
"356 483 OFFCURVE",
"361 483 OFFCURVE",
"364 484 CURVE SMOOTH",
"366 485 OFFCURVE",
"370 490 OFFCURVE",
"374 491 CURVE SMOOTH",
"378 492 OFFCURVE",
"407 491 OFFCURVE",
"414 494 CURVE SMOOTH",
"422 497 OFFCURVE",
"439 507 OFFCURVE",
"442 507 CURVE SMOOTH",
"446 507 OFFCURVE",
"454 506 OFFCURVE",
"457 502 CURVE SMOOTH",
"461 499 OFFCURVE",
"487 506 OFFCURVE",
"493 507 CURVE SMOOTH",
"499 509 OFFCURVE",
"522 512 OFFCURVE",
"538 511 CURVE SMOOTH",
"565 510 LINE SMOOTH",
"568 510 OFFCURVE",
"570 507 OFFCURVE",
"552 501 CURVE SMOOTH",
"534 497 OFFCURVE",
"503 490 OFFCURVE",
"499 485 CURVE SMOOTH",
"496 481 OFFCURVE",
"489 478 OFFCURVE",
"503 468 CURVE SMOOTH",
"520 455 OFFCURVE",
"540 416 OFFCURVE",
"544 397 CURVE SMOOTH",
"547 377 OFFCURVE",
"548 361 OFFCURVE",
"548 352 CURVE SMOOTH",
"548 343 OFFCURVE",
"549 335 OFFCURVE",
"551 335 CURVE SMOOTH",
"668 335 LINE",
"672 335 OFFCURVE",
"672 335 OFFCURVE",
"667 334 CURVE SMOOTH",
"661 332 OFFCURVE",
"656 331 OFFCURVE",
"657 326 CURVE SMOOTH",
"657 320 OFFCURVE",
"652 308 OFFCURVE",
"644 307 CURVE",
"644 279 LINE",
"649 284 OFFCURVE",
"653 299 OFFCURVE",
"657 299 CURVE SMOOTH",
"661 299 OFFCURVE",
"667 299 OFFCURVE",
"667 299 CURVE SMOOTH",
"690 331 LINE SMOOTH",
"692 335 OFFCURVE",
"695 335 OFFCURVE",
"700 334 CURVE SMOOTH",
"718 319 OFFCURVE",
"715 318 OFFCURVE",
"711 311 CURVE SMOOTH",
"707 304 OFFCURVE",
"711 292 OFFCURVE",
"712 291 CURVE SMOOTH",
"713 289 OFFCURVE",
"719 285 OFFCURVE",
"719 293 CURVE SMOOTH",
"719 300 OFFCURVE",
"727 316 OFFCURVE",
"734 318 CURVE SMOOTH",
"738 319 OFFCURVE",
"741 324 OFFCURVE",
"741 327 CURVE SMOOTH",
"741 330 OFFCURVE",
"747 334 OFFCURVE",
"752 334 CURVE SMOOTH",
"758 334 OFFCURVE",
"760 334 OFFCURVE",
"762 331 CURVE SMOOTH",
"772 316 LINE",
"749 217 LINE",
"708 140 LINE",
"643 74 LINE",
"535 20 LINE",
"418 0 LINE",
"335 6 LINE",
"277 24 LINE",
"219 55 LINE",
"157 103 LINE",
"110 161 LINE",
"81 226 LINE",
"70 258 LINE",
"74 271 LINE"
);
},
{
closed = 1;
nodes = (
"656 269 LINE",
"657 271 OFFCURVE",
"657 270 OFFCURVE",
"658 269 CURVE SMOOTH",
"661 266 OFFCURVE",
"664 267 OFFCURVE",
"667 267 CURVE SMOOTH",
"671 267 OFFCURVE",
"672 279 OFFCURVE",
"672 289 CURVE SMOOTH",
"672 297 OFFCURVE",
"664 291 OFFCURVE",
"660 289 CURVE SMOOTH",
"657 285 OFFCURVE",
"656 276 OFFCURVE",
"653 270 CURVE"
);
},
{
closed = 1;
nodes = (
"641 241 OFFCURVE",
"644 233 OFFCURVE",
"646 225 CURVE SMOOTH",
"653 198 OFFCURVE",
"656 194 OFFCURVE",
"667 170 CURVE SMOOTH",
"676 147 OFFCURVE",
"683 169 OFFCURVE",
"684 170 CURVE SMOOTH",
"686 176 OFFCURVE",
"692 186 OFFCURVE",
"696 194 CURVE",
"710 192 LINE",
"703 175 LINE",
"700 170 OFFCURVE",
"707 166 OFFCURVE",
"711 171 CURVE SMOOTH",
"719 186 LINE",
"721 190 OFFCURVE",
"729 199 OFFCURVE",
"733 202 CURVE SMOOTH",
"737 206 OFFCURVE",
"739 210 OFFCURVE",
"741 210 CURVE",
"746 222 LINE",
"745 226 LINE",
"745 229 OFFCURVE",
"741 232 OFFCURVE",
"740 234 CURVE SMOOTH",
"738 236 OFFCURVE",
"731 234 OFFCURVE",
"727 236 CURVE",
"726 221 LINE",
"726 218 OFFCURVE",
"723 211 OFFCURVE",
"721 209 CURVE SMOOTH",
"718 206 OFFCURVE",
"713 207 OFFCURVE",
"716 210 CURVE SMOOTH",
"716 210 OFFCURVE",
"719 214 OFFCURVE",
"720 214 CURVE SMOOTH",
"721 215 OFFCURVE",
"720 228 OFFCURVE",
"721 234 CURVE SMOOTH",
"721 240 OFFCURVE",
"718 237 OFFCURVE",
"718 234 CURVE SMOOTH",
"718 233 OFFCURVE",
"713 226 OFFCURVE",
"711 222 CURVE SMOOTH",
"707 218 OFFCURVE",
"706 220 OFFCURVE",
"706 221 CURVE SMOOTH",
"706 222 OFFCURVE",
"710 226 OFFCURVE",
"713 230 CURVE SMOOTH",
"716 234 OFFCURVE",
"714 234 OFFCURVE",
"713 234 CURVE SMOOTH",
"713 234 OFFCURVE",
"710 232 OFFCURVE",
"710 234 CURVE SMOOTH",
"710 236 OFFCURVE",
"714 239 OFFCURVE",
"715 241 CURVE SMOOTH",
"716 242 OFFCURVE",
"721 244 OFFCURVE",
"725 245 CURVE SMOOTH",
"729 246 OFFCURVE",
"733 246 OFFCURVE",
"734 244 CURVE SMOOTH",
"735 242 OFFCURVE",
"740 241 OFFCURVE",
"742 241 CURVE SMOOTH",
"745 241 OFFCURVE",
"746 242 OFFCURVE",
"749 246 CURVE SMOOTH",
"749 250 OFFCURVE",
"754 260 OFFCURVE",
"750 265 CURVE SMOOTH",
"749 270 OFFCURVE",
"733 270 OFFCURVE",
"731 268 CURVE SMOOTH",
"730 266 OFFCURVE",
"731 262 OFFCURVE",
"731 259 CURVE SMOOTH",
"730 255 OFFCURVE",
"725 253 OFFCURVE",
"723 253 CURVE SMOOTH",
"721 254 OFFCURVE",
"716 259 OFFCURVE",
"713 261 CURVE SMOOTH",
"711 262 OFFCURVE",
"708 262 OFFCURVE",
"704 261 CURVE SMOOTH",
"701 259 OFFCURVE",
"695 260 OFFCURVE",
"693 260 CURVE SMOOTH",
"692 260 OFFCURVE",
"691 262 OFFCURVE",
"691 263 CURVE SMOOTH",
"691 267 OFFCURVE",
"701 267 OFFCURVE",
"704 265 CURVE SMOOTH",
"706 264 OFFCURVE",
"706 270 OFFCURVE",
"707 271 CURVE SMOOTH",
"708 274 OFFCURVE",
"712 278 OFFCURVE",
"708 289 CURVE SMOOTH",
"704 299 OFFCURVE",
"689 297 OFFCURVE",
"689 289 CURVE SMOOTH",
"688 269 LINE",
"687 263 OFFCURVE",
"685 262 OFFCURVE",
"681 260 CURVE SMOOTH",
"677 258 OFFCURVE",
"668 242 OFFCURVE",
"665 232 CURVE SMOOTH",
"661 222 OFFCURVE",
"660 210 OFFCURVE",
"658 199 CURVE",
"656 210 LINE",
"655 213 OFFCURVE",
"653 218 OFFCURVE",
"657 230 CURVE SMOOTH",
"659 243 OFFCURVE",
"670 258 OFFCURVE",
"673 261 CURVE SMOOTH",
"676 263 OFFCURVE",
"676 262 OFFCURVE",
"677 263 CURVE",
"671 262 LINE",
"668 261 OFFCURVE",
"665 262 OFFCURVE",
"653 262 CURVE SMOOTH",
"640 262 OFFCURVE",
"646 250 OFFCURVE",
"641 243 CURVE"
);
},
{
closed = 1;
nodes = (
"383 489 OFFCURVE",
"392 488 OFFCURVE",
"391 480 CURVE SMOOTH",
"390 472 OFFCURVE",
"390 469 OFFCURVE",
"392 474 CURVE SMOOTH",
"394 480 OFFCURVE",
"394 485 OFFCURVE",
"387 488 CURVE SMOOTH",
"384 489 OFFCURVE",
"380 490 OFFCURVE",
"378 490 CURVE SMOOTH",
"367 490 OFFCURVE",
"374 489 OFFCURVE",
"375 489 CURVE SMOOTH"
);
},
{
closed = 1;
nodes = (
"412 319 LINE",
"410 316 OFFCURVE",
"398 295 OFFCURVE",
"394 283 CURVE SMOOTH",
"392 272 OFFCURVE",
"402 279 OFFCURVE",
"402 281 CURVE SMOOTH",
"402 283 OFFCURVE",
"402 289 OFFCURVE",
"402 292 CURVE SMOOTH",
"402 296 OFFCURVE",
"402 301 OFFCURVE",
"406 307 CURVE SMOOTH",
"409 311 OFFCURVE",
"414 311 OFFCURVE",
"419 310 CURVE SMOOTH",
"425 308 OFFCURVE",
"433 310 OFFCURVE",
"435 312 CURVE SMOOTH",
"445 322 OFFCURVE",
"439 311 OFFCURVE",
"439 308 CURVE SMOOTH",
"438 307 OFFCURVE",
"438 307 OFFCURVE",
"435 305 CURVE SMOOTH",
"434 304 OFFCURVE",
"414 304 OFFCURVE",
"410 304 CURVE SMOOTH",
"406 304 OFFCURVE",
"406 289 OFFCURVE",
"406 282 CURVE SMOOTH",
"406 277 OFFCURVE",
"414 261 OFFCURVE",
"417 253 CURVE SMOOTH",
"418 246 OFFCURVE",
"431 217 OFFCURVE",
"432 218 CURVE SMOOTH",
"433 218 OFFCURVE",
"435 218 OFFCURVE",
"435 217 CURVE SMOOTH",
"437 216 OFFCURVE",
"442 210 OFFCURVE",
"448 206 CURVE SMOOTH",
"454 201 OFFCURVE",
"465 203 OFFCURVE",
"471 206 CURVE SMOOTH",
"477 209 OFFCURVE",
"487 233 OFFCURVE",
"488 238 CURVE SMOOTH",
"489 242 OFFCURVE",
"492 253 OFFCURVE",
"491 279 CURVE SMOOTH",
"490 305 OFFCURVE",
"489 279 OFFCURVE",
"488 273 CURVE SMOOTH",
"487 268 OFFCURVE",
"483 245 OFFCURVE",
"483 244 CURVE SMOOTH",
"483 242 OFFCURVE",
"480 230 OFFCURVE",
"470 215 CURVE SMOOTH",
"460 199 OFFCURVE",
"440 217 OFFCURVE",
"439 218 CURVE SMOOTH",
"439 218 OFFCURVE",
"426 232 OFFCURVE",
"444 222 CURVE SMOOTH",
"460 211 OFFCURVE",
"472 230 OFFCURVE",
"476 234 CURVE SMOOTH",
"481 240 OFFCURVE",
"479 241 OFFCURVE",
"477 239 CURVE",
"471 234 LINE",
"452 215 OFFCURVE",
"431 254 OFFCURVE",
"418 271 CURVE SMOOTH",
"406 289 OFFCURVE",
"420 276 OFFCURVE",
"422 274 CURVE SMOOTH",
"444 250 LINE",
"458 234 OFFCURVE",
"466 246 OFFCURVE",
"470 249 CURVE SMOOTH",
"474 252 OFFCURVE",
"482 268 OFFCURVE",
"486 289 CURVE SMOOTH",
"490 311 OFFCURVE",
"482 289 OFFCURVE",
"481 284 CURVE SMOOTH",
"480 279 OFFCURVE",
"475 272 OFFCURVE",
"469 260 CURVE SMOOTH",
"466 254 OFFCURVE",
"454 253 OFFCURVE",
"449 261 CURVE SMOOTH",
"434 284 LINE SMOOTH",
"429 292 OFFCURVE",
"434 289 OFFCURVE",
"435 287 CURVE SMOOTH",
"453 272 LINE",
"463 266 OFFCURVE",
"466 274 OFFCURVE",
"468 275 CURVE SMOOTH",
"470 276 OFFCURVE",
"482 297 OFFCURVE",
"481 303 CURVE SMOOTH",
"480 307 OFFCURVE",
"481 320 OFFCURVE",
"483 327 CURVE SMOOTH",
"485 334 OFFCURVE",
"488 339 OFFCURVE",
"487 344 CURVE SMOOTH",
"486 346 OFFCURVE",
"483 343 OFFCURVE",
"483 338 CURVE SMOOTH",
"483 335 OFFCURVE",
"480 330 OFFCURVE",
"479 326 CURVE SMOOTH",
"478 323 OFFCURVE",
"476 315 OFFCURVE",
"473 307 CURVE SMOOTH",
"469 299 OFFCURVE",
"466 299 OFFCURVE",
"463 300 CURVE SMOOTH",
"459 303 OFFCURVE",
"461 308 OFFCURVE",
"461 311 CURVE SMOOTH",
"461 311 OFFCURVE",
"466 319 OFFCURVE",
"466 312 CURVE SMOOTH",
"466 305 OFFCURVE",
"469 311 OFFCURVE",
"470 312 CURVE SMOOTH",
"471 314 OFFCURVE",
"475 330 OFFCURVE",
"475 335 CURVE SMOOTH",
"475 339 OFFCURVE",
"474 348 OFFCURVE",
"473 355 CURVE SMOOTH",
"472 362 OFFCURVE",
"474 361 OFFCURVE",
"475 361 CURVE SMOOTH",
"477 361 OFFCURVE",
"477 352 OFFCURVE",
"477 343 CURVE SMOOTH",
"477 331 OFFCURVE",
"481 339 OFFCURVE",
"481 344 CURVE SMOOTH",
"483 360 LINE",
"483 364 OFFCURVE",
"485 369 OFFCURVE",
"485 371 CURVE SMOOTH",
"485 374 OFFCURVE",
"480 371 OFFCURVE",
"479 368 CURVE SMOOTH",
"478 365 OFFCURVE",
"475 365 OFFCURVE",
"472 364 CURVE SMOOTH",
"468 363 OFFCURVE",
"466 367 OFFCURVE",
"464 371 CURVE SMOOTH",
"461 374 OFFCURVE",
"461 372 OFFCURVE",
"461 371 CURVE SMOOTH",
"458 355 LINE SMOOTH",
"457 348 OFFCURVE",
"457 344 OFFCURVE",
"461 334 CURVE SMOOTH",
"465 324 OFFCURVE",
"459 330 OFFCURVE",
"457 331 CURVE SMOOTH",
"456 334 OFFCURVE",
"453 338 OFFCURVE",
"450 344 CURVE SMOOTH",
"449 350 OFFCURVE",
"454 364 OFFCURVE",
"457 374 CURVE SMOOTH",
"459 384 OFFCURVE",
"446 380 OFFCURVE",
"444 377 CURVE SMOOTH",
"424 339 LINE"
);
},
{
closed = 1;
nodes = (
"459 414 LINE",
"466 401 LINE",
"466 400 OFFCURVE",
"468 400 OFFCURVE",
"468 401 CURVE SMOOTH",
"468 403 OFFCURVE",
"466 408 OFFCURVE",
"465 409 CURVE",
"463 414 LINE"
);
},
{
closed = 0;
nodes = (
"467 414 LINE SMOOTH",
"467 414 OFFCURVE",
"467 414 OFFCURVE",
"467 414 CURVE"
);
},
{
closed = 1;
nodes = (
"632 319 LINE SMOOTH",
"637 319 OFFCURVE",
"661 327 OFFCURVE",
"628 329 CURVE SMOOTH",
"594 330 OFFCURVE",
"555 327 OFFCURVE",
"546 327 CURVE SMOOTH",
"535 327 OFFCURVE",
"497 327 OFFCURVE",
"496 319 CURVE SMOOTH",
"495 310 OFFCURVE",
"494 279 OFFCURVE",
"494 264 CURVE SMOOTH",
"494 249 OFFCURVE",
"495 239 OFFCURVE",
"489 226 CURVE SMOOTH",
"483 214 OFFCURVE",
"482 211 OFFCURVE",
"482 210 CURVE SMOOTH",
"482 207 OFFCURVE",
"481 191 OFFCURVE",
"489 210 CURVE SMOOTH",
"496 230 OFFCURVE",
"496 238 OFFCURVE",
"496 243 CURVE SMOOTH",
"496 249 OFFCURVE",
"499 307 OFFCURVE",
"499 308 CURVE SMOOTH",
"499 315 OFFCURVE",
"503 319 OFFCURVE",
"505 319 CURVE SMOOTH",
"507 319 OFFCURVE",
"507 319 OFFCURVE",
"504 316 CURVE SMOOTH",
"503 314 OFFCURVE",
"501 289 OFFCURVE",
"503 276 CURVE SMOOTH",
"503 263 OFFCURVE",
"503 224 OFFCURVE",
"503 218 CURVE SMOOTH",
"503 213 OFFCURVE",
"500 201 OFFCURVE",
"496 198 CURVE SMOOTH",
"493 198 OFFCURVE",
"492 190 OFFCURVE",
"499 194 CURVE SMOOTH",
"504 198 OFFCURVE",
"507 210 OFFCURVE",
"507 218 CURVE SMOOTH",
"507 226 OFFCURVE",
"503 281 OFFCURVE",
"503 287 CURVE SMOOTH",
"503 293 OFFCURVE",
"504 316 OFFCURVE",
"508 318 CURVE SMOOTH",
"511 319 OFFCURVE",
"530 323 OFFCURVE",
"531 323 CURVE SMOOTH",
"543 323 OFFCURVE",
"539 322 OFFCURVE",
"524 319 CURVE SMOOTH",
"519 319 OFFCURVE",
"509 318 OFFCURVE",
"509 308 CURVE SMOOTH",
"509 299 OFFCURVE",
"508 269 OFFCURVE",
"509 258 CURVE SMOOTH",
"511 246 OFFCURVE",
"512 199 OFFCURVE",
"512 195 CURVE SMOOTH",
"512 190 OFFCURVE",
"515 162 OFFCURVE",
"515 203 CURVE SMOOTH",
"515 244 OFFCURVE",
"511 305 OFFCURVE",
"514 308 CURVE SMOOTH",
"515 312 OFFCURVE",
"523 316 OFFCURVE",
"528 316 CURVE",
"543 319 LINE"
);
},
{
closed = 1;
nodes = (
"519 249 LINE SMOOTH",
"519 242 OFFCURVE",
"521 177 OFFCURVE",
"521 170 CURVE SMOOTH",
"521 162 OFFCURVE",
"527 153 OFFCURVE",
"527 136 CURVE SMOOTH",
"528 118 OFFCURVE",
"534 120 OFFCURVE",
"534 129 CURVE SMOOTH",
"534 138 LINE SMOOTH",
"534 151 OFFCURVE",
"540 144 OFFCURVE",
"540 138 CURVE SMOOTH",
"540 109 LINE SMOOTH",
"540 93 OFFCURVE",
"544 104 OFFCURVE",
"544 107 CURVE SMOOTH",
"544 116 LINE SMOOTH",
"544 122 OFFCURVE",
"548 122 OFFCURVE",
"548 116 CURVE SMOOTH",
"548 100 LINE SMOOTH",
"548 82 OFFCURVE",
"556 81 OFFCURVE",
"556 97 CURVE SMOOTH",
"556 143 LINE SMOOTH",
"557 166 OFFCURVE",
"562 154 OFFCURVE",
"563 143 CURVE SMOOTH",
"565 112 LINE SMOOTH",
"567 89 OFFCURVE",
"573 89 OFFCURVE",
"574 106 CURVE SMOOTH",
"575 143 LINE",
"576 154 OFFCURVE",
"582 155 OFFCURVE",
"583 139 CURVE SMOOTH",
"584 122 OFFCURVE",
"590 135 OFFCURVE",
"590 140 CURVE SMOOTH",
"589 155 LINE",
"589 160 OFFCURVE",
"592 161 OFFCURVE",
"592 154 CURVE SMOOTH",
"592 148 OFFCURVE",
"598 149 OFFCURVE",
"598 153 CURVE SMOOTH",
"601 182 LINE",
"601 189 OFFCURVE",
"604 196 OFFCURVE",
"605 179 CURVE SMOOTH",
"607 164 OFFCURVE",
"610 176 OFFCURVE",
"610 179 CURVE SMOOTH",
"610 209 LINE SMOOTH",
"610 222 OFFCURVE",
"616 211 OFFCURVE",
"616 202 CURVE SMOOTH",
"617 191 OFFCURVE",
"623 195 OFFCURVE",
"623 199 CURVE SMOOTH",
"624 225 LINE SMOOTH",
"625 238 OFFCURVE",
"628 232 OFFCURVE",
"628 225 CURVE SMOOTH",
"628 217 OFFCURVE",
"632 214 OFFCURVE",
"632 222 CURVE SMOOTH",
"628 287 LINE SMOOTH",
"626 316 OFFCURVE",
"628 314 OFFCURVE",
"612 314 CURVE SMOOTH",
"608 314 OFFCURVE",
"566 314 OFFCURVE",
"540 314 CURVE SMOOTH",
"520 314 OFFCURVE",
"519 299 OFFCURVE",
"519 292 CURVE SMOOTH"
);
},
{
closed = 1;
nodes = (
"71 279 OFFCURVE",
"98 345 OFFCURVE",
"111 357 CURVE SMOOTH",
"112 358 OFFCURVE",
"116 361 OFFCURVE",
"117 359 CURVE SMOOTH",
"118 357 OFFCURVE",
"116 356 OFFCURVE",
"111 352 CURVE SMOOTH",
"98 338 OFFCURVE",
"74 268 OFFCURVE",
"68 250 CURVE",
"68 262 LINE"
);
},
{
closed = 1;
nodes = (
"79 277 OFFCURVE",
"100 331 OFFCURVE",
"112 344 CURVE SMOOTH",
"113 345 OFFCURVE",
"117 348 OFFCURVE",
"118 346 CURVE SMOOTH",
"119 344 OFFCURVE",
"118 343 OFFCURVE",
"113 338 CURVE SMOOTH",
"98 326 OFFCURVE",
"85 277 OFFCURVE",
"81 262 CURVE",
"77 263 LINE"
);
},
{
closed = 1;
nodes = (
"86 273 OFFCURVE",
"101 315 OFFCURVE",
"114 327 CURVE SMOOTH",
"115 327 OFFCURVE",
"119 331 OFFCURVE",
"119 329 CURVE SMOOTH",
"120 327 OFFCURVE",
"119 325 OFFCURVE",
"115 322 CURVE SMOOTH",
"100 310 OFFCURVE",
"91 273 OFFCURVE",
"86 259 CURVE",
"82 260 LINE"
);
},
{
closed = 1;
nodes = (
"93 270 OFFCURVE",
"102 303 OFFCURVE",
"115 315 CURVE SMOOTH",
"116 316 OFFCURVE",
"119 319 OFFCURVE",
"120 316 CURVE SMOOTH",
"121 315 OFFCURVE",
"120 314 OFFCURVE",
"116 310 CURVE SMOOTH",
"101 298 OFFCURVE",
"98 270 OFFCURVE",
"94 255 CURVE",
"90 256 LINE"
);
}
);
width = 830;
}
);
},
{
glyphname = cranach_1;
lastChange = "2019-04-24 18:54:13 +0000";
layers = (
{
layerId = "60B24473-AF85-4843-BA5D-A0A691C0B2A6";
paths = (
{
closed = 1;
nodes = (
"43 574 OFFCURVE",
"219 691 OFFCURVE",
"347 691 CURVE SMOOTH",
"495 691 OFFCURVE",
"638 555 OFFCURVE",
"638 353 CURVE SMOOTH",
"638 161 OFFCURVE",
"474 11 OFFCURVE",
"339 11 CURVE SMOOTH",
"243 11 OFFCURVE",
"58 80 OFFCURVE",
"50 344 CURVE SMOOTH"
);
},
{
closed = 1;
nodes = (
"141 175 OFFCURVE",
"241 107 OFFCURVE",
"341 106 CURVE SMOOTH",
"451 105 OFFCURVE",
"542 238 OFFCURVE",
"542 362 CURVE SMOOTH",
"542 523 OFFCURVE",
"433 600 OFFCURVE",
"344 603 CURVE SMOOTH",
"248 606 OFFCURVE",
"141 503 OFFCURVE",
"141 345 CURVE"
);
},
{
closed = 1;
nodes = (
"320 643 OFFCURVE",
"316 638 OFFCURVE",
"308 635 CURVE",
"317 632 OFFCURVE",
"321 629 OFFCURVE",
"325 623 CURVE",
"330 629 OFFCURVE",
"334 632 OFFCURVE",
"341 635 CURVE",
"335 638 OFFCURVE",
"330 642 OFFCURVE",
"325 649 CURVE"
);
},
{
closed = 1;
nodes = (
"164 136 OFFCURVE",
"170 134 OFFCURVE",
"176 131 CURVE",
"175 138 OFFCURVE",
"175 143 OFFCURVE",
"177 151 CURVE",
"170 151 OFFCURVE",
"166 153 OFFCURVE",
"158 158 CURVE",
"159 150 OFFCURVE",
"158 144 OFFCURVE",
"155 136 CURVE"
);
},
{
closed = 1;
nodes = (
"254 617 OFFCURVE",
"257 623 OFFCURVE",
"261 628 CURVE",
"254 628 OFFCURVE",
"249 629 OFFCURVE",
"241 633 CURVE",
"240 625 OFFCURVE",
"238 621 OFFCURVE",
"231 615 CURVE",
"239 614 OFFCURVE",
"245 612 OFFCURVE",
"252 608 CURVE"
);
},
{
closed = 1;
nodes = (
"555 209 OFFCURVE",
"554 214 OFFCURVE",
"556 221 CURVE",
"549 218 OFFCURVE",
"544 216 OFFCURVE",
"536 216 CURVE",
"539 209 OFFCURVE",
"539 204 OFFCURVE",
"536 195 CURVE",
"543 198 OFFCURVE",
"550 199 OFFCURVE",
"558 200 CURVE"
);
},
{
closed = 1;
nodes = (
"156 572 LINE",
"156 584 OFFCURVE",
"156 589 OFFCURVE",
"163 598 CURVE SMOOTH",
"168 604 OFFCURVE",
"175 608 OFFCURVE",
"185 608 CURVE SMOOTH",
"195 608 OFFCURVE",
"206 599 OFFCURVE",
"209 597 CURVE SMOOTH",
"216 592 OFFCURVE",
"225 576 OFFCURVE",
"221 568 CURVE SMOOTH",
"212 551 OFFCURVE",
"208 551 OFFCURVE",
"196 550 CURVE",
"196 545 LINE",
"212 541 OFFCURVE",
"216 549 OFFCURVE",
"224 557 CURVE SMOOTH",
"231 564 OFFCURVE",
"233 586 OFFCURVE",
"220 600 CURVE SMOOTH",
"211 610 OFFCURVE",
"201 614 OFFCURVE",
"186 614 CURVE SMOOTH",
"176 614 OFFCURVE",
"167 609 OFFCURVE",
"159 603 CURVE SMOOTH",
"149 596 OFFCURVE",
"149 589 OFFCURVE",
"150 572 CURVE"
);
},
{
closed = 1;
nodes = (
"180 511 OFFCURVE",
"166 509 OFFCURVE",
"161 511 CURVE SMOOTH",
"150 515 OFFCURVE",
"156 533 OFFCURVE",
"154 533 CURVE SMOOTH",
"144 533 OFFCURVE",
"126 533 OFFCURVE",
"112 529 CURVE SMOOTH",
"101 526 OFFCURVE",
"96 521 OFFCURVE",
"91 511 CURVE SMOOTH",
"90 509 OFFCURVE",
"92 507 OFFCURVE",
"93 508 CURVE SMOOTH",
"94 509 OFFCURVE",
"96 509 OFFCURVE",
"98 510 CURVE SMOOTH",
"98 510 OFFCURVE",
"115 495 OFFCURVE",
"114 493 CURVE SMOOTH",
"104 468 LINE SMOOTH",
"104 467 OFFCURVE",
"87 466 OFFCURVE",
"79 466 CURVE SMOOTH",
"77 466 OFFCURVE",
"74 459 OFFCURVE",
"76 459 CURVE SMOOTH",
"103 459 OFFCURVE",
"131 461 OFFCURVE",
"158 462 CURVE SMOOTH",
"158 462 OFFCURVE",
"161 464 OFFCURVE",
"159 467 CURVE SMOOTH",
"147 485 OFFCURVE",
"107 510 OFFCURVE",
"103 514 CURVE SMOOTH",
"100 517 OFFCURVE",
"129 527 OFFCURVE",
"145 523 CURVE SMOOTH",
"145 523 OFFCURVE",
"148 505 OFFCURVE",
"156 502 CURVE SMOOTH",
"165 499 OFFCURVE",
"173 498 OFFCURVE",
"187 512 CURVE SMOOTH",
"188 513 OFFCURVE",
"185 519 OFFCURVE",
"183 516 CURVE SMOOTH"
);
},
{
closed = 1;
nodes = (
"116 490 OFFCURVE",
"113 472 OFFCURVE",
"113 470 CURVE SMOOTH",
"113 468 OFFCURVE",
"128 470 OFFCURVE",
"142 470 CURVE SMOOTH",
"145 470 OFFCURVE",
"123 490 OFFCURVE",
"120 490 CURVE SMOOTH"
);
},
{
closed = 1;
nodes = (
"67 442 OFFCURVE",
"66 434 OFFCURVE",
"68 434 CURVE SMOOTH",
"122 427 LINE SMOOTH",
"128 426 OFFCURVE",
"84 392 OFFCURVE",
"61 380 CURVE SMOOTH",
"59 379 OFFCURVE",
"59 373 OFFCURVE",
"60 373 CURVE SMOOTH",
"69 373 OFFCURVE",
"125 370 OFFCURVE",
"131 370 CURVE SMOOTH",
"132 370 OFFCURVE",
"134 379 OFFCURVE",
"133 380 CURVE SMOOTH",
"129 384 OFFCURVE",
"100 380 OFFCURVE",
"84 382 CURVE",
"104 398 OFFCURVE",
"129 413 OFFCURVE",
"144 428 CURVE SMOOTH",
"146 430 OFFCURVE",
"145 432 OFFCURVE",
"144 432 CURVE SMOOTH",
"120 432 OFFCURVE",
"76 442 OFFCURVE",
"69 442 CURVE SMOOTH"
);
},
{
closed = 1;
nodes = (
"59 351 OFFCURVE",
"84 346 OFFCURVE",
"84 344 CURVE SMOOTH",
"84 317 LINE SMOOTH",
"84 316 OFFCURVE",
"68 313 OFFCURVE",
"63 308 CURVE SMOOTH",
"61 306 OFFCURVE",
"61 295 OFFCURVE",
"62 296 CURVE SMOOTH",
"85 307 OFFCURVE",
"109 322 OFFCURVE",
"137 335 CURVE SMOOTH",
"138 335 OFFCURVE",
"139 338 OFFCURVE",
"136 339 CURVE SMOOTH",
"115 346 OFFCURVE",
"61 361 OFFCURVE",
"61 361 CURVE SMOOTH",
"57 360 OFFCURVE",
"59 356 OFFCURVE",
"59 353 CURVE SMOOTH"
);
},
{
closed = 1;
nodes = (
"89 345 OFFCURVE",
"90 323 OFFCURVE",
"90 321 CURVE SMOOTH",
"90 319 OFFCURVE",
"115 329 OFFCURVE",
"120 334 CURVE SMOOTH",
"121 335 OFFCURVE",
"91 345 OFFCURVE",
"90 345 CURVE SMOOTH"
);
},
{
closed = 1;
nodes = (
"89 232 LINE",
"79 240 OFFCURVE",
"76 239 OFFCURVE",
"75 250 CURVE SMOOTH",
"74 258 OFFCURVE",
"76 267 OFFCURVE",
"81 275 CURVE SMOOTH",
"86 283 OFFCURVE",
"101 286 OFFCURVE",
"106 286 CURVE SMOOTH",
"114 286 OFFCURVE",
"128 285 OFFCURVE",
"131 277 CURVE SMOOTH",
"138 258 OFFCURVE",
"134 261 OFFCURVE",
"133 247 CURVE",
"143 249 LINE",
"143 269 OFFCURVE",
"144 274 OFFCURVE",
"138 281 CURVE SMOOTH",
"133 287 OFFCURVE",
"125 295 OFFCURVE",
"106 297 CURVE SMOOTH",
"94 298 OFFCURVE",
"86 292 OFFCURVE",
"76 281 CURVE SMOOTH",
"70 274 OFFCURVE",
"67 262 OFFCURVE",
"68 253 CURVE SMOOTH",
"70 239 OFFCURVE",
"73 238 OFFCURVE",
"87 228 CURVE"
);
},
{
closed = 1;
nodes = (
"81 200 OFFCURVE",
"83 197 OFFCURVE",
"86 199 CURVE SMOOTH",
"94 204 OFFCURVE",
"114 217 OFFCURVE",
"116 214 CURVE SMOOTH",
"119 209 OFFCURVE",
"136 187 OFFCURVE",
"135 186 CURVE SMOOTH",
"127 178 OFFCURVE",
"114 175 OFFCURVE",
"105 166 CURVE SMOOTH",
"103 164 OFFCURVE",
"105 156 OFFCURVE",
"107 158 CURVE SMOOTH",
"127 171 OFFCURVE",
"151 181 OFFCURVE",
"173 196 CURVE SMOOTH",
"176 198 OFFCURVE",
"169 205 OFFCURVE",
"166 204 CURVE SMOOTH",
"157 201 OFFCURVE",
"150 194 OFFCURVE",
"142 191 CURVE SMOOTH",
"139 190 OFFCURVE",
"125 217 OFFCURVE",
"125 219 CURVE SMOOTH",
"125 223 OFFCURVE",
"144 230 OFFCURVE",
"153 235 CURVE SMOOTH",
"155 236 OFFCURVE",
"151 244 OFFCURVE",
"149 243 CURVE SMOOTH",
"127 232 OFFCURVE",
"81 207 OFFCURVE",
"81 204 CURVE SMOOTH"
);
},
{
closed = 1;
nodes = (
"298 36 OFFCURVE",
"278 46 OFFCURVE",
"278 71 CURVE SMOOTH",
"278 72 OFFCURVE",
"294 76 OFFCURVE",
"293 85 CURVE SMOOTH",
"291 100 OFFCURVE",
"270 112 OFFCURVE",
"261 112 CURVE",
"251 87 OFFCURVE",
"243 72 OFFCURVE",
"233 51 CURVE SMOOTH",
"232 48 OFFCURVE",
"240 39 OFFCURVE",
"241 42 CURVE SMOOTH",
"251 65 OFFCURVE",
"260 80 OFFCURVE",
"266 103 CURVE",
"275 102 OFFCURVE",
"285 95 OFFCURVE",
"285 89 CURVE SMOOTH",
"285 76 OFFCURVE",
"263 80 OFFCURVE",
"264 77 CURVE SMOOTH",
"267 68 OFFCURVE",
"271 55 OFFCURVE",
"278 42 CURVE SMOOTH",
"283 32 OFFCURVE",
"293 23 OFFCURVE",
"307 23 CURVE SMOOTH",
"309 23 OFFCURVE",
"309 25 OFFCURVE",
"308 26 CURVE SMOOTH"
);
},
{
closed = 1;
nodes = (
"206 108 OFFCURVE",
"202 107 OFFCURVE",
"203 106 CURVE SMOOTH",
"216 94 OFFCURVE",
"238 99 OFFCURVE",
"241 107 CURVE SMOOTH",
"248 125 OFFCURVE",
"224 142 OFFCURVE",
"215 144 CURVE",
"196 124 OFFCURVE",
"181 107 OFFCURVE",
"169 89 CURVE SMOOTH",
"167 86 OFFCURVE",
"171 78 OFFCURVE",
"173 81 CURVE SMOOTH",
"187 102 OFFCURVE",
"202 116 OFFCURVE",
"217 135 CURVE",
"233 129 OFFCURVE",
"236 117 OFFCURVE",
"234 111 CURVE SMOOTH",
"230 99 OFFCURVE",
"210 105 OFFCURVE",
"206 109 CURVE"
);
},
{
closed = 1;
nodes = (
"388 693 OFFCURVE",
"405 659 OFFCURVE",
"405 634 CURVE SMOOTH",
"405 634 OFFCURVE",
"388 631 OFFCURVE",
"388 622 CURVE SMOOTH",
"388 607 OFFCURVE",
"409 593 OFFCURVE",
"418 593 CURVE",
"426 616 OFFCURVE",
"439 632 OFFCURVE",
"451 650 CURVE SMOOTH",
"453 653 OFFCURVE",
"446 663 OFFCURVE",
"444 660 CURVE SMOOTH",
"431 640 OFFCURVE",
"421 624 OFFCURVE",
"414 602 CURVE",
"405 604 OFFCURVE",
"395 611 OFFCURVE",
"396 617 CURVE SMOOTH",
"398 630 OFFCURVE",
"420 624 OFFCURVE",
"418 627 CURVE SMOOTH",
"412 636 OFFCURVE",
"414 651 OFFCURVE",
"407 664 CURVE SMOOTH",
"391 693 OFFCURVE",
"372 673 OFFCURVE",
"366 650 CURVE SMOOTH",
"365 646 OFFCURVE",
"369 646 OFFCURVE",
"370 649 CURVE SMOOTH"
);
},
{
closed = 1;
nodes = (
"325 94 OFFCURVE",
"327 29 OFFCURVE",
"329 29 CURVE SMOOTH",
"340 29 OFFCURVE",
"363 34 OFFCURVE",
"378 34 CURVE SMOOTH",
"381 34 OFFCURVE",
"381 44 OFFCURVE",
"378 43 CURVE SMOOTH",
"365 39 OFFCURVE",
"352 37 OFFCURVE",
"341 37 CURVE SMOOTH",
"340 37 OFFCURVE",
"338 51 OFFCURVE",
"338 56 CURVE SMOOTH",
"338 60 OFFCURVE",
"362 59 OFFCURVE",
"372 62 CURVE SMOOTH",
"375 63 OFFCURVE",
"375 70 OFFCURVE",
"372 70 CURVE SMOOTH",
"361 70 OFFCURVE",
"348 65 OFFCURVE",
"337 65 CURVE SMOOTH",
"335 65 OFFCURVE",
"335 86 OFFCURVE",
"337 87 CURVE SMOOTH",
"340 88 OFFCURVE",
"359 90 OFFCURVE",
"368 90 CURVE SMOOTH",
"370 90 OFFCURVE",
"371 98 OFFCURVE",
"369 98 CURVE SMOOTH",
"356 98 OFFCURVE",
"329 94 OFFCURVE",
"326 94 CURVE SMOOTH"
);
},
{
closed = 1;
nodes = (
"479 168 OFFCURVE",
"532 125 OFFCURVE",
"534 127 CURVE SMOOTH",
"542 135 OFFCURVE",
"548 147 OFFCURVE",
"560 159 CURVE SMOOTH",
"562 161 OFFCURVE",
"555 167 OFFCURVE",
"553 164 CURVE SMOOTH",
"545 154 OFFCURVE",
"540 148 OFFCURVE",
"533 138 CURVE SMOOTH",
"532 136 OFFCURVE",
"514 146 OFFCURVE",
"514 151 CURVE SMOOTH",
"514 154 OFFCURVE",
"523 169 OFFCURVE",
"529 178 CURVE SMOOTH",
"530 180 OFFCURVE",
"525 185 OFFCURVE",
"523 183 CURVE SMOOTH",
"516 173 OFFCURVE",
"514 168 OFFCURVE",
"507 157 CURVE SMOOTH",
"505 154 OFFCURVE",
"489 171 OFFCURVE",
"489 173 CURVE SMOOTH",
"489 176 OFFCURVE",
"502 187 OFFCURVE",
"506 195 CURVE SMOOTH",
"507 197 OFFCURVE",
"502 202 OFFCURVE",
"501 200 CURVE SMOOTH",
"493 187 OFFCURVE",
"479 173 OFFCURVE",
"479 169 CURVE SMOOTH"
);
},
{
closed = 1;
nodes = (
"558 354 OFFCURVE",
"618 356 OFFCURVE",
"622 357 CURVE SMOOTH",
"626 358 OFFCURVE",
"619 396 OFFCURVE",
"619 411 CURVE SMOOTH",
"619 414 OFFCURVE",
"608 414 OFFCURVE",
"608 411 CURVE SMOOTH",
"608 396 OFFCURVE",
"613 378 OFFCURVE",
"613 367 CURVE SMOOTH",
"613 366 OFFCURVE",
"601 364 OFFCURVE",
"596 365 CURVE SMOOTH",
"592 366 OFFCURVE",
"591 386 OFFCURVE",
"589 400 CURVE SMOOTH",
"589 401 OFFCURVE",
"582 402 OFFCURVE",
"582 399 CURVE SMOOTH",
"583 387 OFFCURVE",
"586 369 OFFCURVE",
"586 366 CURVE SMOOTH",
"586 363 OFFCURVE",
"562 364 OFFCURVE",
"562 364 CURVE SMOOTH",
"560 366 OFFCURVE",
"560 391 OFFCURVE",
"560 402 CURVE SMOOTH",
"560 403 OFFCURVE",
"550 404 OFFCURVE",
"550 402 CURVE SMOOTH",
"550 392 OFFCURVE",
"550 354 OFFCURVE",
"553 354 CURVE SMOOTH"
);
},
{
closed = 1;
nodes = (
"523 606 OFFCURVE",
"504 588 OFFCURVE",
"500 591 CURVE SMOOTH",
"477 611 LINE SMOOTH",
"477 611 OFFCURVE",
"483 630 OFFCURVE",
"483 638 CURVE SMOOTH",
"483 641 OFFCURVE",
"475 645 OFFCURVE",
"474 643 CURVE SMOOTH",
"467 617 OFFCURVE",
"461 590 OFFCURVE",
"458 567 CURVE SMOOTH",
"458 566 OFFCURVE",
"462 559 OFFCURVE",
"466 560 CURVE SMOOTH",
"487 565 OFFCURVE",
"529 597 OFFCURVE",
"530 598 CURVE SMOOTH",
"532 600 OFFCURVE",
"527 602 OFFCURVE",
"525 604 CURVE SMOOTH"
);
},
{
closed = 1;
nodes = (
"493 588 OFFCURVE",
"477 600 OFFCURVE",
"475 602 CURVE SMOOTH",
"474 603 OFFCURVE",
"471 580 OFFCURVE",
"471 573 CURVE SMOOTH",
"471 573 OFFCURVE",
"495 588 OFFCURVE",
"494 588 CURVE SMOOTH"
);
},
{
closed = 1;
nodes = (
"133 572 OFFCURVE",
"127 565 OFFCURVE",
"129 564 CURVE SMOOTH",
"152 553 OFFCURVE",
"170 536 OFFCURVE",
"187 519 CURVE SMOOTH",
"189 517 OFFCURVE",
"196 523 OFFCURVE",
"194 525 CURVE SMOOTH",
"176 543 OFFCURVE",
"156 557 OFFCURVE",
"136 570 CURVE SMOOTH"
);
},
{
closed = 1;
nodes = (
"539 430 OFFCURVE",
"541 420 OFFCURVE",
"544 421 CURVE SMOOTH",
"568 429 OFFCURVE",
"593 433 OFFCURVE",
"615 438 CURVE SMOOTH",
"619 439 OFFCURVE",
"615 450 OFFCURVE",
"612 449 CURVE SMOOTH",
"588 441 OFFCURVE",
"565 439 OFFCURVE",
"541 431 CURVE SMOOTH"
);
},
{
closed = 1;
nodes = (
"408 114 OFFCURVE",
"393 106 OFFCURVE",
"396 92 CURVE SMOOTH",
"397 87 OFFCURVE",
"407 81 OFFCURVE",
"414 80 CURVE SMOOTH",
"421 79 OFFCURVE",
"425 81 OFFCURVE",
"430 73 CURVE SMOOTH",
"433 68 OFFCURVE",
"429 60 OFFCURVE",
"424 58 CURVE SMOOTH",
"418 56 OFFCURVE",
"414 55 OFFCURVE",
"409 55 CURVE SMOOTH",
"407 55 OFFCURVE",
"409 45 OFFCURVE",
"413 45 CURVE SMOOTH",
"417 45 OFFCURVE",
"435 54 OFFCURVE",
"439 64 CURVE SMOOTH",
"443 74 OFFCURVE",
"435 81 OFFCURVE",
"431 83 CURVE SMOOTH",
"423 87 OFFCURVE",
"409 85 OFFCURVE",
"404 92 CURVE SMOOTH",
"399 99 OFFCURVE",
"411 108 OFFCURVE",
"421 108 CURVE SMOOTH",
"425 108 OFFCURVE",
"420 114 OFFCURVE",
"417 114 CURVE SMOOTH"
);
},
{
closed = 1;
nodes = (
"452 143 OFFCURVE",
"443 131 OFFCURVE",
"449 118 CURVE SMOOTH",
"451 114 OFFCURVE",
"463 109 OFFCURVE",
"470 112 CURVE SMOOTH",
"477 115 OFFCURVE",
"482 116 OFFCURVE",
"490 111 CURVE SMOOTH",
"495 108 OFFCURVE",
"493 94 OFFCURVE",
"489 90 CURVE SMOOTH",
"484 85 OFFCURVE",
"478 82 OFFCURVE",
"474 81 CURVE SMOOTH",
"471 80 OFFCURVE",
"481 73 OFFCURVE",
"484 74 CURVE SMOOTH",
"488 75 OFFCURVE",
"501 89 OFFCURVE",
"501 100 CURVE SMOOTH",
"501 112 OFFCURVE",
"493 120 OFFCURVE",
"489 121 CURVE SMOOTH",
"481 123 OFFCURVE",
"464 116 OFFCURVE",
"456 121 CURVE SMOOTH",
"450 125 OFFCURVE",
"457 139 OFFCURVE",
"467 142 CURVE SMOOTH",
"470 143 OFFCURVE",
"464 147 OFFCURVE",
"461 146 CURVE SMOOTH"
);
},
{
closed = 1;
nodes = (
"549 237 OFFCURVE",
"579 240 OFFCURVE",
"608 240 CURVE SMOOTH",
"609 240 OFFCURVE",
"610 244 OFFCURVE",
"609 245 CURVE SMOOTH",
"591 256 OFFCURVE",
"569 271 OFFCURVE",
"549 285 CURVE SMOOTH",
"528 300 OFFCURVE",
"624 276 OFFCURVE",
"624 291 CURVE SMOOTH",
"624 296 LINE SMOOTH",
"624 296 OFFCURVE",
"578 328 OFFCURVE",
"550 342 CURVE SMOOTH",
"548 343 OFFCURVE",
"546 333 OFFCURVE",
"549 331 CURVE SMOOTH",
"566 319 OFFCURVE",
"587 309 OFFCURVE",
"605 297 CURVE SMOOTH",
"623 285 OFFCURVE",
"563 299 OFFCURVE",
"541 299 CURVE SMOOTH",
"538 299 OFFCURVE",
"536 285 OFFCURVE",
"539 283 CURVE SMOOTH",
"553 274 OFFCURVE",
"565 262 OFFCURVE",
"579 252 CURVE SMOOTH",
"594 242 OFFCURVE",
"545 248 OFFCURVE",
"527 248 CURVE SMOOTH",
"523 248 OFFCURVE",
"518 237 OFFCURVE",
"522 237 CURVE SMOOTH"
);
},
{
closed = 1;
nodes = (
"553 500 OFFCURVE",
"572 534 OFFCURVE",
"575 537 CURVE SMOOTH",
"578 540 OFFCURVE",
"574 542 OFFCURVE",
"571 541 CURVE SMOOTH",
"554 535 OFFCURVE",
"517 526 OFFCURVE",
"510 526 CURVE",
"524 538 OFFCURVE",
"535 562 OFFCURVE",
"548 575 CURVE SMOOTH",
"550 577 OFFCURVE",
"547 589 OFFCURVE",
"544 586 CURVE SMOOTH",
"524 566 OFFCURVE",
"513 543 OFFCURVE",
"501 521 CURVE SMOOTH",
"500 520 OFFCURVE",
"501 516 OFFCURVE",
"503 516 CURVE SMOOTH",
"525 516 OFFCURVE",
"552 527 OFFCURVE",
"564 531 CURVE",
"547 510 OFFCURVE",
"524 476 OFFCURVE",
"524 476 CURVE SMOOTH",
"527 472 LINE SMOOTH",
"528 471 OFFCURVE",
"575 476 OFFCURVE",
"606 476 CURVE SMOOTH",
"609 476 OFFCURVE",
"607 487 OFFCURVE",
"604 487 CURVE SMOOTH",
"584 487 OFFCURVE",
"552 481 OFFCURVE",
"538 481 CURVE"
);
},
{
closed = 1;
nodes = (
"475 406 OFFCURVE",
"479 375 OFFCURVE",
"479 354 CURVE SMOOTH",
"479 318 OFFCURVE",
"462 317 OFFCURVE",
"462 282 CURVE SMOOTH",
"462 265 OFFCURVE",
"462 268 OFFCURVE",
"465 244 CURVE SMOOTH",
"466 235 OFFCURVE",
"457 216 OFFCURVE",
"451 209 CURVE SMOOTH",
"437 193 OFFCURVE",
"422 197 OFFCURVE",
"417 199 CURVE SMOOTH",
"413 201 OFFCURVE",
"425 223 OFFCURVE",
"422 221 CURVE SMOOTH",
"415 216 OFFCURVE",
"411 199 OFFCURVE",
"400 190 CURVE SMOOTH",
"387 180 OFFCURVE",
"369 170 OFFCURVE",
"347 186 CURVE SMOOTH",
"323 204 OFFCURVE",
"312 213 OFFCURVE",
"302 227 CURVE SMOOTH",
"290 244 OFFCURVE",
"265 285 OFFCURVE",
"252 297 CURVE SMOOTH",
"242 306 OFFCURVE",
"229 318 OFFCURVE",
"224 329 CURVE SMOOTH",
"220 337 OFFCURVE",
"222 346 OFFCURVE",
"217 346 CURVE SMOOTH",
"214 346 OFFCURVE",
"216 323 OFFCURVE",
"229 314 CURVE SMOOTH",
"245 303 OFFCURVE",
"264 273 OFFCURVE",
"276 256 CURVE SMOOTH",
"293 232 OFFCURVE",
"300 215 OFFCURVE",
"321 194 CURVE SMOOTH",
"330 185 OFFCURVE",
"352 178 OFFCURVE",
"355 175 CURVE SMOOTH",
"356 174 OFFCURVE",
"353 161 OFFCURVE",
"351 160 CURVE SMOOTH",
"347 158 OFFCURVE",
"333 155 OFFCURVE",
"330 154 CURVE SMOOTH",
"323 152 OFFCURVE",
"300 125 OFFCURVE",
"296 124 CURVE SMOOTH",
"287 122 OFFCURVE",
"282 119 OFFCURVE",
"278 123 CURVE SMOOTH",
"276 125 OFFCURVE",
"284 126 OFFCURVE",
"286 129 CURVE SMOOTH",
"291 137 OFFCURVE",
"295 139 OFFCURVE",
"298 144 CURVE SMOOTH",
"307 159 OFFCURVE",
"304 173 OFFCURVE",
"298 192 CURVE SMOOTH",
"296 198 OFFCURVE",
"278 229 OFFCURVE",
"262 245 CURVE SMOOTH",
"253 254 OFFCURVE",
"222 285 OFFCURVE",
"222 305 CURVE SMOOTH",
"222 306 OFFCURVE",
"207 327 OFFCURVE",
"207 341 CURVE SMOOTH",
"207 349 OFFCURVE",
"208 356 OFFCURVE",
"212 365 CURVE SMOOTH",
"217 376 OFFCURVE",
"225 376 OFFCURVE",
"229 376 CURVE SMOOTH",
"238 376 OFFCURVE",
"249 370 OFFCURVE",
"255 366 CURVE SMOOTH",
"265 359 OFFCURVE",
"274 353 OFFCURVE",
"281 348 CURVE SMOOTH",
"292 340 OFFCURVE",
"335 301 OFFCURVE",
"344 293 CURVE SMOOTH",
"350 288 OFFCURVE",
"362 268 OFFCURVE",
"366 250 CURVE SMOOTH",
"367 245 OFFCURVE",
"372 248 OFFCURVE",
"371 257 CURVE SMOOTH",
"369 271 OFFCURVE",
"363 277 OFFCURVE",
"359 295 CURVE SMOOTH",
"358 300 OFFCURVE",
"359 305 OFFCURVE",
"362 309 CURVE SMOOTH",
"362 309 OFFCURVE",
"369 319 OFFCURVE",
"368 321 CURVE SMOOTH",
"368 321 OFFCURVE",
"360 317 OFFCURVE",
"357 313 CURVE SMOOTH",
"353 307 OFFCURVE",
"354 290 OFFCURVE",
"350 292 CURVE SMOOTH",
"348 293 OFFCURVE",
"328 319 OFFCURVE",
"321 325 CURVE SMOOTH",
"311 334 OFFCURVE",
"302 344 OFFCURVE",
"295 357 CURVE SMOOTH",
"293 361 OFFCURVE",
"291 383 OFFCURVE",
"288 383 CURVE SMOOTH",
"286 383 OFFCURVE",
"285 380 OFFCURVE",
"285 378 CURVE SMOOTH",
"285 368 OFFCURVE",
"295 349 OFFCURVE",
"293 348 CURVE SMOOTH",
"290 347 OFFCURVE",
"277 357 OFFCURVE",
"270 364 CURVE SMOOTH",
"268 366 OFFCURVE",
"269 392 OFFCURVE",
"274 394 CURVE SMOOTH",
"278 396 OFFCURVE",
"291 394 OFFCURVE",
"295 393 CURVE SMOOTH",
"302 391 OFFCURVE",
"322 378 OFFCURVE",
"325 375 CURVE SMOOTH",
"330 370 OFFCURVE",
"332 364 OFFCURVE",
"337 360 CURVE SMOOTH",
"343 355 OFFCURVE",
"348 359 OFFCURVE",
"351 358 CURVE SMOOTH",
"353 357 OFFCURVE",
"352 328 OFFCURVE",
"358 330 CURVE SMOOTH",
"361 331 OFFCURVE",
"359 341 OFFCURVE",
"359 345 CURVE SMOOTH",
"359 353 OFFCURVE",
"359 357 OFFCURVE",
"356 361 CURVE SMOOTH",
"352 367 OFFCURVE",
"334 358 OFFCURVE",
"334 377 CURVE SMOOTH",
"334 387 OFFCURVE",
"337 391 OFFCURVE",
"343 393 CURVE SMOOTH",
"352 396 OFFCURVE",
"354 400 OFFCURVE",
"352 400 CURVE SMOOTH",
"352 400 OFFCURVE",
"337 408 OFFCURVE",
"337 408 CURVE SMOOTH",
"333 409 OFFCURVE",
"304 420 OFFCURVE",
"300 422 CURVE SMOOTH",
"286 429 OFFCURVE",
"278 436 OFFCURVE",
"264 448 CURVE SMOOTH",
"256 455 OFFCURVE",
"246 463 OFFCURVE",
"239 471 CURVE SMOOTH",
"231 480 OFFCURVE",
"232 476 OFFCURVE",
"232 481 CURVE SMOOTH",
"232 489 OFFCURVE",
"239 497 OFFCURVE",
"250 512 CURVE SMOOTH",
"262 529 OFFCURVE",
"280 551 OFFCURVE",
"290 562 CURVE SMOOTH",
"296 569 OFFCURVE",
"290 568 OFFCURVE",
"293 573 CURVE SMOOTH",
"297 580 OFFCURVE",
"330 587 OFFCURVE",
"348 587 CURVE SMOOTH",
"363 587 OFFCURVE",
"375 580 OFFCURVE",
"386 573 CURVE SMOOTH",
"389 571 OFFCURVE",
"398 575 OFFCURVE",
"407 568 CURVE SMOOTH",
"412 564 OFFCURVE",
"420 558 OFFCURVE",
"420 553 CURVE SMOOTH",
"420 552 OFFCURVE",
"418 550 OFFCURVE",
"418 548 CURVE SMOOTH",
"418 544 OFFCURVE",
"422 542 OFFCURVE",
"422 534 CURVE SMOOTH",
"422 531 OFFCURVE",
"423 512 OFFCURVE",
"419 508 CURVE SMOOTH",
"416 505 OFFCURVE",
"425 484 OFFCURVE",
"424 484 CURVE SMOOTH",
"419 484 OFFCURVE",
"405 498 OFFCURVE",
"407 506 CURVE SMOOTH",
"409 515 OFFCURVE",
"414 531 OFFCURVE",
"409 545 CURVE SMOOTH",
"408 548 OFFCURVE",
"408 553 OFFCURVE",
"403 557 CURVE SMOOTH",
"400 559 OFFCURVE",
"397 563 OFFCURVE",
"393 563 CURVE SMOOTH",
"391 563 OFFCURVE",
"386 564 OFFCURVE",
"387 563 CURVE SMOOTH",
"397 553 OFFCURVE",
"404 545 OFFCURVE",
"404 532 CURVE SMOOTH",
"404 532 OFFCURVE",
"402 501 OFFCURVE",
"403 497 CURVE SMOOTH",
"406 485 OFFCURVE",
"430 473 OFFCURVE",
"443 462 CURVE SMOOTH",
"448 458 OFFCURVE",
"464 435 OFFCURVE",
"469 422 CURVE SMOOTH"
);
},
{
closed = 1;
nodes = (
"362 573 OFFCURVE",
"367 572 OFFCURVE",
"374 572 CURVE SMOOTH",
"379 572 OFFCURVE",
"361 578 OFFCURVE",
"356 578 CURVE SMOOTH",
"348 578 OFFCURVE",
"330 567 OFFCURVE",
"335 568 CURVE SMOOTH",
"342 569 OFFCURVE",
"349 571 OFFCURVE",
"356 572 CURVE SMOOTH"
);
},
{
closed = 1;
nodes = (
"360 568 OFFCURVE",
"319 550 OFFCURVE",
"314 555 CURVE SMOOTH",
"313 556 OFFCURVE",
"311 554 OFFCURVE",
"312 553 CURVE SMOOTH",
"315 550 OFFCURVE",
"287 511 OFFCURVE",
"281 503 CURVE SMOOTH",
"275 495 OFFCURVE",
"267 489 OFFCURVE",
"260 485 CURVE SMOOTH",
"260 485 OFFCURVE",
"259 484 OFFCURVE",
"259 483 CURVE SMOOTH",
"259 479 OFFCURVE",
"324 458 OFFCURVE",
"328 457 CURVE SMOOTH",
"352 451 OFFCURVE",
"361 437 OFFCURVE",
"364 441 CURVE SMOOTH",
"366 444 OFFCURVE",
"356 459 OFFCURVE",
"339 459 CURVE SMOOTH",
"338 459 OFFCURVE",
"339 463 OFFCURVE",
"339 465 CURVE SMOOTH",
"339 467 OFFCURVE",
"339 472 OFFCURVE",
"337 472 CURVE SMOOTH",
"336 472 OFFCURVE",
"334 464 OFFCURVE",
"333 463 CURVE SMOOTH",
"330 460 OFFCURVE",
"318 465 OFFCURVE",
"315 466 CURVE SMOOTH",
"311 467 OFFCURVE",
"306 472 OFFCURVE",
"306 477 CURVE SMOOTH",
"306 480 OFFCURVE",
"304 481 OFFCURVE",
"304 484 CURVE SMOOTH",
"304 490 OFFCURVE",
"318 505 OFFCURVE",
"318 507 CURVE SMOOTH",
"318 510 OFFCURVE",
"304 499 OFFCURVE",
"302 492 CURVE SMOOTH",
"301 489 OFFCURVE",
"300 485 OFFCURVE",
"300 483 CURVE SMOOTH",
"300 480 OFFCURVE",
"302 476 OFFCURVE",
"302 472 CURVE SMOOTH",
"302 468 OFFCURVE",
"292 476 OFFCURVE",
"291 477 CURVE SMOOTH",
"289 479 OFFCURVE",
"286 483 OFFCURVE",
"286 490 CURVE SMOOTH",
"286 500 OFFCURVE",
"291 509 OFFCURVE",
"296 519 CURVE SMOOTH",
"304 535 OFFCURVE",
"318 550 OFFCURVE",
"320 548 CURVE SMOOTH",
"321 547 OFFCURVE",
"311 533 OFFCURVE",
"311 533 CURVE SMOOTH",
"304 520 OFFCURVE",
"292 516 OFFCURVE",
"292 497 CURVE SMOOTH",
"292 496 OFFCURVE",
"293 490 OFFCURVE",
"295 490 CURVE SMOOTH",
"297 490 OFFCURVE",
"294 498 OFFCURVE",
"300 511 CURVE SMOOTH",
"301 513 OFFCURVE",
"324 542 OFFCURVE",
"325 543 CURVE SMOOTH",
"340 558 OFFCURVE",
"348 556 OFFCURVE",
"354 562 CURVE SMOOTH"
);
},
{
closed = 1;
nodes = (
"332 538 OFFCURVE",
"337 540 OFFCURVE",
"341 546 CURVE SMOOTH",
"344 550 OFFCURVE",
"330 538 OFFCURVE",
"326 535 CURVE SMOOTH",
"319 530 OFFCURVE",
"317 516 OFFCURVE",
"321 521 CURVE SMOOTH",
"326 527 OFFCURVE",
"324 528 OFFCURVE",
"328 533 CURVE SMOOTH"
);
},
{
closed = 1;
nodes = (
"345 530 OFFCURVE",
"349 530 OFFCURVE",
"353 534 CURVE SMOOTH",
"357 538 OFFCURVE",
"342 530 OFFCURVE",
"339 525 CURVE SMOOTH",
"336 519 OFFCURVE",
"337 515 OFFCURVE",
"339 519 CURVE SMOOTH",
"341 524 OFFCURVE",
"339 520 OFFCURVE",
"342 525 CURVE SMOOTH"
);
},
{
closed = 1;
nodes = (
"322 490 OFFCURVE",
"325 494 OFFCURVE",
"326 498 CURVE SMOOTH",
"327 503 OFFCURVE",
"317 491 OFFCURVE",
"316 487 CURVE SMOOTH",
"315 481 OFFCURVE",
"321 466 OFFCURVE",
"321 471 CURVE SMOOTH",
"321 476 OFFCURVE",
"320 481 OFFCURVE",
"321 486 CURVE SMOOTH"
);
},
{
closed = 1;
nodes = (
"366 495 OFFCURVE",
"363 497 OFFCURVE",
"360 491 CURVE SMOOTH",
"359 489 OFFCURVE",
"369 494 OFFCURVE",
"372 498 CURVE SMOOTH",
"378 506 OFFCURVE",
"372 526 OFFCURVE",
"370 521 CURVE SMOOTH",
"369 518 OFFCURVE",
"372 507 OFFCURVE",
"369 501 CURVE SMOOTH"
);
},
{
closed = 1;
nodes = (
"358 514 OFFCURVE",
"356 511 OFFCURVE",
"355 507 CURVE SMOOTH",
"354 503 OFFCURVE",
"362 514 OFFCURVE",
"363 516 CURVE SMOOTH",
"366 522 OFFCURVE",
"363 536 OFFCURVE",
"361 533 CURVE SMOOTH",
"358 529 OFFCURVE",
"360 523 OFFCURVE",
"359 519 CURVE SMOOTH"
);
},
{
closed = 1;
nodes = (
"274 488 OFFCURVE",
"278 491 OFFCURVE",
"281 494 CURVE SMOOTH",
"283 496 OFFCURVE",
"283 485 OFFCURVE",
"281 483 CURVE SMOOTH",
"280 482 OFFCURVE",
"271 483 OFFCURVE",
"272 485 CURVE SMOOTH"
);
},
{
closed = 1;
nodes = (
"443 405 OFFCURVE",
"424 441 OFFCURVE",
"427 429 CURVE SMOOTH",
"429 421 OFFCURVE",
"435 405 OFFCURVE",
"437 394 CURVE SMOOTH",
"442 366 OFFCURVE",
"439 369 OFFCURVE",
"439 344 CURVE SMOOTH",
"439 343 OFFCURVE",
"439 341 OFFCURVE",
"442 341 CURVE SMOOTH",
"444 341 OFFCURVE",
"443 354 OFFCURVE",
"443 368 CURVE SMOOTH"
);
},
{
closed = 1;
nodes = (
"426 280 OFFCURVE",
"426 270 OFFCURVE",
"426 270 CURVE SMOOTH",
"427 270 OFFCURVE",
"429 274 OFFCURVE",
"429 283 CURVE SMOOTH",
"429 292 OFFCURVE",
"433 302 OFFCURVE",
"430 296 CURVE SMOOTH",
"424 284 OFFCURVE",
"426 275 OFFCURVE",
"426 276 CURVE SMOOTH"
);
},
{
closed = 1;
nodes = (
"397 514 OFFCURVE",
"396 522 OFFCURVE",
"397 525 CURVE SMOOTH",
"399 532 OFFCURVE",
"394 540 OFFCURVE",
"389 543 CURVE SMOOTH",
"386 545 OFFCURVE",
"383 545 OFFCURVE",
"384 544 CURVE SMOOTH",
"388 540 OFFCURVE",
"393 537 OFFCURVE",
"393 532 CURVE SMOOTH",
"393 528 OFFCURVE",
"396 510 OFFCURVE",
"397 514 CURVE SMOOTH"
);
},
{
closed = 1;
nodes = (
"387 516 OFFCURVE",
"382 532 OFFCURVE",
"375 538 CURVE SMOOTH",
"366 546 OFFCURVE",
"383 528 OFFCURVE",
"383 520 CURVE SMOOTH",
"383 516 OFFCURVE",
"383 510 OFFCURVE",
"383 504 CURVE SMOOTH",
"383 502 OFFCURVE",
"381 496 OFFCURVE",
"382 495 CURVE SMOOTH",
"385 492 OFFCURVE",
"385 498 OFFCURVE",
"385 499 CURVE SMOOTH",
"385 502 OFFCURVE",
"398 483 OFFCURVE",
"400 486 CURVE SMOOTH",
"402 489 OFFCURVE",
"387 498 OFFCURVE",
"387 508 CURVE SMOOTH"
);
},
{
closed = 1;
nodes = (
"264 213 OFFCURVE",
"259 195 OFFCURVE",
"250 179 CURVE SMOOTH",
"244 168 OFFCURVE",
"230 159 OFFCURVE",
"225 159 CURVE SMOOTH",
"224 159 OFFCURVE",
"224 157 OFFCURVE",
"225 156 CURVE SMOOTH",
"226 155 OFFCURVE",
"232 156 OFFCURVE",
"235 156 CURVE SMOOTH",
"257 156 OFFCURVE",
"254 169 OFFCURVE",
"266 176 CURVE SMOOTH",
"271 179 OFFCURVE",
"287 187 OFFCURVE",
"290 194 CURVE SMOOTH",
"293 202 OFFCURVE",
"283 208 OFFCURVE",
"277 214 CURVE SMOOTH",
"273 218 OFFCURVE",
"264 236 OFFCURVE",
"264 230 CURVE SMOOTH"
);
},
{
closed = 1;
nodes = (
"355 147 OFFCURVE",
"342 152 OFFCURVE",
"333 148 CURVE SMOOTH",
"328 146 OFFCURVE",
"318 136 OFFCURVE",
"319 136 CURVE SMOOTH",
"336 136 OFFCURVE",
"392 143 OFFCURVE",
"407 151 CURVE SMOOTH",
"413 154 OFFCURVE",
"439 170 OFFCURVE",
"437 172 CURVE SMOOTH",
"436 173 OFFCURVE",
"416 189 OFFCURVE",
"409 186 CURVE SMOOTH",
"398 181 OFFCURVE",
"398 177 OFFCURVE",
"383 171 CURVE SMOOTH",
"378 169 OFFCURVE",
"366 170 OFFCURVE",
"363 174 CURVE"
);
},
{
closed = 1;
nodes = (
"349 128 OFFCURVE",
"316 130 OFFCURVE",
"311 128 CURVE SMOOTH",
"308 127 OFFCURVE",
"296 117 OFFCURVE",
"294 116 CURVE SMOOTH",
"292 115 OFFCURVE",
"321 112 OFFCURVE",
"323 112 CURVE SMOOTH",
"330 112 OFFCURVE",
"353 111 OFFCURVE",
"366 114 CURVE SMOOTH",
"383 118 OFFCURVE",
"408 127 OFFCURVE",
"418 135 CURVE SMOOTH",
"426 142 OFFCURVE",
"434 147 OFFCURVE",
"443 154 CURVE SMOOTH",
"447 157 OFFCURVE",
"453 160 OFFCURVE",
"452 162 CURVE SMOOTH",
"451 164 OFFCURVE",
"447 168 OFFCURVE",
"444 168 CURVE SMOOTH",
"443 168 OFFCURVE",
"413 148 OFFCURVE",
"408 146 CURVE SMOOTH",
"395 141 OFFCURVE",
"382 135 OFFCURVE",
"368 132 CURVE SMOOTH"
);
},
{
closed = 1;
nodes = (
"448 192 OFFCURVE",
"428 194 OFFCURVE",
"414 194 CURVE SMOOTH",
"413 194 OFFCURVE",
"412 192 OFFCURVE",
"413 192 CURVE SMOOTH",
"428 192 OFFCURVE",
"456 167 OFFCURVE",
"458 167 CURVE SMOOTH",
"460 167 OFFCURVE",
"488 205 OFFCURVE",
"488 207 CURVE SMOOTH",
"488 208 OFFCURVE",
"471 229 OFFCURVE",
"470 228 CURVE SMOOTH",
"468 226 OFFCURVE",
"462 213 OFFCURVE",
"458 207 CURVE SMOOTH"
);
},
{
closed = 1;
nodes = (
"253 245 OFFCURVE",
"240 262 OFFCURVE",
"240 262 CURVE SMOOTH",
"233 264 OFFCURVE",
"171 226 OFFCURVE",
"176 217 CURVE SMOOTH",
"180 210 OFFCURVE",
"200 177 OFFCURVE",
"203 180 CURVE SMOOTH",
"208 185 OFFCURVE",
"221 196 OFFCURVE",
"236 205 CURVE SMOOTH",
"244 210 OFFCURVE",
"256 213 OFFCURVE",
"258 216 CURVE SMOOTH",
"260 219 OFFCURVE",
"259 236 OFFCURVE",
"257 239 CURVE SMOOTH"
);
},
{
closed = 1;
nodes = (
"269 125 OFFCURVE",
"286 131 OFFCURVE",
"289 136 CURVE SMOOTH",
"293 143 OFFCURVE",
"296 152 OFFCURVE",
"296 164 CURVE SMOOTH",
"296 170 OFFCURVE",
"296 184 OFFCURVE",
"293 184 CURVE SMOOTH",
"284 184 OFFCURVE",
"247 150 OFFCURVE",
"231 150 CURVE SMOOTH",
"229 150 OFFCURVE",
"241 141 OFFCURVE",
"243 139 CURVE SMOOTH",
"247 135 OFFCURVE",
"267 125 OFFCURVE",
"269 125 CURVE SMOOTH"
);
},
{
closed = 0;
nodes = (
"287 143 LINE"
);
},
{
closed = 1;
nodes = (
"240 177 OFFCURVE",
"258 205 OFFCURVE",
"255 208 CURVE SMOOTH",
"254 209 OFFCURVE",
"246 202 OFFCURVE",
"245 201 CURVE SMOOTH",
"239 195 OFFCURVE",
"223 189 OFFCURVE",
"219 186 CURVE SMOOTH",
"215 183 OFFCURVE",
"208 176 OFFCURVE",
"207 174 CURVE SMOOTH",
"206 171 OFFCURVE",
"215 164 OFFCURVE",
"219 162 CURVE SMOOTH",
"221 161 OFFCURVE",
"235 172 OFFCURVE",
"237 174 CURVE SMOOTH"
);
},
{
closed = 1;
nodes = (
"178 483 OFFCURVE",
"172 466 OFFCURVE",
"172 445 CURVE SMOOTH",
"172 439 OFFCURVE",
"165 426 OFFCURVE",
"159 415 CURVE SMOOTH",
"158 413 OFFCURVE",
"150 395 OFFCURVE",
"149 389 CURVE SMOOTH",
"146 373 OFFCURVE",
"147 349 OFFCURVE",
"150 331 CURVE SMOOTH",
"151 325 OFFCURVE",
"151 314 OFFCURVE",
"151 308 CURVE SMOOTH",
"151 305 OFFCURVE",
"149 287 OFFCURVE",
"149 284 CURVE SMOOTH",
"149 278 OFFCURVE",
"160 304 OFFCURVE",
"160 323 CURVE SMOOTH",
"160 339 OFFCURVE",
"153 348 OFFCURVE",
"153 365 CURVE SMOOTH",
"153 402 OFFCURVE",
"157 400 OFFCURVE",
"161 404 CURVE SMOOTH",
"165 408 OFFCURVE",
"182 426 OFFCURVE",
"182 440 CURVE SMOOTH",
"182 445 OFFCURVE",
"185 440 OFFCURVE",
"185 432 CURVE SMOOTH",
"185 431 OFFCURVE",
"186 428 OFFCURVE",
"188 430 CURVE SMOOTH",
"190 432 OFFCURVE",
"193 443 OFFCURVE",
"193 445 CURVE SMOOTH",
"193 448 OFFCURVE",
"192 453 OFFCURVE",
"194 453 CURVE SMOOTH",
"195 453 OFFCURVE",
"197 453 OFFCURVE",
"197 452 CURVE SMOOTH",
"197 435 OFFCURVE",
"165 397 OFFCURVE",
"162 389 CURVE SMOOTH",
"161 386 OFFCURVE",
"157 372 OFFCURVE",
"159 366 CURVE SMOOTH",
"163 354 OFFCURVE",
"164 328 OFFCURVE",
"164 322 CURVE SMOOTH",
"164 320 OFFCURVE",
"167 317 OFFCURVE",
"167 318 CURVE SMOOTH",
"167 336 OFFCURVE",
"166 374 OFFCURVE",
"171 385 CURVE SMOOTH",
"181 407 OFFCURVE",
"195 405 OFFCURVE",
"203 430 CURVE SMOOTH",
"204 433 OFFCURVE",
"206 454 OFFCURVE",
"206 457 CURVE SMOOTH",
"206 465 OFFCURVE",
"203 474 OFFCURVE",
"203 483 CURVE SMOOTH",
"203 496 OFFCURVE",
"208 505 OFFCURVE",
"217 516 CURVE SMOOTH",
"224 524 OFFCURVE",
"230 531 OFFCURVE",
"240 538 CURVE SMOOTH",
"250 545 OFFCURVE",
"286 559 OFFCURVE",
"284 566 CURVE SMOOTH",
"282 572 OFFCURVE",
"269 568 OFFCURVE",
"256 563 CURVE SMOOTH",
"228 552 OFFCURVE",
"204 527 OFFCURVE",
"189 501 CURVE"
);
},
{
closed = 1;
nodes = (
"231 544 OFFCURVE",
"267 562 OFFCURVE",
"262 557 CURVE SMOOTH",
"258 553 OFFCURVE",
"250 549 OFFCURVE",
"243 547 CURVE SMOOTH"
);
},
{
closed = 1;
nodes = (
"196 494 OFFCURVE",
"194 487 OFFCURVE",
"194 486 CURVE SMOOTH",
"194 481 OFFCURVE",
"201 493 OFFCURVE",
"200 490 CURVE SMOOTH",
"198 485 OFFCURVE",
"194 458 OFFCURVE",
"193 458 CURVE SMOOTH",
"192 458 OFFCURVE",
"193 462 OFFCURVE",
"192 464 CURVE SMOOTH",
"192 464 OFFCURVE",
"191 468 OFFCURVE",
"193 473 CURVE SMOOTH",
"193 473 OFFCURVE",
"197 486 OFFCURVE",
"193 484 CURVE SMOOTH",
"190 482 OFFCURVE",
"186 471 OFFCURVE",
"186 466 CURVE SMOOTH",
"186 457 OFFCURVE",
"186 454 OFFCURVE",
"184 451 CURVE SMOOTH",
"183 449 OFFCURVE",
"182 463 OFFCURVE",
"182 463 CURVE SMOOTH",
"182 467 OFFCURVE",
"185 477 OFFCURVE",
"185 480 CURVE SMOOTH",
"185 495 OFFCURVE",
"211 525 OFFCURVE",
"206 512 CURVE SMOOTH",
"204 507 OFFCURVE",
"199 501 OFFCURVE",
"196 494 CURVE SMOOTH"
);
},
{
closed = 1;
nodes = (
"179 303 OFFCURVE",
"177 291 OFFCURVE",
"173 279 CURVE SMOOTH",
"169 267 OFFCURVE",
"162 256 OFFCURVE",
"162 257 CURVE SMOOTH",
"162 267 OFFCURVE",
"168 260 OFFCURVE",
"173 266 CURVE SMOOTH",
"173 266 OFFCURVE",
"177 272 OFFCURVE",
"177 271 CURVE SMOOTH",
"177 261 OFFCURVE",
"166 249 OFFCURVE",
"167 245 CURVE SMOOTH",
"169 238 OFFCURVE",
"186 273 OFFCURVE",
"186 286 CURVE SMOOTH",
"186 304 OFFCURVE",
"184 351 OFFCURVE",
"183 356 CURVE SMOOTH",
"182 361 OFFCURVE",
"190 393 OFFCURVE",
"201 393 CURVE SMOOTH",
"202 393 OFFCURVE",
"198 388 OFFCURVE",
"198 388 CURVE SMOOTH",
"193 382 OFFCURVE",
"188 362 OFFCURVE",
"188 354 CURVE SMOOTH",
"188 341 OFFCURVE",
"194 306 OFFCURVE",
"194 286 CURVE SMOOTH",
"194 269 OFFCURVE",
"190 254 OFFCURVE",
"188 252 CURVE SMOOTH",
"185 249 OFFCURVE",
"172 235 OFFCURVE",
"174 234 CURVE SMOOTH",
"178 232 OFFCURVE",
"199 249 OFFCURVE",
"200 268 CURVE SMOOTH",
"201 289 OFFCURVE",
"193 337 OFFCURVE",
"194 350 CURVE SMOOTH",
"195 359 OFFCURVE",
"197 366 OFFCURVE",
"199 373 CURVE SMOOTH",
"201 379 OFFCURVE",
"230 418 OFFCURVE",
"230 420 CURVE SMOOTH",
"230 421 OFFCURVE",
"224 414 OFFCURVE",
"223 413 CURVE SMOOTH",
"219 409 OFFCURVE",
"210 399 OFFCURVE",
"209 400 CURVE SMOOTH",
"209 400 OFFCURVE",
"207 401 OFFCURVE",
"207 402 CURVE SMOOTH",
"207 405 OFFCURVE",
"225 424 OFFCURVE",
"228 431 CURVE SMOOTH",
"230 436 OFFCURVE",
"233 450 OFFCURVE",
"233 454 CURVE SMOOTH",
"233 467 OFFCURVE",
"226 473 OFFCURVE",
"226 481 CURVE SMOOTH",
"226 487 OFFCURVE",
"230 498 OFFCURVE",
"235 507 CURVE SMOOTH",
"242 519 OFFCURVE",
"267 542 OFFCURVE",
"265 543 CURVE SMOOTH",
"262 544 OFFCURVE",
"243 533 OFFCURVE",
"234 521 CURVE SMOOTH",
"225 509 OFFCURVE",
"221 495 OFFCURVE",
"220 495 CURVE SMOOTH",
"219 495 OFFCURVE",
"221 508 OFFCURVE",
"224 511 CURVE SMOOTH",
"225 512 OFFCURVE",
"224 514 OFFCURVE",
"223 514 CURVE SMOOTH",
"215 514 OFFCURVE",
"212 496 OFFCURVE",
"210 480 CURVE SMOOTH",
"208 465 OFFCURVE",
"209 448 OFFCURVE",
"211 438 CURVE SMOOTH",
"212 433 OFFCURVE",
"205 423 OFFCURVE",
"207 423 CURVE SMOOTH",
"211 423 OFFCURVE",
"221 433 OFFCURVE",
"221 446 CURVE SMOOTH",
"221 452 OFFCURVE",
"220 463 OFFCURVE",
"219 467 CURVE SMOOTH",
"218 471 OFFCURVE",
"218 483 OFFCURVE",
"220 483 CURVE SMOOTH",
"223 483 OFFCURVE",
"227 457 OFFCURVE",
"227 444 CURVE SMOOTH",
"227 438 OFFCURVE",
"205 412 OFFCURVE",
"201 408 CURVE SMOOTH",
"190 397 OFFCURVE",
"180 393 OFFCURVE",
"176 383 CURVE SMOOTH",
"174 378 OFFCURVE",
"172 361 OFFCURVE",
"172 356 CURVE SMOOTH",
"172 339 OFFCURVE",
"178 319 OFFCURVE",
"179 303 CURVE SMOOTH"
);
},
{
closed = 1;
nodes = (
"239 407 OFFCURVE",
"251 423 OFFCURVE",
"251 438 CURVE SMOOTH",
"251 445 OFFCURVE",
"250 451 OFFCURVE",
"246 454 CURVE SMOOTH",
"243 456 OFFCURVE",
"242 454 OFFCURVE",
"242 451 CURVE SMOOTH",
"242 445 OFFCURVE",
"244 435 OFFCURVE",
"244 430 CURVE SMOOTH",
"244 423 OFFCURVE",
"238 417 OFFCURVE",
"238 410 CURVE SMOOTH",
"238 409 OFFCURVE",
"236 407 OFFCURVE",
"237 407 CURVE SMOOTH"
);
},
{
closed = 1;
nodes = (
"256 444 OFFCURVE",
"260 424 OFFCURVE",
"260 421 CURVE SMOOTH",
"260 405 OFFCURVE",
"236 384 OFFCURVE",
"225 382 CURVE SMOOTH",
"216 380 OFFCURVE",
"242 403 OFFCURVE",
"246 410 CURVE SMOOTH",
"259 433 OFFCURVE",
"253 431 OFFCURVE",
"255 440 CURVE SMOOTH"
);
},
{
closed = 1;
nodes = (
"203 367 OFFCURVE",
"220 389 OFFCURVE",
"215 385 CURVE SMOOTH",
"204 376 OFFCURVE",
"199 360 OFFCURVE",
"199 344 CURVE SMOOTH",
"199 334 OFFCURVE",
"200 321 OFFCURVE",
"201 311 CURVE SMOOTH",
"202 302 OFFCURVE",
"207 293 OFFCURVE",
"206 281 CURVE SMOOTH",
"205 273 OFFCURVE",
"202 257 OFFCURVE",
"203 257 CURVE SMOOTH",
"204 257 OFFCURVE",
"216 278 OFFCURVE",
"214 290 CURVE SMOOTH",
"211 310 OFFCURVE",
"203 335 OFFCURVE",
"203 355 CURVE SMOOTH"
);
},
{
closed = 1;
nodes = (
"282 430 OFFCURVE",
"269 440 OFFCURVE",
"264 440 CURVE SMOOTH",
"262 440 OFFCURVE",
"265 410 OFFCURVE",
"263 403 CURVE SMOOTH",
"260 393 OFFCURVE",
"229 380 OFFCURVE",
"238 380 CURVE SMOOTH",
"239 380 OFFCURVE",
"251 383 OFFCURVE",
"252 384 CURVE SMOOTH",
"267 399 OFFCURVE",
"270 404 OFFCURVE",
"270 425 CURVE SMOOTH",
"270 427 OFFCURVE",
"270 430 OFFCURVE",
"271 431 CURVE SMOOTH",
"272 432 OFFCURVE",
"276 419 OFFCURVE",
"276 418 CURVE SMOOTH",
"276 415 OFFCURVE",
"277 409 OFFCURVE",
"274 406 CURVE SMOOTH",
"273 405 OFFCURVE",
"269 398 OFFCURVE",
"269 398 CURVE SMOOTH",
"274 400 OFFCURVE",
"287 410 OFFCURVE",
"287 418 CURVE SMOOTH",
"287 420 OFFCURVE",
"286 422 OFFCURVE",
"285 424 CURVE SMOOTH"
);
},
{
closed = 1;
nodes = (
"289 397 OFFCURVE",
"293 397 OFFCURVE",
"295 397 CURVE SMOOTH",
"300 397 OFFCURVE",
"306 411 OFFCURVE",
"302 415 CURVE SMOOTH",
"298 419 OFFCURVE",
"296 420 OFFCURVE",
"294 420 CURVE SMOOTH",
"293 420 OFFCURVE",
"292 419 OFFCURVE",
"292 415 CURVE SMOOTH",
"292 415 OFFCURVE",
"292 414 OFFCURVE",
"292 414 CURVE SMOOTH",
"292 412 OFFCURVE",
"289 402 OFFCURVE",
"289 401 CURVE SMOOTH"
);
},
{
closed = 1;
nodes = (
"308 392 OFFCURVE",
"315 388 OFFCURVE",
"317 389 CURVE SMOOTH",
"320 391 OFFCURVE",
"321 403 OFFCURVE",
"321 406 CURVE SMOOTH",
"321 411 OFFCURVE",
"319 407 OFFCURVE",
"314 411 CURVE SMOOTH",
"308 416 OFFCURVE",
"307 415 OFFCURVE",
"307 408 CURVE SMOOTH",
"307 402 OFFCURVE",
"302 398 OFFCURVE",
"307 393 CURVE SMOOTH"
);
},
{
closed = 1;
nodes = (
"484 370 OFFCURVE",
"484 360 OFFCURVE",
"484 348 CURVE SMOOTH",
"484 340 OFFCURVE",
"482 331 OFFCURVE",
"482 325 CURVE SMOOTH",
"482 317 OFFCURVE",
"483 304 OFFCURVE",
"481 293 CURVE SMOOTH",
"480 288 OFFCURVE",
"469 270 OFFCURVE",
"469 264 CURVE SMOOTH",
"469 262 OFFCURVE",
"473 250 OFFCURVE",
"473 248 CURVE SMOOTH",
"473 242 OFFCURVE",
"478 224 OFFCURVE",
"486 220 CURVE SMOOTH",
"488 219 OFFCURVE",
"478 236 OFFCURVE",
"477 241 CURVE SMOOTH",
"476 248 OFFCURVE",
"481 255 OFFCURVE",
"486 258 CURVE SMOOTH",
"490 261 OFFCURVE",
"505 287 OFFCURVE",
"505 297 CURVE SMOOTH",
"505 310 OFFCURVE",
"495 323 OFFCURVE",
"491 345 CURVE SMOOTH",
"490 350 OFFCURVE",
"488 360 OFFCURVE",
"488 365 CURVE SMOOTH",
"488 384 OFFCURVE",
"497 398 OFFCURVE",
"497 416 CURVE SMOOTH",
"497 432 OFFCURVE",
"491 448 OFFCURVE",
"467 461 CURVE SMOOTH",
"452 469 OFFCURVE",
"437 476 OFFCURVE",
"437 494 CURVE SMOOTH",
"437 499 OFFCURVE",
"437 523 OFFCURVE",
"437 527 CURVE SMOOTH",
"437 538 OFFCURVE",
"435 546 OFFCURVE",
"431 555 CURVE SMOOTH",
"425 569 OFFCURVE",
"410 584 OFFCURVE",
"392 584 CURVE SMOOTH",
"390 584 OFFCURVE",
"388 584 OFFCURVE",
"386 584 CURVE SMOOTH",
"385 584 OFFCURVE",
"384 582 OFFCURVE",
"385 580 CURVE SMOOTH",
"385 580 OFFCURVE",
"387 577 OFFCURVE",
"388 577 CURVE SMOOTH",
"398 577 OFFCURVE",
"419 576 OFFCURVE",
"427 553 CURVE SMOOTH",
"429 547 OFFCURVE",
"429 542 OFFCURVE",
"429 536 CURVE SMOOTH",
"429 524 OFFCURVE",
"428 510 OFFCURVE",
"427 503 CURVE SMOOTH",
"426 497 OFFCURVE",
"428 485 OFFCURVE",
"430 481 CURVE SMOOTH",
"433 475 OFFCURVE",
"461 458 OFFCURVE",
"466 451 CURVE SMOOTH",
"472 442 OFFCURVE",
"484 438 OFFCURVE",
"484 411 CURVE SMOOTH",
"484 401 OFFCURVE",
"484 392 OFFCURVE",
"484 381 CURVE SMOOTH"
);
},
{
closed = 1;
nodes = (
"490 319 OFFCURVE",
"487 334 OFFCURVE",
"489 334 CURVE SMOOTH",
"490 334 OFFCURVE",
"493 318 OFFCURVE",
"495 317 CURVE SMOOTH",
"500 314 OFFCURVE",
"499 310 OFFCURVE",
"499 306 CURVE SMOOTH",
"499 301 OFFCURVE",
"499 293 OFFCURVE",
"497 286 CURVE SMOOTH",
"495 279 OFFCURVE",
"491 274 OFFCURVE",
"487 270 CURVE SMOOTH",
"486 269 OFFCURVE",
"480 256 OFFCURVE",
"477 259 CURVE SMOOTH",
"475 261 OFFCURVE",
"476 265 OFFCURVE",
"480 269 CURVE SMOOTH",
"483 272 OFFCURVE",
"489 279 OFFCURVE",
"492 288 CURVE SMOOTH",
"495 296 OFFCURVE",
"496 306 OFFCURVE",
"493 313 CURVE SMOOTH"
);
},
{
closed = 1;
nodes = (
"516 385 OFFCURVE",
"527 428 OFFCURVE",
"523 436 CURVE SMOOTH",
"518 446 OFFCURVE",
"513 453 OFFCURVE",
"506 459 CURVE SMOOTH",
"485 477 OFFCURVE",
"469 490 OFFCURVE",
"466 500 CURVE SMOOTH",
"464 506 OFFCURVE",
"465 531 OFFCURVE",
"461 543 CURVE SMOOTH",
"460 546 OFFCURVE",
"463 547 OFFCURVE",
"465 540 CURVE SMOOTH",
"468 528 OFFCURVE",
"474 505 OFFCURVE",
"482 496 CURVE SMOOTH",
"491 486 OFFCURVE",
"518 460 OFFCURVE",
"525 447 CURVE SMOOTH",
"530 438 OFFCURVE",
"528 430 OFFCURVE",
"527 419 CURVE SMOOTH",
"526 409 OFFCURVE",
"522 393 OFFCURVE",
"522 381 CURVE SMOOTH",
"522 352 OFFCURVE",
"535 320 OFFCURVE",
"532 314 CURVE SMOOTH",
"529 308 OFFCURVE",
"527 328 OFFCURVE",
"526 334 CURVE SMOOTH",
"523 349 OFFCURVE",
"513 357 OFFCURVE",
"515 374 CURVE SMOOTH"
);
},
{
closed = 1;
nodes = (
"442 499 OFFCURVE",
"443 508 OFFCURVE",
"444 511 CURVE SMOOTH",
"447 519 OFFCURVE",
"444 525 OFFCURVE",
"444 532 CURVE SMOOTH",
"444 535 OFFCURVE",
"444 538 OFFCURVE",
"443 541 CURVE SMOOTH",
"441 546 OFFCURVE",
"440 551 OFFCURVE",
"438 555 CURVE SMOOTH",
"437 557 OFFCURVE",
"436 562 OFFCURVE",
"439 562 CURVE SMOOTH",
"441 562 OFFCURVE",
"447 556 OFFCURVE",
"449 554 CURVE SMOOTH",
"464 539 OFFCURVE",
"454 506 OFFCURVE",
"457 497 CURVE SMOOTH",
"459 491 OFFCURVE",
"468 479 OFFCURVE",
"473 475 CURVE SMOOTH",
"482 467 OFFCURVE",
"497 461 OFFCURVE",
"502 456 CURVE SMOOTH",
"509 449 OFFCURVE",
"514 443 OFFCURVE",
"516 434 CURVE SMOOTH",
"517 430 OFFCURVE",
"518 418 OFFCURVE",
"517 414 CURVE SMOOTH",
"514 403 OFFCURVE",
"512 392 OFFCURVE",
"509 375 CURVE SMOOTH",
"508 369 OFFCURVE",
"517 343 OFFCURVE",
"519 339 CURVE SMOOTH",
"521 335 OFFCURVE",
"525 319 OFFCURVE",
"525 318 CURVE SMOOTH",
"525 299 OFFCURVE",
"522 276 OFFCURVE",
"508 254 CURVE SMOOTH",
"503 246 OFFCURVE",
"511 257 OFFCURVE",
"514 257 CURVE SMOOTH",
"514 257 OFFCURVE",
"514 257 OFFCURVE",
"514 257 CURVE SMOOTH",
"515 256 OFFCURVE",
"506 231 OFFCURVE",
"503 233 CURVE SMOOTH",
"501 234 OFFCURVE",
"506 249 OFFCURVE",
"503 245 CURVE SMOOTH",
"495 234 OFFCURVE",
"500 214 OFFCURVE",
"495 216 CURVE SMOOTH",
"493 217 OFFCURVE",
"491 222 OFFCURVE",
"488 226 CURVE SMOOTH",
"485 230 OFFCURVE",
"484 234 OFFCURVE",
"483 239 CURVE SMOOTH",
"482 244 OFFCURVE",
"499 258 OFFCURVE",
"507 278 CURVE SMOOTH",
"511 288 OFFCURVE",
"513 300 OFFCURVE",
"511 310 CURVE SMOOTH",
"508 323 OFFCURVE",
"495 336 OFFCURVE",
"495 354 CURVE SMOOTH",
"495 356 OFFCURVE",
"496 361 OFFCURVE",
"497 361 CURVE SMOOTH",
"499 361 OFFCURVE",
"500 355 OFFCURVE",
"501 353 CURVE SMOOTH",
"505 346 OFFCURVE",
"504 339 OFFCURVE",
"506 343 CURVE SMOOTH",
"509 349 OFFCURVE",
"503 357 OFFCURVE",
"502 364 CURVE SMOOTH",
"501 371 OFFCURVE",
"500 378 OFFCURVE",
"502 384 CURVE SMOOTH",
"503 387 OFFCURVE",
"504 393 OFFCURVE",
"504 394 CURVE SMOOTH",
"504 407 OFFCURVE",
"510 416 OFFCURVE",
"510 426 CURVE SMOOTH",
"510 433 OFFCURVE",
"510 442 OFFCURVE",
"504 448 CURVE SMOOTH",
"502 450 OFFCURVE",
"496 458 OFFCURVE",
"495 457 CURVE SMOOTH",
"494 456 OFFCURVE",
"505 440 OFFCURVE",
"506 438 CURVE SMOOTH",
"508 434 OFFCURVE",
"506 422 OFFCURVE",
"506 417 CURVE SMOOTH",
"506 416 OFFCURVE",
"505 413 OFFCURVE",
"504 413 CURVE SMOOTH",
"503 413 OFFCURVE",
"504 427 OFFCURVE",
"501 435 CURVE SMOOTH",
"498 443 OFFCURVE",
"495 448 OFFCURVE",
"492 450 CURVE SMOOTH",
"487 454 OFFCURVE",
"481 459 OFFCURVE",
"475 462 CURVE SMOOTH",
"461 469 OFFCURVE",
"442 478 OFFCURVE",
"442 497 CURVE SMOOTH"
);
},
{
closed = 1;
nodes = (
"512 321 OFFCURVE",
"514 310 OFFCURVE",
"514 310 CURVE SMOOTH",
"515 310 OFFCURVE",
"516 312 OFFCURVE",
"516 315 CURVE SMOOTH",
"516 319 OFFCURVE",
"519 332 OFFCURVE",
"511 335 CURVE SMOOTH",
"501 339 OFFCURVE",
"510 334 OFFCURVE",
"511 327 CURVE SMOOTH"
);
},
{
closed = 1;
nodes = (
"494 242 OFFCURVE",
"510 266 OFFCURVE",
"511 271 CURVE SMOOTH",
"513 280 OFFCURVE",
"499 258 OFFCURVE",
"495 249 CURVE SMOOTH",
"493 244 OFFCURVE",
"491 239 OFFCURVE",
"492 240 CURVE SMOOTH"
);
},
{
closed = 1;
nodes = (
"455 522 OFFCURVE",
"453 526 OFFCURVE",
"452 528 CURVE SMOOTH",
"450 531 OFFCURVE",
"448 515 OFFCURVE",
"448 503 CURVE SMOOTH",
"448 497 OFFCURVE",
"448 491 OFFCURVE",
"449 491 CURVE SMOOTH",
"450 491 OFFCURVE",
"451 496 OFFCURVE",
"451 498 CURVE SMOOTH",
"451 498 OFFCURVE",
"451 498 OFFCURVE",
"451 498 CURVE SMOOTH",
"451 500 OFFCURVE",
"451 502 OFFCURVE",
"451 504 CURVE SMOOTH",
"451 509 OFFCURVE",
"451 513 OFFCURVE",
"453 518 CURVE SMOOTH"
);
}
);
width = 688;
}
);
},
